<svg width="312" height="82" viewBox="0 0 312 82" fill="none" xmlns="http://www.w3.org/2000/svg">
<g id="images/free-bonus-3">
<g id="marker">
<g id="Group 3">
<mask id="mask0_0_1684" style="mask-type:luminance" maskUnits="userSpaceOnUse" x="0" y="0" width="312" height="82">
<path id="Clip 2" fill-rule="evenodd" clip-rule="evenodd" d="M0 0H312V82H0V0Z" fill="white"/>
</mask>
<g mask="url(#mask0_0_1684)">
<path id="Fill 1" fill-rule="evenodd" clip-rule="evenodd" d="M218.319 7.10214C217.749 7.11734 217.169 7.08123 216.579 6.99573C217.169 7.08123 217.749 7.11734 218.319 7.10214ZM252.358 77.2038C252.494 76.9378 251.997 76.8371 251.869 76.5331C254.034 76.5369 256.122 76.5331 258.158 76.9378C259.064 77.1202 259.96 77.2095 260.82 76.858C261.1 76.7459 261.435 76.6224 261.596 76.9055C261.906 77.4185 262.692 77.4774 263.388 77.6218C263.688 77.6788 264.123 77.6579 263.994 77.941C263.868 78.2033 263.488 78.0646 263.182 78.0684C262.347 78.0798 261.3 77.3748 260.71 78.2926C260.359 78.304 260.014 78.3154 259.673 78.3249C259.583 78.0646 259.334 77.9467 258.874 78.0208C258.803 77.979 258.719 77.9619 258.613 77.9676C258.522 77.8612 258.448 77.6788 258.323 77.6636C256.447 77.4508 254.604 77.0613 252.639 77.2418C252.558 77.2038 252.468 77.1943 252.358 77.2038ZM204.358 76.8428C203.993 76.8257 203.778 76.687 203.758 76.4685C203.752 76.2975 203.977 76.2595 204.193 76.2652C204.567 76.2766 204.747 76.4248 204.809 76.5483C204.78 76.7934 204.573 76.8466 204.358 76.8428ZM93.6014 69.4572C93.8528 69.442 94.1073 69.3983 94.3619 69.3242C94.1073 69.3983 93.8528 69.442 93.6014 69.4572ZM254.984 54.0038C254.52 54.0038 254.259 53.886 254.259 53.6048C254.269 53.2514 254.656 53.1773 255.146 53.1887C255.535 53.1925 255.961 53.2419 255.896 53.5516C255.842 53.8556 255.455 53.9715 254.984 54.0038ZM272.11 78.9709C271.804 79.3927 271.179 79.1514 270.693 79.1837C269.517 79.3186 268.682 78.7847 267.651 78.6232C267.38 78.5871 267.18 78.3515 267.306 78.1501C267.425 77.9619 267.751 78.0094 268.005 77.9885C269.423 77.8707 270.622 78.2622 271.84 78.5757C272.13 78.646 272.23 78.8113 272.11 78.9709ZM230.019 74.0991C230.731 74.1428 231.44 74.1846 232.146 74.2226C232.381 74.3499 232.616 74.4734 232.851 74.595C233.103 74.7242 233.322 74.8724 233.167 75.0814C233.003 75.2942 232.616 75.2942 232.336 75.2562C231.24 75.108 229.945 75.0757 230.019 74.0991C229.993 74.0725 229.964 74.0402 229.935 74.0079C229.964 74.0402 229.993 74.0725 230.019 74.0991ZM207.947 73.3086C206.445 73.3143 204.928 73.0369 203.442 72.8127C203.143 72.7652 202.601 72.6379 202.563 72.2522C204.158 72.0983 205.749 72.1952 207.28 72.3757C208.337 72.4992 209.168 72.3757 210.048 72.1192C210.038 72.0565 210.029 71.9862 210.019 71.9216C210.029 71.9862 210.038 72.0565 210.048 72.1192L210.148 72.1629C210.273 73.1072 208.917 73.3086 207.947 73.3086ZM131.929 69.8847C131.162 69.4192 131.407 69.0563 132.268 68.7636C132.438 68.7693 132.609 68.775 132.773 68.7788C134.185 68.6838 135.577 68.6933 136.978 68.737C135.577 68.6933 134.185 68.6838 132.773 68.7788C133.676 69.3508 134.845 68.9024 135.867 69.0525C136.547 69.1532 137.678 68.9879 137.413 69.6871C137.198 70.2457 136.166 70.1127 135.47 70.0234C134.6 69.9113 133.814 69.4572 132.899 69.9379C133.669 70.5022 134.6 70.525 135.561 70.4718C134.6 70.525 133.669 70.5022 132.899 69.9379C132.574 69.9208 132.248 69.9056 131.929 69.8847ZM121.68 68.9347C121.46 68.3475 122.711 68.6838 123.072 68.3855C123.246 68.3893 123.407 68.3893 123.571 68.3893C123.751 68.604 123.951 68.7902 124.402 68.5812C124.666 68.5869 124.927 68.5926 125.188 68.5983C125.759 68.9707 126.303 69.0886 126.79 68.5546C126.999 68.5983 127.209 68.6458 127.415 68.6895C127.325 69.271 126.845 69.4952 125.797 69.4895C124.953 69.4838 124.222 69.2216 123.4 69.2653C122.73 69.3033 121.825 69.3185 121.68 68.9347ZM114.059 68.3893C114.024 68.6572 114.443 68.9822 113.888 69.1684C113.679 69.2387 113.254 69.1475 112.983 69.0677C112.277 68.8643 112.838 68.5812 112.912 68.3361C113.292 68.3532 113.672 68.3741 114.059 68.3893ZM92.0612 67.5248C91.9098 67.5096 91.7455 67.4982 91.6005 67.5039C91.7455 67.4982 91.9098 67.5096 92.0612 67.5248ZM234.614 51.1556C235.339 51.4596 236.144 51.2829 236.911 51.2943C236.966 51.3266 237.03 51.3475 237.111 51.3475C238.016 51.357 238.932 51.433 239.837 51.3893C238.932 51.433 238.016 51.357 237.111 51.3475C237.085 52.0676 235.874 51.9764 235.265 52.3013C234.778 52.3298 234.269 52.3868 233.973 52.0619C233.898 51.7902 233.232 51.5508 233.853 51.2411C234.108 51.2145 234.362 51.1822 234.614 51.1556ZM209.784 57.0667C210.979 57.1636 212.075 57.2852 212.329 57.3916C212.535 57.4239 212.755 57.4505 212.961 57.4828C212.951 57.5475 212.945 57.6121 212.945 57.671C212.896 58.0586 212.545 58.2562 211.894 58.2296C211.479 58.2144 211.114 58.0757 211.114 57.8249C211.105 57.3175 211.939 57.5589 212.329 57.3916C212.075 57.2852 210.979 57.1636 209.784 57.0667ZM178.922 70.3958C179.183 70.3844 179.444 70.3749 179.708 70.3692C179.444 70.3749 179.183 70.3844 178.922 70.3958C178.648 70.4072 178.377 70.4167 178.106 70.4281C178.377 70.4167 178.648 70.4072 178.922 70.3958ZM189.787 56.3048C190.157 56.3523 190.828 56.2022 190.792 56.5708C190.757 56.9223 190.167 57.0838 189.587 57.0515C189.02 57.0192 188.321 57.2434 187.895 56.9451C187.464 56.6354 187.824 56.2877 188.131 55.9837C188.53 55.9837 188.926 55.9894 189.326 55.9894C189.316 56.1756 189.481 56.2611 189.787 56.3048ZM191.852 71.1387C191.733 71.0266 191.543 70.9563 191.343 70.9126C191.543 70.9563 191.733 71.0266 191.852 71.1387ZM150.96 69.3603C151.62 69.3926 152.271 69.4249 152.931 69.4515C153.096 69.5256 153.25 69.6168 153.431 69.6643C153.818 69.7669 154.607 69.5484 154.497 70.0234C154.381 70.4927 153.782 70.3958 153.115 70.3597C152.445 70.3217 151.765 70.2894 151.088 70.2305C150.434 70.1773 149.783 70.0918 149.783 69.6814C149.783 69.2748 150.653 69.6016 150.96 69.3603ZM128.456 53.8556C128.726 53.8765 128.955 53.9677 128.946 54.1539C128.936 54.3724 128.691 54.4693 128.465 54.5282C128.03 54.4522 127.805 54.3306 127.805 54.1159C127.815 53.8651 128.121 53.8233 128.456 53.8556ZM144.048 53.9943C144.409 54.0418 144.77 54.0798 145.134 54.1121C144.77 54.0798 144.409 54.0418 144.048 53.9943ZM154.987 54.9709C153.766 55.5296 152.38 55.0659 151.079 55.1039C150.508 55.1191 150.728 54.7296 150.818 54.4902H153.26C153.782 54.703 154.578 54.5282 154.987 54.9709ZM161.908 70.6409C161.177 70.4984 160.252 70.5782 159.656 70.1393C159.611 70.1089 159.721 69.9322 159.811 69.9208C160.616 69.7821 161.393 69.8467 162.153 70.0386C162.488 70.1241 163.004 70.1393 162.923 70.4281C162.84 70.7435 162.308 70.5725 161.908 70.6409ZM184.087 70.9772C183.997 70.924 183.897 70.8822 183.797 70.8442C183.897 70.8822 183.997 70.924 184.087 70.9772C184.296 70.9677 184.512 70.9563 184.728 70.9506C185.047 71.1273 185.588 70.9297 185.943 71.2546C185.398 71.3877 185.192 71.8855 184.441 71.7297C183.877 71.6176 184.167 71.2394 184.087 70.9772ZM194.775 71.5967C195.252 71.7202 196.257 71.3991 196.141 71.9539C196.051 72.3814 195.136 72.1629 194.591 72.1629C192.693 72.1629 190.802 72.1363 188.901 72.0983C188.25 72.0869 187.47 72.0014 187.489 71.5283C187.499 71.0304 188.311 71.2281 188.775 71.2281C189.851 71.2281 190.918 71.2984 191.994 71.3345C191.968 71.2718 191.923 71.2186 191.878 71.1692C191.923 71.2186 191.968 71.2718 191.994 71.3345C192.748 71.3573 193.505 71.3782 194.266 71.3991C194.44 71.4637 194.591 71.5549 194.775 71.5967ZM176.531 71.4789H175.915C175.329 71.3307 174.775 71.1007 174.072 71.325C173.734 71.4314 173.263 71.458 173.038 71.2224C172.577 70.7644 172.161 70.4718 171.456 71.1007C171.291 71.2451 170.956 71.2014 170.715 71.1007C170.47 71.0038 170.331 70.8651 170.36 70.6941C170.396 70.4281 170.776 70.4604 171.085 70.4072C172.116 70.2248 173.122 70.5402 174.153 70.4395C174.623 70.3901 175.129 70.5193 175.564 70.3103C175.906 70.354 176.244 70.3958 176.586 70.4338C176.83 70.7853 177.091 71.1387 176.531 71.4789C176.586 71.6233 176.711 71.7145 176.866 71.762C176.711 71.7145 176.586 71.6233 176.531 71.4789ZM202.257 73.3998C202.292 73.4169 202.221 73.3846 202.137 73.3466C202.137 73.3618 202.147 73.3789 202.147 73.3941C199.034 73.1699 196.031 72.5087 193.099 72.7804C196.067 72.5087 199.109 73.187 202.137 73.3466C202.328 72.7766 202.727 73.1661 203.152 73.2402C202.727 73.1661 202.328 72.7766 202.257 73.3998ZM228.443 74.9788C227.947 74.9693 228.118 74.6216 227.912 74.4563C227.802 74.1162 228.273 74.1998 228.534 74.1732C228.843 74.1428 229.268 74.1314 229.159 74.4297C229.078 74.6653 229.004 74.9845 228.443 74.9788ZM91.8904 68.9821C91.7809 68.9556 91.6842 68.9232 91.5747 68.8966C91.3395 68.6458 91.3749 68.2715 90.5049 68.3741C89.7026 68.4691 90.3341 68.1062 90.2697 67.958C90.4888 67.9409 90.695 67.9257 90.9141 67.9105C91.8808 67.9789 92.841 68.053 93.8109 68.129C94.2072 68.1613 94.7775 68.0701 94.7679 68.4653C94.7582 68.7522 94.3168 68.8814 93.9365 69.0145C93.2405 69.2596 92.58 68.8054 91.8904 68.9821C92.4157 69.3451 92.986 69.4895 93.6014 69.4572C92.986 69.4895 92.4157 69.3451 91.8904 68.9821ZM86.5803 68.7199C85.9649 68.6078 84.8532 68.8225 84.9853 68.3361C85.1239 67.8402 86.3161 67.8022 87.1506 67.7433C87.7467 67.7015 88.578 67.8288 88.5072 68.2145C88.3718 68.908 87.2473 68.604 86.5803 68.7199ZM1.23434 61.0265C1.74022 61.9442 1.84011 62.9418 1.46956 63.9716C1.22467 64.6557 0.419129 65.5145 1.21501 66.1225C3.28687 67.7167 2.80677 69.4306 2.34599 71.1805C2.24611 71.5321 2.27188 71.895 2.7971 72.1629C2.71655 72.4023 2.9711 72.5201 3.26109 72.6265C3.4222 72.7918 3.58653 72.9628 3.74764 73.1338C3.74764 73.4055 3.75731 73.6716 3.75731 73.9452C3.44154 74.0611 3.13221 74.196 2.79066 74.291C2.01089 74.5152 1.25045 74.8135 1.77567 75.3645C2.29122 75.8928 2.3911 76.9644 4.27286 76.3621C4.7433 76.4096 5.14929 76.3621 5.44896 76.1265C6.14495 76.0467 6.85383 75.9669 7.54982 75.8871C7.93004 76.0201 8.16526 75.8966 8.38114 75.7274L8.76136 75.7426C9.81179 75.9783 10.8332 75.8339 11.8482 75.6305C12.3992 75.6305 12.9599 75.6248 13.5109 75.6248C15.1574 75.6894 16.7975 75.7749 18.444 75.8111C19.0852 75.8281 19.7458 75.9137 20.3709 75.7104C22.5684 74.9959 24.8304 75.0111 27.1214 75.5393C27.8174 75.7009 28.5327 75.6742 29.2029 75.5127C30.8494 75.1403 32.5862 75.1403 34.2972 75.0073C36.5688 74.8249 38.8404 75.0282 41.1024 75.0643C44.7467 75.1289 48.3749 74.8724 52.0127 75.0111C53.4885 75.07 54.9642 75.0225 56.4013 74.7831C56.8267 74.7071 57.3325 74.6805 57.3873 74.3651C57.4518 73.9775 56.8557 74.0516 56.4754 73.9718C55.7859 73.8274 55.0899 73.7742 54.3843 73.816C50.9268 74.0459 47.4984 73.4701 44.0056 73.8426C42.3945 74.0193 40.6481 73.7039 38.8566 73.816C36.7299 73.9452 34.4422 74.1789 32.2511 73.6944C31.4906 73.5234 30.6303 73.6773 29.8989 73.9395C25.8164 73.4169 21.6726 73.9072 17.574 73.6716C17.2679 73.4587 16.9683 73.2459 16.6686 73.0312C18.6696 72.9894 20.6705 72.9628 22.6683 72.8982C26.145 72.7918 29.6379 73.1129 33.0824 72.6645C33.9266 72.5581 34.7676 72.3871 35.6634 72.4878C39.066 72.883 42.4751 72.4194 45.897 72.5524C47.9689 72.6322 50.131 72.7766 52.2028 72.3643C55.6506 72.3814 59.0629 72.8716 62.5267 72.5619C63.4321 72.4764 64.3827 72.4992 65.2978 72.5581C70.9334 72.9096 76.6077 72.75 82.2529 72.9039C82.5429 72.9153 82.8329 72.8621 82.9328 72.7006C83.3323 72.0337 84.3699 71.9178 85.2947 71.6917C85.5202 71.6879 85.7393 71.6822 85.9649 71.6765C86.6512 71.9919 87.3407 71.8152 88.0206 71.667C88.7069 71.9387 89.4674 71.8798 90.2246 71.8532C93.3469 71.7468 96.4434 71.9805 99.556 72.0565C102.685 72.1306 105.833 72.4555 108.965 72.0071C109.129 72.1895 109.364 72.2218 109.654 72.1135C109.935 72.1572 110.205 72.1952 110.476 72.237C109.59 73.3618 109.635 73.3998 111.771 73.3675C112.477 73.3523 113.183 73.3847 113.879 73.3732C114.314 73.3675 115.055 73.4911 114.559 72.9571C114.368 72.7538 114.378 72.5619 114.765 72.4935C115.164 72.4289 115.354 72.6208 115.38 72.8241C115.545 74.0041 117.001 73.2345 117.823 73.3618C118.792 73.512 118.999 73.0901 118.892 72.6056C120.284 72.3491 121.67 72.4992 123.062 72.6056C124.928 74.0725 125.043 74.0782 127.55 72.8621C128.121 72.5847 128.791 72.674 129.426 72.8127C129.677 72.8659 129.948 72.9305 129.948 73.1338C129.948 73.491 129.197 73.2991 128.881 73.7685C139.205 74.0668 149.339 74.8458 159.756 74.4677C159.276 74.1162 158.86 74.2701 158.516 74.2226C158.164 74.1789 157.604 74.2549 157.584 73.9661C157.555 73.5918 158.171 73.645 158.57 73.6678C159.547 73.7153 160.523 73.7894 161.493 73.8863C161.938 73.9281 162.559 73.7514 162.788 74.1257C163.085 74.6387 161.947 74.4468 161.648 74.9047C162.969 74.5798 164.625 75.583 165.301 74.2321C165.356 74.1257 165.991 74.0877 166.362 74.0782C167.228 74.0516 168.073 74.158 168.923 74.3347C168.894 74.6482 167.979 74.7185 168.308 75.0605C168.604 75.3797 169.194 75.1878 169.655 75.2144C171.066 75.2942 172.513 75.2562 173.879 75.45C178.087 76.0353 182.395 76.0258 186.648 76.3355C192.513 76.7611 198.458 76.6604 204.329 77.1088C204.673 77.1354 205.205 77.2095 205.244 76.8789C205.315 76.25 206.075 76.421 206.681 76.4096C209.001 76.3621 211.305 76.7193 213.631 76.4628C213.802 76.4742 213.976 76.4837 214.147 76.5008C214.337 76.6927 214.591 76.7934 214.978 76.7079C216.383 76.8314 217.784 76.9492 219.186 77.0708C219.586 77.2589 220.056 77.2266 220.517 77.2095C220.952 77.2152 221.387 77.2152 221.819 77.2209C221.964 77.3919 222.183 77.4546 222.498 77.3805C225.872 77.7377 229.249 78.1007 232.623 78.4579C232.851 78.6555 233.087 78.6669 233.328 78.4693C233.973 78.4902 234.614 78.5073 235.265 78.5282C237.881 78.8854 240.398 79.5637 243.175 79.4877C243.481 79.4839 243.791 79.4782 244.106 79.4782C245.311 79.6378 246.523 79.6226 247.735 79.5409C250.702 80.2135 253.95 79.6758 256.927 80.2896C258.593 80.4815 260.114 81.0686 261.896 80.9451C262.221 81.0363 262.547 81.0192 262.882 80.9508C265.218 81.4467 267.651 81.6063 270.103 81.6975C270.403 81.783 270.693 81.7887 270.983 81.6975C271.099 81.6291 271.189 81.5474 271.324 81.4999C271.189 81.5474 271.099 81.6291 270.983 81.6975C272.004 82.1573 273.154 81.8514 274.15 81.7564C276.418 81.5436 278.564 82.2523 280.846 81.9008C281.812 81.7507 282.363 81.4524 282.302 80.9603C282.228 80.3903 281.458 80.128 280.446 80.1603C278.149 80.2306 275.913 80.0425 273.721 79.6112C273.225 79.5143 272.7 79.4839 272.909 79.083C273.08 78.7524 273.515 78.6669 274.086 78.7619C274.446 78.8208 274.846 78.874 275.207 78.8436C278.174 78.6023 280.936 79.3338 283.739 79.6169C289.784 80.2306 295.748 81.0629 301.935 80.7323C302.425 80.7057 303.385 80.8387 303.275 80.2782C303.105 79.425 304.226 78.3952 302.354 77.7548C302.235 77.7168 302.144 77.5667 302.18 77.4926C302.615 76.3887 301.258 76.3089 300.018 76.1702C299.422 76.1056 298.706 76.1113 298.832 75.5982C298.967 75.0168 299.667 75.3208 300.227 75.3379C303.71 75.4652 307.303 75.8605 310.18 74.1637C310.777 73.987 311.012 73.6298 311.373 73.3371C311.888 73.2079 312.117 72.9514 311.943 72.6702C311.753 72.3377 311.257 72.2427 310.677 72.3548C310.47 72.3225 310.255 72.2845 310.045 72.2522C308.244 71.8361 306.278 71.8798 304.442 71.5435C304.161 71.4846 303.881 71.4314 303.601 71.3725C303.285 71.0304 302.976 70.6903 302.66 70.3483C302.66 70.3008 302.624 70.2685 302.55 70.2419C302.66 69.3717 301.123 69.0239 300.788 68.2506C300.234 66.9757 300.343 66.8845 302.525 67.0194C303.636 67.0878 305.041 67.5305 305.847 66.6013C306.243 66.5709 306.423 66.4151 306.514 66.2023C307.239 65.8774 307.799 65.4879 307.889 64.9217C308.424 64.6177 309.011 64.3193 308.064 63.9241C307.919 63.8709 307.773 63.8177 307.638 63.7588C306.823 63.337 305.821 63.3313 304.825 63.2895C304.551 63.1926 304.271 63.1014 304 63.0121C303.772 62.8088 303.391 62.7613 303.03 62.6967C300.662 62.2749 298.297 61.8207 295.909 61.4483C293.738 61.1063 291.646 60.5572 289.359 60.4926C289.149 60.4774 288.933 60.4603 288.724 60.4508C287.622 59.8522 286.137 60.0879 284.87 59.8428C284.139 59.704 283.459 59.4247 283.939 59.0789C285.231 58.1555 284.229 57.4771 283.478 56.7836C282.818 56.1699 283.214 55.9571 284.21 55.9248C285.105 55.8925 285.911 55.7709 286.626 55.446C286.887 55.4023 287.152 55.3605 287.413 55.3225C287.857 55.3377 288.057 55.2046 288.057 54.9538C288.898 54.1273 289.584 53.278 288.843 52.2861C289.078 51.3418 289.049 50.3499 290.464 49.6336C290.815 49.4531 290.95 49.0788 290.815 48.7482C291.511 48.0489 292.081 47.3231 292.362 46.5232C292.581 45.8885 292.262 45.4515 291.06 45.3432C289.819 45.2368 288.579 45.0886 287.342 44.986C286.507 44.9176 285.702 44.8112 285.134 44.4312C284.445 43.979 284.119 43.5134 285.531 43.3272C286.671 43.1733 287.271 42.7306 287.712 42.1378C288.553 41.0224 289.004 39.8805 288.318 38.6853C288.063 38.2426 288.002 37.7296 288.653 37.5491C290.515 37.0208 290.654 35.8941 291.305 34.9935C291.721 34.4063 292.21 33.6368 291.26 32.9813C290.064 32.1585 290.544 31.0755 289.964 30.1539C289.848 29.9715 290.119 29.7796 290.38 29.6618C292.616 28.6852 293.096 27.2069 293.332 25.7458C293.567 24.2257 294.128 22.7892 295.123 21.3756C296.27 19.7529 295.329 18.8998 292.462 18.6014C290.97 18.4399 289.43 18.4247 287.964 18.1321C286.826 17.9022 286.617 17.6514 287.258 17.0168C288.563 15.7247 289.649 14.3852 288.453 12.8214C288.138 12.4053 288.698 12.107 289.088 11.7915C290.28 10.8472 291.086 9.82305 291.105 8.6013C291.124 7.45935 290.528 6.99003 288.598 7.19334C285.386 7.52965 282.283 7.18194 279.19 6.87222C272.671 6.2281 266.12 5.69987 259.56 5.33126C249.536 4.77643 239.547 4.0506 229.51 3.62308C225.35 3.44257 221.168 3.24497 216.998 3.15946C210.998 3.03596 204.999 2.89725 199.018 2.66734C192.158 2.40133 185.292 2.27782 178.422 2.10302C170.911 1.90541 163.41 1.6603 155.899 1.43609C153.015 1.35058 150.138 1.24798 147.251 1.16247C141.586 0.987667 135.922 0.784358 130.257 0.651352C124.747 0.518346 119.237 0.512646 113.734 0.368239C102.714 0.0794267 91.6907 0.0756266 80.6708 0.00532349C75.7119 -0.0212777 70.7529 0.0585258 65.794 0.0528256C59.2884 0.0528256 52.8376 0.448043 46.3868 0.896463C42.3752 1.17958 38.3861 1.51589 34.3519 1.6812C31.336 1.8047 28.3973 1.28028 25.3846 1.55199C23.5093 1.723 23.0775 1.86741 23.1291 2.97325C23.2032 4.29001 23.1935 5.59157 22.5974 6.89503C22.2623 7.59806 22.2978 8.36759 22.7327 9.08772C23.1226 9.70525 23.2386 10.3684 23.0582 10.9916C22.8133 11.877 23.2837 12.6409 24.1247 13.2489C25.2299 14.045 25.6456 14.9077 25.8615 15.8748C26.0065 16.4828 25.8454 16.9199 24.7402 17.0377C23.258 17.1973 22.5072 17.7312 22.533 18.5748C22.5781 19.5135 22.7424 20.4844 24.6145 20.8625C25.5006 21.0449 26.0516 21.4497 26.6058 21.8392C27.1117 22.2021 27.0118 22.6182 26.6058 23.0134C26.1966 23.3973 25.6263 23.3231 25.0141 23.2224C22.8874 22.8804 20.6705 22.9659 18.5052 22.8747C16.5977 22.7949 14.2165 24.3207 14.4807 25.3239C15.1961 27.986 14.6708 30.6556 14.7514 33.3233C14.7868 34.203 13.8266 34.6571 12.4894 34.8491C8.97725 35.3564 7.83015 36.4014 8.56159 38.5086C8.95147 39.6145 9.43157 40.7393 8.92247 41.8547C8.06537 43.711 9.07714 45.6377 8.19103 47.4903C7.1696 49.6184 9.00625 51.7256 8.28125 53.8974C7.87526 55.1096 9.68291 55.6854 11.7741 55.275C12.4991 55.1362 13.2499 55.0336 14.0006 54.9652C14.9415 54.874 15.8115 54.9386 15.8469 55.674C15.8824 56.2991 15.5569 56.7304 14.2713 56.7152C12.3638 56.6943 10.4433 56.7209 8.53581 56.7361C7.00527 56.7532 5.5134 56.7627 4.08275 56.2991C2.64566 55.8355 1.83045 56.7304 0.78968 57.0401C-0.089976 57.2966 -0.151197 57.9161 0.20002 58.4234C0.780013 59.2594 0.754236 60.1677 1.23434 61.0265Z" fill="#D52917"/>
</g>
</g>
<path id="Fill 4" fill-rule="evenodd" clip-rule="evenodd" d="M117.118 75.8067C117.759 75.8181 118.745 76.276 118.909 75.7592C119.044 75.3203 117.843 75.2785 117.098 75.2101C116.892 75.1873 116.666 75.1987 116.447 75.2044C113.045 75.2785 109.652 75.2576 106.259 75.0163C105.102 74.9307 103.887 74.868 102.73 75.2994C103.501 75.6737 104.287 75.5996 105.047 75.5882C109.081 75.5084 113.099 75.7212 117.118 75.8067Z" fill="black"/>
<path id="Fill 6" fill-rule="evenodd" clip-rule="evenodd" d="M65.912 74.9477C68.1127 75.0864 70.22 74.8033 72.5175 74.8679C72.2178 74.3928 71.7925 74.4574 71.4412 74.446C67.478 74.3187 63.4986 74.5695 59.5611 74.1363C59.1164 74.0888 58.4816 74.0128 58.4204 74.4517C58.3463 74.8831 58.936 74.847 59.4257 74.8793C61.5878 75.0332 63.7757 74.809 65.912 74.9477Z" fill="black"/>
<path id="Fill 8" fill-rule="evenodd" clip-rule="evenodd" d="M183.353 78.0744C183.408 77.759 182.993 77.6317 182.512 77.6146C181.137 77.5671 179.77 77.5671 178.395 77.8768C179.745 78.0212 181.091 78.1751 182.448 78.3043C182.783 78.3366 183.302 78.3993 183.353 78.0744Z" fill="black"/>
<path id="Fill 10" fill-rule="evenodd" clip-rule="evenodd" d="M173.427 77.338C173.482 76.8534 172.422 77.1841 171.99 76.8572C171.275 77.3323 169.599 76.709 169.548 77.3C169.5 77.8396 171.136 77.5565 171.997 77.7275C172.422 77.813 173.402 77.6534 173.427 77.338Z" fill="black"/>
</g>
<g id="Group 3_2">
<path id="FREEBonus#2" fill-rule="evenodd" clip-rule="evenodd" d="M225.316 56.5486C225.705 56.9498 226.154 57.0836 226.664 56.9498C226.879 56.8428 227.1 56.689 227.328 56.4884C227.556 56.2878 227.67 55.8665 227.67 55.2245C227.67 54.9302 227.757 54.4086 227.932 53.6596C228.106 52.9106 228.327 52.0345 228.596 51.0314C228.864 50.0282 229.152 48.9984 229.461 47.9417C229.77 46.8851 230.058 45.8886 230.326 44.9524C230.393 44.7183 230.458 44.4951 230.52 44.2828L230.599 44.0125L230.91 44.0094C231.825 43.9994 232.764 43.9894 233.724 43.9793L234.693 43.9693C235.474 43.9613 236.23 43.9533 236.963 43.9452H236.999L236.645 45.0377L236.182 46.4771C235.873 47.4402 235.612 48.2895 235.397 49.0251C235.183 49.7607 235.048 50.2355 234.995 50.4495C234.995 50.6368 234.954 50.8842 234.874 51.1919C234.793 51.4995 234.686 51.8138 234.552 52.1348C234.337 53.1246 234.311 54.0073 234.472 54.7831C234.633 55.5588 234.908 56.1473 235.297 56.5486C235.686 56.9498 236.135 57.0836 236.645 56.9498C236.859 56.8428 237.081 56.689 237.309 56.4884C237.537 56.2878 237.651 55.8665 237.651 55.2245C237.651 54.9302 237.738 54.4086 237.912 53.6596C238.087 52.9106 238.308 52.0345 238.577 51.0314C238.845 50.0282 239.133 48.9984 239.442 47.9417C239.75 46.8851 240.039 45.8886 240.307 44.9524C240.408 44.6013 240.503 44.2746 240.592 43.9725L240.613 43.9001L240.753 43.898L241.031 43.8935L241.293 43.8891C242.058 43.8757 242.494 43.869 242.601 43.869C243.084 43.8155 243.533 43.7754 243.949 43.7486C244.365 43.7219 244.667 43.6951 244.855 43.6684C245.472 43.7754 245.881 43.6149 246.082 43.1869C246.283 42.7589 246.183 42.3442 245.78 41.943C245.485 41.6487 245.217 41.4481 244.975 41.3411C244.734 41.2341 244.264 41.1806 243.567 41.1806C243.218 41.1806 242.567 41.1873 241.615 41.2007L241.494 41.2027C241.575 40.9301 241.621 40.7285 241.632 40.598L241.635 40.5386L241.655 40.3179C241.669 40.1708 241.729 40.0972 241.836 40.0972C241.944 39.9902 242.004 39.8832 242.017 39.7762C242.031 39.6692 242.038 39.5622 242.038 39.4552C242.038 39.4017 242.105 39.2078 242.239 38.8734C242.373 38.539 242.541 38.1378 242.742 37.6696C242.943 37.2015 243.138 36.7601 243.325 36.3455C243.388 36.2073 243.446 36.0802 243.5 35.9643L243.563 35.8279L243.788 35.8239C244.489 35.8116 244.914 35.805 245.063 35.804L245.096 35.8038C245.579 35.7503 246.022 35.7102 246.424 35.6834C246.827 35.6567 247.122 35.6299 247.31 35.6032C247.927 35.7102 248.343 35.5497 248.557 35.1217C248.772 34.6937 248.678 34.2791 248.276 33.8778C247.98 33.5836 247.712 33.3829 247.471 33.2759C247.229 33.1689 246.76 33.1154 246.062 33.1154C245.777 33.1154 245.289 33.1199 244.6 33.1289L244.583 33.1295L244.665 32.9349C244.77 32.6874 244.888 32.4149 245.02 32.1173L245.157 31.8114C245.438 31.1827 245.72 30.534 246.002 29.8653C246.283 29.1965 246.545 28.5946 246.787 28.0596C247.028 27.5246 247.189 27.1501 247.269 26.9361C247.779 25.8661 248.155 25.077 248.396 24.5687C248.638 24.0605 248.799 23.6726 248.879 23.4051C248.96 23.1376 249 22.83 249 22.4822C249 22.1612 248.879 21.8202 248.638 21.459C248.396 21.0979 248.168 20.8237 247.954 20.6365L247.831 20.5145L247.542 20.2256L247.471 20.155L247.413 20.0972L247.316 20.0009C247.205 19.9966 247.088 20.0078 246.968 20.0346C246.847 20.0613 246.746 20.1148 246.666 20.1951C246.451 20.1951 246.196 20.3088 245.901 20.5362C245.606 20.7635 245.458 20.9842 245.458 21.1982C245.458 21.3052 245.338 21.7065 245.096 22.402C244.855 23.0975 244.533 23.9802 244.13 25.0503C243.728 26.1203 243.299 27.2505 242.842 28.4408C242.386 29.6312 241.937 30.7815 241.494 31.8916C241.328 32.3079 241.17 32.7035 241.019 33.0784L240.98 33.1736L240.77 33.1756C239.75 33.1863 238.696 33.2013 237.608 33.2206L236.786 33.2358C236.233 33.2465 235.69 33.2583 235.156 33.2711L234.537 33.288L234.583 33.1739C234.712 32.8663 234.864 32.5141 235.039 32.1173L235.176 31.8114C235.458 31.1827 235.739 30.534 236.021 29.8653C236.303 29.1965 236.564 28.5946 236.806 28.0596C237.047 27.5246 237.208 27.1501 237.289 26.9361C237.798 25.8661 238.174 25.077 238.416 24.5687C238.657 24.0605 238.818 23.6726 238.898 23.4051C238.979 23.1376 239.019 22.83 239.019 22.4822C239.019 22.1612 238.898 21.8202 238.657 21.459C238.416 21.0979 238.187 20.8237 237.973 20.6365L237.85 20.5145L237.561 20.2256L237.49 20.155L237.432 20.0972L237.335 20.0009C237.224 19.9966 237.108 20.0078 236.987 20.0346C236.866 20.0613 236.766 20.1148 236.685 20.1951C236.47 20.1951 236.215 20.3088 235.92 20.5362C235.625 20.7635 235.478 20.9842 235.478 21.1982C235.478 21.3052 235.357 21.7065 235.115 22.402C234.874 23.0975 234.552 23.9802 234.15 25.0503C233.747 26.1203 233.318 27.2505 232.862 28.4408C232.406 29.6312 231.956 30.7815 231.514 31.8916C231.348 32.3079 231.189 32.7035 231.038 33.0784L230.906 33.4083L230.661 33.4192C230.401 33.4313 230.151 33.4439 229.912 33.4568L229.562 33.4766C228.649 33.5301 228.046 33.5969 227.751 33.6772C226.758 33.7842 226.094 33.9447 225.758 34.1587C225.423 34.3727 225.403 34.6803 225.698 35.0816C225.805 35.2688 225.973 35.436 226.201 35.5831C226.429 35.7303 226.744 35.8038 227.147 35.8038C227.442 35.9108 227.71 35.971 227.952 35.9844C228.193 35.9978 228.395 36.0044 228.555 36.0044L228.731 36.0038C228.97 36.0022 229.329 35.998 229.807 35.991L229.825 35.9914L229.77 36.1106C229.728 36.2007 229.688 36.2804 229.653 36.3497L229.602 36.4458C229.602 36.5528 229.568 36.6598 229.501 36.7668C229.434 36.8738 229.401 36.9808 229.401 37.0878C229.401 37.1948 229.367 37.3353 229.3 37.5091C229.233 37.683 229.199 37.8368 229.199 37.9706C229.092 38.0776 228.991 38.2648 228.898 38.5323C228.804 38.7998 228.757 39.0406 228.757 39.2546C228.757 39.4418 228.716 39.6291 228.636 39.8164C228.555 40.0036 228.462 40.0972 228.354 40.0972C228.301 40.1775 228.16 40.5453 227.932 41.2007L227.887 41.3281L227.844 41.4533L227.827 41.5036C227.699 41.5094 227.576 41.5155 227.457 41.522L227.107 41.5417C226.194 41.5952 225.591 41.6621 225.296 41.7424C224.303 41.8494 223.632 42.0032 223.283 42.2038C222.935 42.4044 222.908 42.7054 223.203 43.1066C223.31 43.2939 223.485 43.4678 223.726 43.6283C223.968 43.7888 224.29 43.869 224.692 43.869C224.987 43.976 225.255 44.0362 225.497 44.0496C225.738 44.0629 225.94 44.0696 226.101 44.0696L226.276 44.069C226.447 44.0679 226.679 44.0654 226.971 44.0615L226.98 44.0616L226.664 45.0377L226.201 46.4771C225.893 47.4402 225.631 48.2895 225.416 49.0251C225.202 49.7607 225.068 50.2355 225.014 50.4495C225.014 50.6368 224.974 50.8842 224.893 51.1919C224.813 51.4995 224.705 51.8138 224.571 52.1348C224.357 53.1246 224.33 54.0073 224.491 54.7831C224.652 55.5588 224.927 56.1473 225.316 56.5486ZM43.0094 52.3878C42.9304 52.7959 42.6871 53 42.2794 53C41.8716 53 41.5626 52.8776 41.3521 52.6327C40.7734 52.3334 40.3788 51.9456 40.1684 51.4694C39.9579 50.9933 39.9448 50.4559 40.1289 49.8573C40.2078 49.5035 40.3459 48.9797 40.5432 48.2859C40.7405 47.592 40.9641 46.8234 41.214 45.9799C41.4639 45.1364 41.727 44.3133 42.0032 43.5106C42.2794 42.7079 42.549 42.048 42.8121 41.5311C43.1014 41.0141 43.2856 40.5447 43.3645 40.123C43.4434 39.7012 43.5486 39.3135 43.6802 38.9597C43.6539 38.6604 43.6539 38.4632 43.6802 38.3679C43.7065 38.2727 43.8117 38.1026 43.9958 37.8577C44.1274 37.7489 44.2918 37.5516 44.4891 37.2659C44.6863 36.9802 44.9165 36.5381 45.1796 35.9394C45.2585 35.6673 45.3834 35.2932 45.5544 34.817C45.7254 34.3409 45.8898 33.8511 46.0477 33.3477C46.2055 32.8443 46.3502 32.4158 46.4817 32.062C46.6132 31.7083 46.679 31.5178 46.679 31.4906C46.7316 31.3818 46.8105 31.1709 46.9158 30.858C47.021 30.5451 47.0999 30.2934 47.1525 30.1029C47.2577 29.722 47.3432 29.4091 47.409 29.1642C47.4747 28.9193 47.455 28.7969 47.3498 28.7969C47.1393 28.8513 46.7185 28.8921 46.0871 28.9193C45.7715 28.9737 45.5413 29.0077 45.3966 29.0213C45.2519 29.035 45.127 29.0554 45.0217 29.0826C44.7587 29.1098 44.5219 29.0826 44.3115 29.0009C44.101 28.9193 43.9958 28.7561 43.9958 28.5112C44.0484 28.0758 44.1997 27.6268 44.4496 27.1643C44.6995 26.7017 45.0217 26.4568 45.4163 26.4296C45.6005 26.3752 45.8043 26.3276 46.0279 26.2868C46.2515 26.2459 46.5606 26.1711 46.9552 26.0623C47.455 25.9534 47.8956 25.9194 48.2771 25.9602C48.6585 26.0011 48.9281 26.0487 49.086 26.1031C49.2175 26.0215 49.3293 25.933 49.4214 25.8378C49.5134 25.7426 49.5726 25.6405 49.5989 25.5317C49.7305 25.0419 49.9672 24.6678 50.3092 24.4093C50.6512 24.1508 51.0129 24.0147 51.3943 24.0011C51.7757 23.9875 52.0848 24.0964 52.3216 24.3277C52.5583 24.5589 52.6241 24.9331 52.5189 25.4501C52.5452 25.5317 52.578 25.5997 52.6175 25.6541C52.657 25.7085 52.8542 25.7017 53.2094 25.6337C53.5645 25.5657 54.1893 25.4365 55.0836 25.246C55.5571 25.1916 56.1556 25.1371 56.879 25.0827C57.6024 25.0283 58.1746 25.0691 58.5955 25.2052C59.0426 25.1235 59.4438 25.0895 59.7989 25.1031C60.1541 25.1167 60.3974 25.0691 60.5289 24.9603C61.0813 25.0691 61.4825 25.1439 61.7324 25.1848C61.9823 25.2256 62.1862 25.314 62.344 25.4501C62.4492 25.5589 62.4887 25.6609 62.4624 25.7562L62.4451 25.8187L62.4229 25.899L62.3933 25.8837L62.3835 25.8786C62.4624 25.9194 62.5676 25.9943 62.6991 26.1031C62.8833 26.1847 62.9819 26.3548 62.9951 26.6133C63.0082 26.8718 62.9951 27.1303 62.9556 27.3888C62.9161 27.6472 62.8833 27.8173 62.857 27.8989C62.8307 28.1438 62.6991 28.2867 62.4624 28.3275C62.2256 28.3683 61.6338 28.3751 60.6867 28.3479C59.5556 28.1846 58.51 28.1234 57.5498 28.1642C56.5896 28.2051 55.3862 28.3343 53.9394 28.552C53.3606 28.5792 52.8674 28.654 52.4597 28.7765L51.8481 28.9601C51.7428 28.9601 51.5587 29.1438 51.2956 29.5111C51.0326 29.8785 50.7827 30.4158 50.5459 31.1233C50.4407 31.3138 50.2631 31.7083 50.0132 32.3069C49.7633 32.9055 49.5069 33.5518 49.2438 34.2456C48.9807 34.9395 48.744 35.5517 48.5335 36.0823C48.3231 36.6129 48.1916 36.9054 48.139 36.9598C48.5072 37.0687 49.0794 37.1231 49.8554 37.1231C50.6314 37.1231 51.4929 37.0891 52.4399 37.021C53.3869 36.953 54.2813 36.8782 55.1231 36.7966C55.5177 36.7149 55.9254 36.6469 56.3463 36.5925C56.7672 36.5381 57.0566 36.5245 57.2144 36.5517C57.5301 36.5789 57.7668 36.7897 57.9247 37.1843C58.0825 37.5788 58.1351 37.987 58.0825 38.4087C58.0299 38.8305 57.8326 39.1366 57.4906 39.3271C57.3328 39.4359 57.0105 39.5652 56.5239 39.7148C56.0372 39.8645 55.2152 40.0073 54.0577 40.1434C53.7158 40.1706 53.2291 40.1978 52.5978 40.225C51.9664 40.2522 51.2891 40.2794 50.5657 40.3066C49.8423 40.3338 49.1846 40.3406 48.5927 40.327C48.0009 40.3134 47.5865 40.2794 47.3498 40.225L47.1722 40.4291C47.0539 40.5651 46.9947 40.742 46.9947 40.9597C46.8105 41.2862 46.5869 41.7691 46.3239 42.4086C46.0608 43.048 45.778 43.7487 45.4755 44.5105C45.173 45.2724 44.8902 46.0275 44.6272 46.7758C44.3641 47.524 44.1471 48.1771 43.9761 48.7349C43.8051 49.2927 43.7196 49.6804 43.7196 49.8981C43.4829 50.5511 43.3382 51.1089 43.2856 51.5715C43.233 52.034 43.1409 52.3061 43.0094 52.3878ZM61.1309 51.8957C61.1309 52.0278 61.064 52.0344 60.9301 51.9155C60.7963 51.7967 60.5822 51.6316 60.2878 51.4202C60.0469 51.1825 59.7659 50.8787 59.4447 50.5089C59.1235 50.139 58.9763 49.7032 59.0031 49.2013C59.1369 48.5937 59.3778 47.7021 59.7257 46.5266C60.0737 45.3511 60.4885 44.1161 60.9703 42.8217C61.0238 42.3198 61.1108 41.8971 61.2313 41.5537L61.4119 41.0386C61.4387 40.9857 61.4922 40.8999 61.5725 40.781C61.6528 40.6621 61.7732 40.5763 61.9338 40.5235C62.0676 40.4178 62.1212 40.2131 62.0944 39.9093C62.0676 39.6055 62.0409 39.414 62.0141 39.3347C62.1212 38.7007 62.3621 37.8356 62.7368 36.7393C63.1115 35.643 63.5531 34.4807 64.0616 33.2523C64.5701 32.024 65.0519 30.8815 65.5069 29.8248C65.6407 29.5871 65.7612 29.3559 65.8682 29.1314L66.0288 28.7946C65.9485 28.6889 65.8549 28.5832 65.7478 28.4776C65.6407 28.3719 65.5203 28.2266 65.3865 28.0417C65.1724 27.7511 65.0185 27.4275 64.9248 27.0709C64.8311 26.7143 64.9181 26.3907 65.1857 26.1001C65.266 25.968 65.4199 25.7963 65.6474 25.585C65.8749 25.3737 66.1225 25.1755 66.3901 24.9906C67.0057 24.6472 67.6146 24.3764 68.2168 24.1783C68.819 23.9802 69.361 23.9472 69.8428 24.0792C70.6993 24.1057 71.3483 24.1717 71.7899 24.2774C72.2315 24.383 72.5862 24.5283 72.8538 24.7132C73.0144 24.8189 73.1549 24.8982 73.2754 24.951C73.3958 25.0038 73.5631 25.0302 73.7772 25.0302C74.2322 25.0831 74.7675 25.2482 75.3831 25.5255C75.9987 25.8029 76.5474 26.0869 77.0291 26.3775C77.5109 26.6681 77.7919 26.8662 77.8722 26.9718C78.4075 27.4209 78.8759 28.0285 79.2774 28.7946C79.6788 29.5607 79.9197 30.4456 80 31.4494C80 32.057 79.9732 32.5919 79.9197 33.0542C79.8662 33.5165 79.7457 33.9656 79.5584 34.4015C79.371 34.8373 79.0632 35.3458 78.635 35.927C77.8321 37.1686 76.8351 38.3969 75.644 39.6121C74.453 40.8273 72.9475 41.9367 71.1275 42.9406C71.074 43.0462 71.0138 43.1585 70.9468 43.2774L70.8625 43.4272L70.8465 43.4557C70.8465 43.667 70.987 43.9444 71.268 44.2878C71.549 44.6312 71.9037 44.9944 72.3319 45.3775C72.7601 45.7605 73.2085 46.1369 73.6768 46.5068C74.1452 46.8766 74.5735 47.2002 74.9615 47.4776C75.3496 47.755 75.6374 47.9465 75.8247 48.0521C76.1726 47.9465 76.4537 47.9002 76.6678 47.9135C76.8819 47.9267 77.0425 48.0257 77.1496 48.2106C77.2566 48.3956 77.3235 48.7125 77.3503 49.1616C77.3235 49.505 77.2299 49.8352 77.0693 50.1522C76.9087 50.4692 76.7882 50.6542 76.7079 50.707C76.4938 50.8655 76.2998 51.0504 76.1258 51.2617C75.9518 51.4731 75.7444 51.6051 75.5035 51.658C75.2626 51.7108 74.9281 51.5919 74.4999 51.3014C73.2954 50.9315 72.2182 50.2315 71.268 49.2013C70.3179 48.171 69.2807 47.0615 68.1566 45.8728C67.9157 45.5822 67.715 45.3775 67.5544 45.2586C67.3938 45.1397 67.2199 45.0803 67.0325 45.0803C66.8451 45.0803 66.5641 45.1199 66.1894 45.1992C65.9753 45.2256 65.7679 45.1727 65.5671 45.0407C65.3664 44.9086 65.159 44.7369 64.9449 44.5255C64.8646 44.3935 64.7642 44.3142 64.6437 44.2878C64.5233 44.2614 64.4229 44.3274 64.3426 44.4859C64.2891 44.6444 64.1887 44.9152 64.0415 45.2982C63.8943 45.6813 63.7471 46.0577 63.5999 46.4275C63.4527 46.7974 63.3122 47.0879 63.1784 47.2993C63.2319 47.537 63.165 48.0455 62.9776 48.8248C62.7903 49.6041 62.5494 50.4164 62.255 51.2617C62.1747 51.4731 62.0543 51.6646 61.8937 51.8363C61.7331 52.008 61.6126 52.041 61.5324 51.9353C61.4253 51.8033 61.3383 51.7372 61.2714 51.7372C61.2045 51.7372 61.1576 51.7901 61.1309 51.8957ZM66.8836 42L65.9828 41.5459C65.9282 41.5184 65.8736 41.5321 65.819 41.5872L65.7575 41.6491L65.7371 41.6697C65.6006 41.6422 65.4436 41.5596 65.2662 41.422C65.0887 41.2844 65 41.1881 65 41.133C65 41.023 65.0955 40.6514 65.2866 40.0184C65.4777 39.3854 65.7234 38.6216 66.0237 37.7271L66.9246 35.0437C67.2249 34.1492 67.4842 33.3717 67.7026 32.7112C67.921 32.0507 68.0438 31.6653 68.0711 31.5552C68.2895 31.4452 68.4738 31.2181 68.6239 30.8741C68.7741 30.53 68.9037 30.1378 69.0129 29.6975C69.1494 29.1746 69.2791 28.7686 69.4019 28.4796C69.5248 28.1906 69.6545 28.0324 69.7909 28.0049C70.0366 27.9773 70.3847 28.0668 70.8351 28.2732C71.2856 28.4796 71.7292 28.5828 72.1659 28.5828C72.5208 28.748 72.8416 28.8925 73.1282 29.0163C73.4149 29.1402 73.6879 29.264 73.9472 29.3879C74.2065 29.5117 74.4591 29.6562 74.7047 29.8213C75.3872 30.2066 75.7899 30.5507 75.9127 30.8534C76.0356 31.1562 76.0287 31.5002 75.8922 31.8855C75.8376 32.0782 75.7762 32.2777 75.708 32.4841C75.6397 32.6905 75.6056 32.9038 75.6056 33.124C75.7421 33.3717 75.7626 33.5781 75.667 33.7433C75.5715 33.9084 75.4009 34.1424 75.1552 34.4451C75.0187 34.5277 74.8549 34.7547 74.6638 35.1263C74.4727 35.4978 74.268 35.7662 74.0496 35.9313C73.6128 36.7295 73.0532 37.4863 72.3707 38.2019C71.6882 38.9175 70.958 39.5299 70.18 40.039C69.4019 40.5482 68.6171 40.9266 67.8254 41.1743L66.8836 42ZM89.8655 51.5052C88.2204 51.8087 86.7478 51.9736 85.4477 52C84.6251 51.9472 83.8026 51.6503 82.98 51.1093C82.1575 50.5683 81.4013 50.0603 80.7114 49.5853C80.2603 49.1366 79.9154 48.655 79.6766 48.1404C79.4378 47.6257 79.2388 46.9462 79.0796 46.1017C78.9735 45.6003 78.9735 44.9405 79.0796 44.1224C79.1857 43.3043 79.3582 42.4796 79.597 41.6483C79.8358 40.8169 80.0613 40.1638 80.2736 39.6887C80.592 38.9498 80.9967 38.1515 81.4875 37.2938C81.9784 36.4361 82.4693 35.618 82.9601 34.8394C83.451 34.0609 83.8424 33.4341 84.1342 32.9591C84.32 32.7744 84.4062 32.6754 84.3929 32.6622L84.373 32.6424C84.373 32.5105 84.5123 32.174 84.7909 31.633C85.0695 31.092 85.315 30.6103 85.5273 30.1881C85.9253 29.7658 86.1508 29.4228 86.2039 29.1589C86.2569 28.8949 86.2171 28.6838 86.0845 28.5255C86.0314 28.4199 86.1442 28.1956 86.4228 27.8525C86.7014 27.5094 87.0927 27.1202 87.5969 26.6847C88.101 26.2493 88.6582 25.86 89.2685 25.5169C89.9053 25.0155 90.5222 24.745 91.1192 24.7054C91.7162 24.6658 92.0678 24.7912 92.1739 25.0815C92.1739 25.1607 92.3265 25.1805 92.6316 25.1409C92.9367 25.1013 93.295 25.0353 93.7062 24.9429C94.1175 24.8506 94.4823 24.778 94.8007 24.7252C94.9334 24.5669 95.2452 24.4415 95.736 24.3491C96.2269 24.2568 96.804 24.171 97.4674 24.0918C97.8123 24.1182 98.197 24.1248 98.6216 24.1116C99.0461 24.0984 99.4242 24.0786 99.7559 24.0523L100.253 24.0127C100.439 23.9599 100.711 24.072 101.069 24.3491C101.427 24.6263 101.713 25.0023 101.925 25.4774C102.111 25.9524 101.952 26.3614 101.447 26.7045C100.943 27.0476 100.147 27.2851 99.0594 27.4171C98.2634 27.5226 97.6465 27.6084 97.2087 27.6744C96.7708 27.7404 96.3065 27.8195 95.8156 27.9119C95.3248 28.0043 94.615 28.156 93.6863 28.3671C93.023 28.4991 92.4658 28.6046 92.0147 28.6838C91.5636 28.763 91.1723 28.9213 90.8406 29.1589C90.5089 29.3964 90.1441 29.8186 89.7461 30.4256C89.5604 30.5576 89.3216 30.9006 89.0297 31.4548L88.1541 33.1175C87.4111 34.1467 86.8606 34.9054 86.5024 35.3937C86.1442 35.8819 86.0181 36.192 86.1243 36.3239L86.6815 36.4427C87.0529 36.5219 87.2917 36.5614 87.3979 36.5614C87.6632 36.4295 87.9882 36.3371 88.373 36.2843C88.7577 36.2316 89.0695 36.1788 89.3083 36.126C90.9534 35.7037 92.1673 35.3937 92.95 35.1957C93.7328 34.9978 94.29 34.8592 94.6216 34.7801C94.9533 34.7009 95.2518 34.6481 95.5171 34.6217C95.8886 34.3314 96.2667 34.3512 96.6514 34.6811C97.0362 35.011 97.3082 35.4003 97.4674 35.8489C97.6531 36.3767 97.6531 36.7858 97.4674 37.0761C97.2816 37.3664 96.877 37.6039 96.2534 37.7886C95.6299 37.9733 94.7477 38.1911 93.6067 38.4418C92.4658 38.6925 91.033 39.0554 89.3083 39.5304C87.8489 39.9526 86.6682 40.2034 85.7661 40.2825C84.8639 40.3617 84.4394 40.1374 84.4924 39.6096C84.3067 39.504 84.1011 39.603 83.8755 39.9065C83.65 40.21 83.4444 40.6256 83.2586 41.1534C83.0729 41.6812 82.9071 42.2486 82.7611 42.8556C82.6152 43.4626 82.529 44.03 82.5024 44.5578C82.4759 45.0856 82.5157 45.4947 82.6218 45.785C82.8341 46.392 83.1724 46.9132 83.6367 47.3486C84.1011 47.7841 84.7843 48.1338 85.6865 48.3977C86.2171 48.4241 86.7345 48.4636 87.2387 48.5164C87.7428 48.5692 88.3133 48.4636 88.9501 48.1997C90.5156 47.9358 91.6034 47.6587 92.2137 47.3684C92.824 47.0781 93.1955 46.8802 93.3281 46.7746C93.5404 46.6691 93.6797 46.5635 93.746 46.458C93.8124 46.3524 93.9119 46.2996 94.0445 46.2996C93.9649 46.4316 93.9915 46.4316 94.1241 46.2996C94.2568 46.1677 94.4691 45.9829 94.7609 45.7454C95.3181 45.2704 95.8753 44.9801 96.4325 44.8745C96.9897 44.7689 97.4541 44.7624 97.8256 44.8547C98.197 44.9471 98.396 45.0592 98.4226 45.1912C98.5818 45.4551 98.5022 45.8708 98.1838 46.4382C97.8654 47.0056 97.3811 47.6059 96.731 48.2393C96.081 48.8727 95.3181 49.4401 94.4425 49.9415C93.0363 50.6805 91.5106 51.2017 89.8655 51.5052ZM110.069 53C110.68 53 111.171 52.9671 111.543 52.9014C111.914 52.8357 112.306 52.7239 112.718 52.5662C113.129 52.4085 113.667 52.185 114.331 51.8958C115.659 51.37 116.768 50.8967 117.657 50.4761C118.547 50.0554 118.992 49.7136 118.992 49.4507C118.992 49.0563 118.872 48.6751 118.633 48.307C118.394 47.939 118.148 47.6366 117.896 47.4C117.644 47.1634 117.491 47.0451 117.438 47.0451C117.119 47.0451 116.854 47.1897 116.641 47.4789C116.535 47.4789 116.343 47.538 116.064 47.6563C115.785 47.7746 115.579 47.8338 115.446 47.8338C115.261 47.939 114.929 48.1164 114.451 48.3662C113.973 48.616 113.495 48.8854 113.017 49.1746C111.875 49.4639 110.958 49.6216 110.268 49.6479C109.578 49.6742 108.967 49.6347 108.436 49.5296C107.586 49.1352 107.048 48.6554 106.822 48.0901C106.597 47.5249 106.577 46.8873 106.763 46.1775C106.922 45.3624 107.042 44.7643 107.121 44.3831C107.201 44.0019 107.314 43.6469 107.46 43.3183L108.117 41.8394C108.383 40.6826 108.615 39.9136 108.814 39.5324C109.013 39.1512 109.193 39.1446 109.352 39.5127C109.458 39.539 109.823 39.4995 110.447 39.3944C111.071 39.2892 111.815 39.1512 112.678 38.9803C113.541 38.8094 114.404 38.6188 115.267 38.4085C116.13 38.1981 116.88 37.9878 117.518 37.7775C118.155 37.5671 118.553 37.3831 118.713 37.2254C118.899 37.1465 119.031 36.9756 119.111 36.7127C119.191 36.4498 119.197 36.1869 119.131 35.9239C119.065 35.661 118.872 35.5033 118.553 35.4507C118.421 35.3718 118.208 35.293 117.916 35.2141C117.624 35.1352 117.252 35.1615 116.801 35.293C116.402 35.293 115.831 35.3258 115.088 35.3915C114.344 35.4573 113.594 35.5296 112.837 35.6085C112.08 35.6873 111.49 35.7662 111.065 35.8451C110.826 35.7399 110.746 35.4967 110.826 35.1155C110.905 34.7343 111.078 34.3728 111.344 34.031C111.636 33.6103 111.888 33.2423 112.1 32.9268C112.313 32.6113 112.419 32.3221 112.419 32.0592C112.419 31.9803 112.519 31.77 112.718 31.4282C112.917 31.0864 113.143 30.7117 113.395 30.3042C113.647 29.8967 113.88 29.5418 114.092 29.2394C114.305 28.9371 114.437 28.7859 114.49 28.7859L115.247 28.7465C115.752 28.7202 116.19 28.6545 116.562 28.5493C116.854 28.5493 117.358 28.4704 118.075 28.3127C118.792 28.1549 119.642 28.0761 120.625 28.0761C121.501 28.0761 122.338 28.0498 123.134 27.9972C123.931 27.9446 124.369 27.8789 124.449 27.8C124.874 27.5897 125.053 27.3531 124.987 27.0901C124.92 26.8272 124.767 26.5775 124.528 26.3408L124.391 26.2052L124.057 25.8739L123.971 25.7887L122.935 25.3155C122.59 25.1577 122.125 25.0789 121.541 25.0789C120.93 25.0263 120.266 25 119.549 25C118.832 25 118.202 25.0263 117.657 25.0789C117.113 25.1315 116.761 25.2103 116.602 25.3155C116.044 25.3418 115.433 25.4207 114.769 25.5521C114.105 25.6836 113.481 25.8413 112.897 26.0254C112.313 26.2094 111.841 26.3803 111.483 26.538C111.124 26.6958 110.972 26.8404 111.025 26.9718C110.839 27.1822 110.686 27.4911 110.567 27.8986C110.447 28.3061 110.321 28.6545 110.188 28.9437C110.082 29.4432 109.777 30.1465 109.272 31.0535C108.768 31.9606 108.117 33.1108 107.32 34.5042C107.214 34.846 107.075 35.1221 106.902 35.3324C106.729 35.5427 106.617 35.7005 106.564 35.8056C106.564 36.016 106.364 36.4498 105.966 37.107C105.86 37.37 105.793 37.6 105.767 37.7972L105.727 38.093C105.7 38.1455 105.634 38.323 105.528 38.6254C105.422 38.9277 105.329 39.1052 105.249 39.1577C105.09 39.3155 104.983 39.5061 104.93 39.7296C104.877 39.9531 104.784 40.3014 104.652 40.7746C104.598 41.1164 104.545 41.4122 104.492 41.662C104.439 41.9117 104.399 42.1023 104.373 42.2338C104.24 42.2338 104.087 42.4836 103.915 42.9831C103.742 43.4826 103.589 44.061 103.457 44.7183C102.952 46.585 102.866 48.0901 103.198 49.2338C103.53 50.3775 104.107 51.2516 104.93 51.8563C105.621 52.3822 106.384 52.7042 107.221 52.8225C108.057 52.9408 109.007 53 110.069 53ZM140.202 53.7731C138.676 54.0168 137.565 54.0642 136.869 53.9152C136.173 53.7663 135.571 53.4345 135.062 52.9199C134.821 52.7032 134.701 52.4121 134.701 52.0464C134.701 51.6808 134.754 51.4574 134.861 51.3761C135.076 51.2407 135.383 51.0782 135.785 50.8886C136.186 50.699 136.949 50.5636 138.074 50.4823C139.412 50.5365 140.69 50.3876 141.908 50.0355C143.126 49.6834 144.204 49.2162 145.141 48.6339C146.077 48.0516 146.76 47.4219 147.188 46.7448C147.751 45.7697 148.012 44.9504 147.971 44.2869C147.931 43.6233 147.617 42.9936 147.028 42.3978C146.68 42.0998 146.399 41.9441 146.185 41.9306C145.97 41.917 145.609 41.8696 145.1 41.7884C144.592 41.7884 144.19 41.8426 143.896 41.9509C143.601 42.0592 143.267 42.2217 142.892 42.4384C142.544 42.628 142.203 42.8108 141.868 42.9869C141.534 43.1629 141.206 43.278 140.884 43.3322C140.697 43.5759 140.396 43.7723 139.981 43.9212C139.566 44.0702 139.171 44.1447 138.796 44.1447C138.422 44.1447 138.167 44.077 138.034 43.9416C137.819 43.9416 137.645 44.077 137.512 44.3478C137.378 44.6187 137.123 45.1603 136.749 45.9729C136.615 46.4604 136.427 46.975 136.186 47.5167C135.946 48.0583 135.798 48.4917 135.745 48.8167C135.316 49.873 134.975 50.5636 134.721 50.8886C134.467 51.2136 134.206 51.3761 133.938 51.3761C133.777 51.3761 133.63 51.2949 133.496 51.1324C133.362 50.9699 133.148 50.7396 132.854 50.4417C132.64 50.4417 132.412 50.2454 132.171 49.8526C131.93 49.4599 131.944 48.925 132.211 48.2479C132.425 47.7062 132.693 46.9885 133.014 46.0947C133.336 45.201 133.664 44.2869 133.998 43.3525C134.333 42.4181 134.627 41.6191 134.882 40.9556C135.136 40.292 135.29 39.9467 135.343 39.9196C135.397 39.5404 135.49 39.2696 135.624 39.1071C135.758 38.9446 135.825 38.8362 135.825 38.7821L136.227 37.7664C136.441 37.2247 136.675 36.6695 136.929 36.1007C137.184 35.532 137.418 35.1393 137.632 34.9226C137.632 34.7872 137.752 34.5096 137.993 34.0898C138.234 33.67 138.489 33.2434 138.756 32.81C138.944 32.4038 139.138 31.9163 139.338 31.3475C139.539 30.7787 139.693 30.3996 139.8 30.21C140.121 29.8037 140.242 29.5396 140.162 29.4178C140.081 29.2959 139.907 29.086 139.64 28.7881C139.586 28.7339 139.533 28.524 139.479 28.1584C139.425 27.7927 139.399 27.5557 139.399 27.4474C139.399 27.3932 139.533 27.2849 139.8 27.1224C140.068 26.9599 140.396 26.7771 140.784 26.5739C141.172 26.3708 141.54 26.1812 141.888 26.0052C142.236 25.8291 142.49 25.714 142.651 25.6599C142.785 25.6057 143.059 25.4906 143.474 25.3145C143.889 25.1385 144.311 24.9692 144.739 24.8067C145.167 24.6442 145.462 24.5359 145.622 24.4817C146.024 24.3463 146.459 24.2515 146.927 24.1973C147.396 24.1432 147.777 24.1296 148.072 24.1567C148.768 23.9129 149.437 23.9536 150.079 24.2786C150.32 24.3598 150.648 24.5426 151.063 24.827C151.478 25.1114 151.866 25.4296 152.228 25.7817C152.589 26.1338 152.796 26.4724 152.85 26.7974C152.903 27.1495 152.95 27.5083 152.99 27.874C153.031 28.2396 152.944 28.6391 152.729 29.0724C152.703 29.4516 152.589 29.973 152.388 30.6365C152.187 31.3001 151.98 31.9163 151.766 32.485C151.552 33.0538 151.364 33.4194 151.204 33.5819C150.775 34.2049 150.374 34.8752 149.999 35.5929C149.624 36.3106 149.129 37.0081 148.513 37.6852L148.232 37.9899C148.045 38.193 147.657 38.6466 147.068 39.3508L147.771 39.3915C148.239 39.4185 148.58 39.4998 148.795 39.6352C149.41 40.0415 149.966 40.5493 150.461 41.1587C150.956 41.7681 151.311 42.3978 151.525 43.0478C151.766 43.3728 151.853 43.8197 151.786 44.3884C151.719 44.9572 151.558 45.5531 151.304 46.176C151.05 46.7989 150.749 47.3677 150.401 47.8823C150.24 48.2344 149.932 48.6677 149.477 49.1823C149.022 49.6969 148.594 50.1506 148.192 50.5433C147.791 50.936 147.563 51.1324 147.51 51.1324C147.403 51.0782 147.242 51.085 147.028 51.1527C146.814 51.2204 146.479 51.3626 146.024 51.5793C145.837 51.7959 145.622 51.9991 145.382 52.1886C145.141 52.3782 144.953 52.4459 144.819 52.3918L144.792 52.4032L144.378 52.5746C144.083 52.6965 143.722 52.8793 143.294 53.123C142.999 53.2043 142.551 53.3059 141.948 53.4277C141.346 53.5496 140.764 53.6647 140.202 53.7731ZM139.599 40.8564C139.228 40.9904 139.029 41.0306 139.004 40.977C138.978 40.9234 139.087 40.6218 139.33 40.0723C139.573 39.5227 139.887 38.8458 140.271 38.0416C140.655 37.2374 141.058 36.413 141.481 35.5686C141.903 34.7241 142.281 33.9802 142.614 33.3369C142.946 32.6935 143.164 32.2646 143.266 32.0501C143.625 31.4067 143.855 30.8974 143.958 30.5221C144.06 30.1468 144.009 29.9591 143.804 29.9591C143.497 29.9323 143.433 29.7916 143.612 29.5369C143.791 29.2822 144.086 29.0208 144.495 28.7528C144.828 28.5651 145.155 28.4311 145.475 28.3506C145.795 28.2702 146.115 28.2099 146.435 28.1697C146.755 28.1295 147.081 28.0826 147.414 28.029C147.926 27.9485 148.329 28.0357 148.624 28.2903C148.918 28.545 149.04 29.0074 148.989 29.6776C148.937 29.8921 148.848 30.2272 148.72 30.6829C148.592 31.1386 148.413 31.5273 148.182 31.849C148.003 32.1975 147.849 32.5058 147.721 32.7739L147.545 33.1432L147.529 33.176C147.529 33.2564 147.44 33.4508 147.26 33.7591C147.081 34.0674 146.825 34.3958 146.492 34.7443C146.211 35.0928 146.006 35.4077 145.878 35.6892L145.686 36.1114C145.686 36.1919 145.596 36.3728 145.417 36.6543C145.238 36.9358 145.001 37.2374 144.707 37.5591C144.412 37.8807 144.086 38.1756 143.727 38.4437C143.42 38.7386 143.01 39.0469 142.498 39.3686C141.986 39.6903 141.468 39.9851 140.943 40.2532C140.418 40.5213 139.97 40.7223 139.599 40.8564ZM157.996 50.8005C157.365 50.8803 156.746 50.9468 156.141 51C155.799 51 155.529 50.9335 155.332 50.8005C155.134 50.6676 154.891 50.4814 154.602 50.242C154.102 49.7101 153.7 49.1383 153.398 48.5266C153.095 47.9149 152.983 47.383 153.062 46.9309C153.141 46.7181 153.174 46.512 153.161 46.3125L153.141 46.0133C153.009 45.8803 152.97 45.7939 153.023 45.754C153.075 45.7141 153.128 45.641 153.18 45.5346C153.338 45.5346 153.391 45.3883 153.338 45.0957C153.286 44.883 153.371 44.4242 153.595 43.7194C153.819 43.0146 154.128 42.3431 154.523 41.7048C154.681 41.4388 154.917 41.0864 155.233 40.6476C155.549 40.2088 155.898 39.7699 156.279 39.3311C156.661 38.8923 157.01 38.5399 157.325 38.2739C157.983 37.7154 158.595 37.2633 159.161 36.9176C159.727 36.5718 160.299 36.3324 160.878 36.1995C161.457 36.0665 162.056 36 162.674 36C163.293 36 163.799 36.2128 164.194 36.6383C164.799 36.9043 165.227 37.2633 165.477 37.7154C165.727 38.1676 165.891 38.7527 165.97 39.4707C166.049 40.2686 165.97 41.246 165.734 42.4029C165.497 43.5598 164.852 44.8963 163.799 46.4122C163.141 47.3697 162.497 48.1144 161.865 48.6463C161.233 49.1782 160.536 49.6702 159.773 50.1223C159.22 50.4947 158.628 50.7207 157.996 50.8005ZM158.467 46.932C157.911 47.0803 157.511 46.986 157.269 46.649C157.026 46.312 156.948 45.8066 157.033 45.1327C157.319 43.8657 157.825 42.7942 158.553 41.9181C159.281 41.042 160.072 40.267 160.928 39.5931C161.328 39.3235 161.656 39.1415 161.913 39.0472C162.17 38.9528 162.426 39 162.683 39.1887C162.854 39.2426 162.954 39.4515 162.983 39.8154C163.011 40.1794 163.004 40.55 162.961 40.9274C162.919 41.3048 162.84 41.5744 162.726 41.7361C162.412 42.5718 162.12 43.2996 161.849 43.9196C161.578 44.5396 161.128 45.1057 160.5 45.6179C159.701 46.3457 159.024 46.7838 158.467 46.932ZM182.413 49.3727C182.048 49.71 181.69 49.9191 181.339 50C180.745 49.946 180.252 49.8179 179.861 49.6155C179.469 49.4132 179.152 49.0018 178.909 48.3812C178.801 47.9496 178.754 47.4976 178.767 47.0255C178.781 46.5534 178.814 46.0947 178.868 45.6495C178.922 45.2044 178.949 44.8199 178.949 44.4962V43.7273C178.895 43.3226 178.794 43.073 178.646 42.9786C178.497 42.8841 178.247 42.9044 177.896 43.0393C177.329 43.3091 176.715 43.6666 176.053 44.1117C175.392 44.5569 174.703 45.0695 173.987 45.6495C173.272 46.2296 172.536 46.8434 171.78 47.4909C171.186 48.1384 170.747 48.6645 170.463 49.0692C170.18 49.4739 169.889 49.6762 169.592 49.6762C169.376 49.7842 169.147 49.7572 168.904 49.5953C168.661 49.4334 168.404 49.2446 168.134 49.0287C167.945 48.8129 167.722 48.5364 167.466 48.1991C167.209 47.8619 167.054 47.6393 167 47.5314C167 47.0997 167.034 46.7085 167.101 46.3578C167.169 46.007 167.277 45.6428 167.425 45.2651C167.574 44.8874 167.756 44.4557 167.972 43.9701C168.08 43.7812 168.181 43.5856 168.276 43.3833C168.37 43.1809 168.485 42.9583 168.62 42.7155C168.728 42.3378 168.884 41.9061 169.086 41.4205C169.289 40.9349 169.484 40.4762 169.673 40.0445C169.97 39.3431 170.2 38.736 170.362 38.2234C170.524 37.7108 170.659 37.1577 170.767 36.5642C170.74 36.5102 170.754 36.4293 170.808 36.3214C170.862 36.2135 170.943 36.146 171.051 36.119H171.132C171.321 35.9841 171.678 35.9639 172.205 36.0583C172.732 36.1528 173.13 36.3079 173.4 36.5237C173.967 37.0094 174.237 37.6434 174.21 38.4258C174.183 39.2082 173.778 40.2334 172.995 41.5014C172.806 41.9331 172.61 42.3311 172.408 42.6953C172.205 43.0595 172.104 43.3091 172.104 43.444L172.428 43.2012C172.644 43.0393 172.9 42.8437 173.197 42.6144C173.495 42.385 173.751 42.2029 173.967 42.068C174.042 41.9931 174.167 41.8827 174.342 41.737L174.576 41.5452C174.662 41.4755 174.756 41.4003 174.858 41.3193C175.317 40.9551 175.817 40.5707 176.357 40.166C176.897 39.7613 177.329 39.451 177.653 39.2352C177.95 39.0193 178.328 38.7967 178.787 38.5674C179.246 38.3381 179.53 38.2234 179.638 38.2234C179.908 38.2234 180.239 38.3179 180.63 38.5067C181.022 38.6956 181.387 38.9182 181.724 39.1745C182.062 39.4308 182.257 39.6668 182.311 39.8827C182.311 39.9906 182.298 40.1322 182.271 40.3076C182.244 40.483 182.23 40.6381 182.23 40.773C182.203 41.2047 182.197 41.724 182.21 42.3311C182.224 42.9381 182.23 43.5451 182.23 44.1522C182.23 44.7592 182.176 45.3056 182.068 45.7912L182.109 45.8519C182.136 45.8924 182.163 45.9531 182.19 46.034C182.163 46.061 182.156 46.1082 182.17 46.1757L182.19 46.2768C182.244 46.4657 182.305 46.6545 182.372 46.8434C182.44 47.0323 182.527 47.2413 182.635 47.4707C182.743 47.7 182.865 47.99 183 48.3408C182.973 48.6915 182.777 49.0355 182.413 49.3727ZM195.045 50.8258C195.355 51.0083 195.605 51.0474 195.793 50.9431C195.874 50.9431 196.097 50.8584 196.461 50.6889C196.825 50.5194 197.135 50.3173 197.391 50.0826C197.647 49.8479 197.654 49.6524 197.411 49.4959C197.25 49.3655 197.108 49.2025 196.987 49.007C196.865 48.8114 196.764 48.6354 196.683 48.4789C196.575 48.2703 196.501 47.9248 196.461 47.4424C196.42 46.96 196.427 46.5363 196.481 46.1712C196.697 45.05 197.041 43.9483 197.512 42.8661C197.984 41.784 198.476 40.6823 198.989 39.561C199.097 39.3263 199.265 38.9548 199.494 38.4463C199.724 37.9378 199.892 37.5532 200 37.2924C200 37.162 199.885 37.0056 199.656 36.8231C199.427 36.6405 199.205 36.4971 198.989 36.3928C198.773 36.1842 198.584 36.0669 198.423 36.0408H197.492C197.223 36.119 196.993 36.3276 196.805 36.6666L195.955 38.192C195.847 38.4528 195.598 38.8961 195.207 39.5219C194.816 40.1477 194.445 40.7214 194.095 41.2429C193.636 41.973 193.191 42.6184 192.76 43.179C192.329 43.7397 191.83 44.2938 191.263 44.8414C190.778 45.2847 190.374 45.6041 190.05 45.7997C189.726 45.9952 189.376 46.093 188.998 46.093C188.891 46.093 188.891 45.8974 188.998 45.5063C189.106 45.1152 189.288 44.6132 189.544 44.0004C189.801 43.3876 190.097 42.7423 190.434 42.0643C190.771 41.3863 191.108 40.754 191.445 40.1673C191.782 39.5806 192.072 39.1308 192.315 38.8179C192.531 38.6353 192.645 38.4789 192.659 38.3485C192.672 38.2181 192.625 38.0617 192.517 37.8791C192.329 37.4358 192.066 37.0251 191.729 36.647C191.391 36.2689 190.994 36.0538 190.535 36.0017C190.212 35.9756 189.828 36.2559 189.383 36.8426C188.938 37.4293 188.493 38.1986 188.048 39.1503C187.603 40.1021 187.205 41.119 186.855 42.2012C186.504 43.2833 186.255 44.3198 186.106 45.3107C185.958 46.3016 185.965 47.11 186.127 47.7358C186.261 48.0487 186.477 48.3812 186.774 48.7332C187.07 49.0852 187.38 49.3786 187.704 49.6132C188.028 49.8479 188.284 49.9653 188.473 49.9653C188.85 49.9913 189.342 49.7762 189.949 49.3199C190.556 48.8636 191.196 48.3095 191.87 47.6576C192.544 47.0317 192.996 46.6341 193.225 46.4646C193.454 46.2951 193.576 46.3081 193.589 46.5037C193.603 46.6993 193.596 47.0578 193.569 47.5793C193.569 48.2312 193.616 48.7201 193.71 49.0461C193.805 49.372 193.946 49.6915 194.135 50.0044C194.432 50.3694 194.735 50.6432 195.045 50.8258ZM208.047 49.5059C207.414 50.502 206.244 51 204.537 51C203.71 51 202.954 50.8048 202.269 50.4145C201.584 50.0241 201.034 49.5396 200.62 48.9608C200.207 48.382 200 47.8234 200 47.285C200 47.0428 200.045 46.8678 200.136 46.7601C200.226 46.6524 200.362 46.5986 200.543 46.5986C200.672 46.6255 200.827 46.6928 201.008 46.8005C201.189 46.9082 201.37 47.0293 201.551 47.1639C201.965 47.46 202.417 47.6485 202.909 47.7292C203.4 47.81 203.839 47.7763 204.227 47.6283C204.615 47.4802 204.835 47.2447 204.886 46.9216C204.886 46.8139 204.835 46.5851 204.731 46.2352C204.628 45.8852 204.499 45.5487 204.343 45.2257C203.697 44.2296 203.296 43.2807 203.141 42.3789C202.986 41.477 202.883 40.5685 202.831 39.6532C202.831 39.2763 202.999 38.8523 203.335 38.3812C203.671 37.9101 204.085 37.4458 204.576 36.9881C205.119 36.5036 205.72 36.0459 206.38 35.6152C207.039 35.1845 207.692 34.8211 208.338 34.5249C208.984 34.2288 209.527 34.0538 209.967 34C210.432 34 210.93 34.0202 211.46 34.0606C211.99 34.101 212.345 34.2019 212.526 34.3634C212.888 34.6595 213.224 35.1441 213.535 35.8171C213.845 36.4901 214 37.0554 214 37.5131C214 37.7284 213.89 37.9909 213.67 38.3005C213.451 38.6101 213.25 38.9533 213.069 39.3302C212.966 39.5186 212.875 39.7205 212.798 39.9359C212.72 40.1512 212.63 40.3666 212.526 40.5819C212.371 40.9588 212.093 41.1136 211.693 41.0463C211.292 40.979 210.923 40.7637 210.587 40.4002C210.251 40.0368 210.083 39.6128 210.083 39.1283C210.083 38.7245 210.199 38.3745 210.432 38.0784C210.665 37.7823 210.781 37.5804 210.781 37.4727C210.781 37.4188 210.755 37.3785 210.704 37.3515C210.652 37.3246 210.561 37.3112 210.432 37.3112C210.251 37.3112 209.96 37.3852 209.56 37.5333C209.159 37.6813 208.739 37.8899 208.299 38.1591C207.86 38.4283 207.459 38.7514 207.097 39.1283C206.838 39.4244 206.625 39.7407 206.457 40.0772C206.289 40.4137 206.205 40.7704 206.205 41.1473C206.205 41.5241 206.276 41.9616 206.418 42.4596C206.56 42.9576 206.722 43.3682 206.903 43.6912C206.955 43.7451 207.039 43.8864 207.155 44.1152C207.271 44.344 207.407 44.62 207.562 44.943C208.519 46.9889 208.681 48.5099 208.047 49.5059ZM232.009 40.9773L232 41L232.394 40.9892C233.138 40.9702 233.905 40.9534 234.694 40.9388L235.478 40.9249C236.256 40.9118 237.015 40.9008 237.756 40.8921L238.131 40.8877L238.145 40.8475C238.362 40.2508 238.497 39.916 238.548 39.8429C238.65 39.8429 238.74 39.7577 238.816 39.5872C238.893 39.4167 238.931 39.2463 238.931 39.0758C238.931 38.881 238.976 38.6618 239.065 38.4183C239.155 38.1747 239.251 38.0043 239.353 37.9068C239.353 37.7851 239.385 37.6451 239.449 37.4868C239.513 37.3285 239.545 37.2006 239.545 37.1032C239.545 37.0058 239.577 36.9084 239.641 36.811C239.704 36.7135 239.736 36.6161 239.736 36.5187L239.785 36.4312C239.836 36.3366 239.894 36.2206 239.96 36.0833L240 36L239.614 36.0037C238.914 36.011 238.187 36.0183 237.436 36.0256L236.505 36.0347C235.89 36.0408 235.286 36.0469 234.693 36.053L233.969 36.0603L233.96 36.0804C233.908 36.1859 233.853 36.3016 233.793 36.4274C233.615 36.8049 233.429 37.2067 233.237 37.6329C233.046 38.0591 232.886 38.4244 232.758 38.7288C232.63 39.0332 232.566 39.2097 232.566 39.2584C232.566 39.3559 232.56 39.4533 232.547 39.5507C232.535 39.6481 232.477 39.7455 232.375 39.8429C232.273 39.8429 232.215 39.9099 232.202 40.0438L232.183 40.2447C232.183 40.3746 232.125 40.6188 232.009 40.9773Z" fill="white"/>
<path id="Path" d="M253.402 54C252.662 54 251.943 53.8582 251.247 53.5746C250.551 53.291 249.995 52.9551 249.581 52.567C249.166 52.1789 248.973 51.8058 249.003 51.4475C249.033 50.9699 249.196 50.5967 249.492 50.328C249.788 50.0594 250.262 49.9698 250.914 50.0594C251.921 50.2683 252.943 50.3355 253.98 50.2609C255.017 50.1862 255.987 49.9847 256.89 49.6563C257.794 49.328 258.527 48.8802 259.09 48.3129C259.89 47.5368 260.305 46.8725 260.334 46.3202C260.364 45.768 259.949 45.2082 259.09 44.641C258.705 44.3723 258.232 44.1186 257.67 43.8797C257.109 43.6409 256.553 43.4543 256.004 43.32C255.454 43.1856 254.972 43.1334 254.558 43.1633C254.291 43.1931 253.965 43.1409 253.58 43.0065C253.195 42.8722 252.81 42.7005 252.425 42.4916C252.247 42.2826 252.084 41.9393 251.936 41.4616C251.788 40.984 251.684 40.6854 251.625 40.566C251.595 40.4168 251.699 40.2376 251.936 40.0287C252.173 39.8197 252.647 39.4988 253.358 39.0659C254.069 38.633 255.106 38.0434 256.468 37.2971C257.713 36.6105 258.668 36.0806 259.334 35.7074C260.001 35.3342 260.519 35.0357 260.89 34.8118C261.26 34.5879 261.579 34.3565 261.845 34.1177C262.201 33.6998 262.364 33.3863 262.334 33.1773C262.304 32.9684 261.904 32.7892 261.134 32.64C260.394 32.5803 259.801 32.5728 259.357 32.6176C258.912 32.6624 258.69 32.7445 258.69 32.8639C258.69 32.8639 258.683 32.8639 258.668 32.8639C258.653 32.8639 258.601 32.8639 258.512 32.8639C258.364 32.8042 258.038 32.8191 257.535 32.9086C257.031 32.9982 256.55 33.1027 256.091 33.2221C255.631 33.3415 255.387 33.446 255.357 33.5356C255.328 33.5953 255.128 33.6923 254.758 33.8266C254.387 33.961 254.017 34.0729 253.647 34.1625C253.276 34.252 253.047 34.2968 252.958 34.2968C252.81 34.2371 252.639 34.0276 252.447 33.6682C252.254 33.3088 252.099 32.9281 251.98 32.5263C251.862 32.1244 251.832 31.8489 251.891 31.6996C251.951 31.5802 252.165 31.3936 252.536 31.1398C252.906 30.8861 253.328 30.6174 253.802 30.3338C254.276 30.0502 254.676 29.8338 255.002 29.6845C255.417 29.5651 256.031 29.4531 256.846 29.3486C257.661 29.2442 258.475 29.1546 259.29 29.08C260.105 29.0053 260.69 28.9829 261.045 29.0128C262.408 29.1621 263.504 29.5128 264.334 30.0651C265.163 30.6174 265.696 31.4906 265.933 32.6847C266.022 33.1027 266.022 33.5356 265.933 33.9834C265.844 34.4312 265.652 34.879 265.356 35.3268C265.059 35.7746 264.615 36.2671 264.023 36.8045C263.282 37.2822 262.712 37.6777 262.312 37.9912C261.912 38.3046 261.371 38.6256 260.69 38.9539C260.482 39.1032 260.157 39.2674 259.712 39.4465C259.268 39.6256 258.853 39.7929 258.468 39.9482C258.083 40.1035 257.89 40.205 257.89 40.2526C257.89 40.2526 258.031 40.2749 258.312 40.3197C258.594 40.3645 258.905 40.4242 259.246 40.4988C259.586 40.5735 259.831 40.6854 259.979 40.8347C260.838 41.1332 261.63 41.6482 262.356 42.3796C263.082 43.111 263.593 43.6857 263.889 44.1036C264.304 45.0291 264.356 46.0366 264.045 47.1263C263.734 48.2159 263.186 49.2459 262.401 50.2161C261.616 51.1863 260.705 51.9849 259.668 52.6118C258.838 53.0895 257.824 53.4253 256.624 53.6194C255.424 53.8134 254.35 53.9403 253.402 54Z" fill="white"/>
</g>
</g>
</svg>
