<svg width="312" height="82" viewBox="0 0 312 82" fill="none" xmlns="http://www.w3.org/2000/svg">
<g id="images/free-bonus-1">
<g id="marker">
<g id="Group 3">
<mask id="mask0_0_1626" style="mask-type:luminance" maskUnits="userSpaceOnUse" x="0" y="0" width="312" height="82">
<path id="Clip 2" fill-rule="evenodd" clip-rule="evenodd" d="M0 0H312V82H0V0Z" fill="white"/>
</mask>
<g mask="url(#mask0_0_1626)">
<path id="Fill 1" fill-rule="evenodd" clip-rule="evenodd" d="M218.319 7.10201C217.749 7.11721 217.169 7.08111 216.579 6.99561C217.169 7.08111 217.749 7.11721 218.319 7.10201ZM252.358 77.2037C252.494 76.9377 251.997 76.837 251.869 76.533C254.034 76.5368 256.122 76.533 258.158 76.9377C259.064 77.1201 259.96 77.2094 260.82 76.8579C261.1 76.7458 261.435 76.6223 261.596 76.9054C261.906 77.4184 262.692 77.4773 263.388 77.6217C263.688 77.6787 264.123 77.6578 263.994 77.9409C263.868 78.2031 263.488 78.0644 263.182 78.0682C262.347 78.0796 261.3 77.3747 260.71 78.2924C260.359 78.3038 260.014 78.3152 259.673 78.3247C259.583 78.0644 259.334 77.9466 258.874 78.0207C258.803 77.9789 258.719 77.9618 258.613 77.9675C258.522 77.8611 258.448 77.6787 258.323 77.6635C256.447 77.4507 254.604 77.0612 252.639 77.2417C252.558 77.2037 252.468 77.1942 252.358 77.2037ZM204.358 76.8427C203.993 76.8256 203.778 76.6869 203.758 76.4684C203.752 76.2973 203.977 76.2593 204.193 76.265C204.567 76.2765 204.747 76.4247 204.809 76.5482C204.78 76.7933 204.573 76.8465 204.358 76.8427ZM93.6014 69.4571C93.8528 69.4418 94.1073 69.3981 94.3619 69.324C94.1073 69.3981 93.8528 69.4418 93.6014 69.4571ZM254.984 54.0037C254.52 54.0037 254.259 53.8859 254.259 53.6047C254.269 53.2512 254.656 53.1771 255.146 53.1885C255.535 53.1923 255.961 53.2417 255.896 53.5515C255.842 53.8555 255.455 53.9714 254.984 54.0037ZM272.11 78.9708C271.804 79.3926 271.179 79.1513 270.693 79.1836C269.517 79.3185 268.682 78.7846 267.651 78.6231C267.38 78.587 267.18 78.3513 267.306 78.1499C267.425 77.9618 267.751 78.0093 268.005 77.9884C269.423 77.8706 270.622 78.262 271.84 78.5755C272.13 78.6459 272.23 78.8112 272.11 78.9708ZM230.019 74.099C230.731 74.1427 231.44 74.1845 232.146 74.2225C232.381 74.3498 232.616 74.4733 232.851 74.5949C233.103 74.7241 233.322 74.8723 233.167 75.0813C233.003 75.2941 232.616 75.2941 232.336 75.2561C231.24 75.1079 229.945 75.0756 230.019 74.099C229.993 74.0724 229.964 74.0401 229.935 74.0078C229.964 74.0401 229.993 74.0724 230.019 74.099ZM207.947 73.3085C206.445 73.3142 204.928 73.0368 203.442 72.8126C203.143 72.7651 202.601 72.6378 202.563 72.2521C204.158 72.0982 205.749 72.1951 207.28 72.3756C208.337 72.4991 209.168 72.3756 210.048 72.1191C210.038 72.0564 210.029 71.9861 210.019 71.9215C210.029 71.9861 210.038 72.0564 210.048 72.1191L210.148 72.1628C210.273 73.1071 208.917 73.3085 207.947 73.3085ZM131.929 69.8846C131.162 69.419 131.407 69.0561 132.268 68.7635C132.438 68.7692 132.609 68.7749 132.773 68.7787C134.185 68.6837 135.577 68.6932 136.978 68.7369C135.577 68.6932 134.185 68.6837 132.773 68.7787C133.676 69.3506 134.845 68.9022 135.867 69.0523C136.547 69.153 137.678 68.9877 137.413 69.687C137.198 70.2456 136.166 70.1126 135.47 70.0233C134.6 69.9112 133.814 69.457 132.899 69.9378C133.669 70.5021 134.6 70.5249 135.561 70.4717C134.6 70.5249 133.669 70.5021 132.899 69.9378C132.574 69.9207 132.248 69.9055 131.929 69.8846ZM121.68 68.9345C121.46 68.3474 122.711 68.6837 123.072 68.3854C123.246 68.3892 123.407 68.3892 123.571 68.3892C123.751 68.6039 123.951 68.7901 124.402 68.5811C124.666 68.5868 124.927 68.5925 125.188 68.5982C125.759 68.9706 126.303 69.0884 126.79 68.5545C126.999 68.5982 127.209 68.6457 127.415 68.6894C127.325 69.2708 126.845 69.4951 125.797 69.4894C124.953 69.4837 124.222 69.2214 123.4 69.2651C122.73 69.3031 121.825 69.3183 121.68 68.9345ZM114.059 68.3892C114.024 68.6571 114.443 68.982 113.888 69.1682C113.679 69.2385 113.254 69.1473 112.983 69.0675C112.277 68.8642 112.838 68.5811 112.912 68.336C113.292 68.3531 113.672 68.374 114.059 68.3892ZM92.0612 67.5247C91.9098 67.5095 91.7455 67.4981 91.6005 67.5038C91.7455 67.4981 91.9098 67.5095 92.0612 67.5247ZM234.614 51.1555C235.339 51.4595 236.144 51.2828 236.911 51.2942C236.966 51.3265 237.03 51.3474 237.111 51.3474C238.016 51.3569 238.932 51.4329 239.837 51.3892C238.932 51.4329 238.016 51.3569 237.111 51.3474C237.085 52.0675 235.874 51.9763 235.265 52.3012C234.778 52.3297 234.269 52.3867 233.973 52.0618C233.898 51.7901 233.232 51.5507 233.853 51.241C234.108 51.2144 234.362 51.1821 234.614 51.1555ZM209.784 57.0666C210.979 57.1635 212.075 57.2851 212.329 57.3915C212.535 57.4238 212.755 57.4504 212.961 57.4827C212.951 57.5473 212.945 57.6119 212.945 57.6708C212.896 58.0585 212.545 58.2561 211.894 58.2295C211.479 58.2143 211.114 58.0756 211.114 57.8247C211.105 57.3174 211.939 57.5587 212.329 57.3915C212.075 57.2851 210.979 57.1635 209.784 57.0666ZM178.922 70.3957C179.183 70.3843 179.444 70.3748 179.708 70.3691C179.444 70.3748 179.183 70.3843 178.922 70.3957C178.648 70.4071 178.377 70.4166 178.106 70.428C178.377 70.4166 178.648 70.4071 178.922 70.3957ZM189.787 56.3047C190.157 56.3522 190.828 56.2021 190.792 56.5707C190.757 56.9222 190.167 57.0837 189.587 57.0514C189.02 57.0191 188.321 57.2433 187.895 56.945C187.464 56.6353 187.824 56.2876 188.131 55.9836C188.53 55.9836 188.926 55.9893 189.326 55.9893C189.316 56.1755 189.481 56.261 189.787 56.3047ZM191.852 71.1386C191.733 71.0265 191.543 70.9562 191.343 70.9125C191.543 70.9562 191.733 71.0265 191.852 71.1386ZM150.96 69.3601C151.62 69.3924 152.271 69.4247 152.931 69.4513C153.096 69.5255 153.25 69.6167 153.431 69.6642C153.818 69.7668 154.607 69.5482 154.497 70.0233C154.381 70.4926 153.782 70.3957 153.115 70.3596C152.445 70.3216 151.765 70.2893 151.088 70.2304C150.434 70.1772 149.783 70.0917 149.783 69.6813C149.783 69.2746 150.653 69.6015 150.96 69.3601ZM128.456 53.8555C128.726 53.8764 128.955 53.9676 128.946 54.1538C128.936 54.3723 128.691 54.4692 128.465 54.5281C128.03 54.4521 127.805 54.3305 127.805 54.1158C127.815 53.865 128.121 53.8232 128.456 53.8555ZM144.048 53.9942C144.409 54.0417 144.77 54.0797 145.134 54.112C144.77 54.0797 144.409 54.0417 144.048 53.9942ZM154.987 54.9708C153.766 55.5294 152.38 55.0658 151.079 55.1038C150.508 55.119 150.728 54.7295 150.818 54.4901H153.26C153.782 54.7029 154.578 54.5281 154.987 54.9708ZM161.908 70.6408C161.177 70.4983 160.252 70.5781 159.656 70.1392C159.611 70.1088 159.721 69.9321 159.811 69.9207C160.616 69.782 161.393 69.8466 162.153 70.0385C162.488 70.124 163.004 70.1392 162.923 70.428C162.84 70.7434 162.308 70.5724 161.908 70.6408ZM184.087 70.9771C183.997 70.9239 183.897 70.8821 183.797 70.8441C183.897 70.8821 183.997 70.9239 184.087 70.9771C184.296 70.9676 184.512 70.9562 184.728 70.9505C185.047 71.1272 185.588 70.9296 185.943 71.2545C185.398 71.3875 185.192 71.8854 184.441 71.7295C183.877 71.6174 184.167 71.2393 184.087 70.9771ZM194.775 71.5965C195.252 71.7201 196.257 71.3989 196.141 71.9538C196.051 72.3813 195.136 72.1628 194.591 72.1628C192.693 72.1628 190.802 72.1362 188.901 72.0982C188.25 72.0868 187.47 72.0013 187.489 71.5281C187.499 71.0303 188.311 71.2279 188.775 71.2279C189.851 71.2279 190.918 71.2982 191.994 71.3343C191.968 71.2716 191.923 71.2184 191.878 71.169C191.923 71.2184 191.968 71.2716 191.994 71.3343C192.748 71.3571 193.505 71.378 194.266 71.3989C194.44 71.4635 194.591 71.5547 194.775 71.5965ZM176.531 71.4787H175.915C175.329 71.3305 174.775 71.1006 174.072 71.3248C173.734 71.4312 173.263 71.4578 173.038 71.2222C172.577 70.7643 172.161 70.4717 171.456 71.1006C171.291 71.245 170.956 71.2013 170.715 71.1006C170.47 71.0037 170.331 70.865 170.36 70.694C170.396 70.428 170.776 70.4603 171.085 70.4071C172.116 70.2247 173.122 70.5401 174.153 70.4394C174.623 70.39 175.129 70.5192 175.564 70.3102C175.906 70.3539 176.244 70.3957 176.586 70.4337C176.83 70.7852 177.091 71.1386 176.531 71.4787C176.586 71.6231 176.711 71.7143 176.866 71.7618C176.711 71.7143 176.586 71.6231 176.531 71.4787ZM202.257 73.3997C202.292 73.4168 202.221 73.3845 202.137 73.3465C202.137 73.3617 202.147 73.3788 202.147 73.394C199.034 73.1698 196.031 72.5086 193.099 72.7803C196.067 72.5086 199.109 73.1869 202.137 73.3465C202.328 72.7765 202.727 73.166 203.152 73.2401C202.727 73.166 202.328 72.7765 202.257 73.3997ZM228.443 74.9787C227.947 74.9692 228.118 74.6215 227.912 74.4562C227.802 74.1161 228.273 74.1997 228.534 74.1731C228.843 74.1427 229.268 74.1313 229.159 74.4296C229.078 74.6652 229.004 74.9844 228.443 74.9787ZM91.8904 68.982C91.7809 68.9554 91.6842 68.9231 91.5747 68.8965C91.3395 68.6457 91.3749 68.2714 90.5049 68.374C89.7026 68.469 90.3341 68.1061 90.2697 67.9579C90.4888 67.9408 90.695 67.9256 90.9141 67.9104C91.8808 67.9788 92.841 68.0529 93.8109 68.1289C94.2072 68.1612 94.7775 68.07 94.7679 68.4652C94.7582 68.7521 94.3168 68.8813 93.9365 69.0143C93.2405 69.2594 92.58 68.8053 91.8904 68.982C92.4157 69.3449 92.986 69.4893 93.6014 69.457C92.986 69.4893 92.4157 69.3449 91.8904 68.982ZM86.5803 68.7198C85.9649 68.6077 84.8532 68.8224 84.9853 68.336C85.1239 67.8401 86.3161 67.8021 87.1506 67.7432C87.7467 67.7014 88.578 67.8287 88.5072 68.2144C88.3718 68.9079 87.2473 68.6039 86.5803 68.7198ZM1.23434 61.0264C1.74022 61.9441 1.84011 62.9417 1.46956 63.9715C1.22467 64.6555 0.419129 65.5144 1.21501 66.1224C3.28687 67.7166 2.80677 69.4305 2.34599 71.1804C2.24611 71.5319 2.27188 71.8949 2.7971 72.1628C2.71655 72.4022 2.9711 72.52 3.26109 72.6264C3.4222 72.7917 3.58653 72.9627 3.74764 73.1337C3.74764 73.4054 3.75731 73.6714 3.75731 73.945C3.44154 74.061 3.13221 74.1959 2.79066 74.2909C2.01089 74.5151 1.25045 74.8134 1.77567 75.3644C2.29122 75.8926 2.3911 76.9643 4.27286 76.362C4.7433 76.4095 5.14929 76.362 5.44896 76.1263C6.14495 76.0465 6.85383 75.9667 7.54982 75.8869C7.93004 76.0199 8.16526 75.8964 8.38114 75.7273L8.76136 75.7425C9.81179 75.9781 10.8332 75.8337 11.8482 75.6304C12.3992 75.6304 12.9599 75.6247 13.5109 75.6247C15.1574 75.6893 16.7975 75.7748 18.444 75.8109C19.0852 75.828 19.7458 75.9135 20.3709 75.7102C22.5684 74.9958 24.8304 75.011 27.1214 75.5392C27.8174 75.7007 28.5327 75.6741 29.2029 75.5126C30.8494 75.1402 32.5862 75.1402 34.2972 75.0072C36.5688 74.8248 38.8404 75.0281 41.1024 75.0642C44.7467 75.1288 48.3749 74.8723 52.0127 75.011C53.4885 75.0699 54.9642 75.0224 56.4013 74.783C56.8267 74.707 57.3325 74.6804 57.3873 74.365C57.4518 73.9773 56.8557 74.0515 56.4754 73.9716C55.7859 73.8272 55.0899 73.774 54.3843 73.8158C50.9268 74.0458 47.4984 73.47 44.0056 73.8424C42.3945 74.0191 40.6481 73.7037 38.8566 73.8158C36.7299 73.945 34.4422 74.1788 32.2511 73.6942C31.4906 73.5232 30.6303 73.6771 29.8989 73.9393C25.8164 73.4168 21.6726 73.907 17.574 73.6714C17.2679 73.4586 16.9683 73.2458 16.6686 73.0311C18.6696 72.9893 20.6705 72.9627 22.6683 72.8981C26.145 72.7917 29.6379 73.1128 33.0824 72.6644C33.9266 72.558 34.7676 72.387 35.6634 72.4877C39.066 72.8829 42.4751 72.4193 45.897 72.5523C47.9689 72.6321 50.131 72.7765 52.2028 72.3642C55.6506 72.3813 59.0629 72.8715 62.5267 72.5618C63.4321 72.4763 64.3827 72.4991 65.2978 72.558C70.9334 72.9095 76.6077 72.7499 82.2529 72.9038C82.5429 72.9152 82.8329 72.862 82.9328 72.7005C83.3323 72.0336 84.3699 71.9177 85.2947 71.6916C85.5202 71.6877 85.7393 71.682 85.9649 71.6763C86.6512 71.9918 87.3407 71.8151 88.0206 71.6668C88.7069 71.9386 89.4674 71.8797 90.2246 71.8531C93.3469 71.7467 96.4434 71.9804 99.556 72.0564C102.685 72.1305 105.833 72.4554 108.965 72.007C109.129 72.1894 109.364 72.2217 109.654 72.1134C109.935 72.1571 110.205 72.1951 110.476 72.2369C109.59 73.3617 109.635 73.3997 111.771 73.3674C112.477 73.3522 113.183 73.3845 113.879 73.3731C114.314 73.3674 115.055 73.4909 114.559 72.957C114.368 72.7537 114.378 72.5618 114.765 72.4934C115.164 72.4288 115.354 72.6207 115.38 72.824C115.545 74.004 117.001 73.2344 117.823 73.3617C118.792 73.5118 118.999 73.09 118.892 72.6055C120.284 72.349 121.67 72.4991 123.062 72.6055C124.928 74.0723 125.043 74.0781 127.55 72.862C128.121 72.5846 128.791 72.6739 129.426 72.8126C129.677 72.8658 129.948 72.9304 129.948 73.1337C129.948 73.4909 129.197 73.299 128.881 73.7683C139.205 74.0667 149.339 74.8457 159.756 74.4676C159.276 74.1161 158.86 74.27 158.516 74.2225C158.164 74.1788 157.604 74.2548 157.584 73.9659C157.555 73.5916 158.171 73.6448 158.57 73.6676C159.547 73.7151 160.523 73.7892 161.493 73.8861C161.938 73.9279 162.559 73.7512 162.788 74.1256C163.085 74.6386 161.947 74.4467 161.648 74.9046C162.969 74.5797 164.625 75.5829 165.301 74.232C165.356 74.1256 165.991 74.0876 166.362 74.0781C167.228 74.0515 168.073 74.1579 168.923 74.3346C168.894 74.6481 167.979 74.7184 168.308 75.0604C168.604 75.3796 169.194 75.1877 169.655 75.2143C171.066 75.2941 172.513 75.2561 173.879 75.4499C178.087 76.0351 182.395 76.0256 186.648 76.3354C192.513 76.761 198.458 76.6603 204.329 77.1087C204.673 77.1353 205.205 77.2094 205.244 76.8788C205.315 76.2498 206.075 76.4209 206.681 76.4095C209.001 76.362 211.305 76.7192 213.631 76.4627C213.802 76.4741 213.976 76.4836 214.147 76.5007C214.337 76.6926 214.591 76.7933 214.978 76.7078C216.383 76.8313 217.784 76.9491 219.186 77.0707C219.586 77.2588 220.056 77.2265 220.517 77.2094C220.952 77.2151 221.387 77.2151 221.819 77.2208C221.964 77.3918 222.183 77.4545 222.498 77.3804C225.872 77.7376 229.249 78.1005 232.623 78.4577C232.851 78.6554 233.087 78.6668 233.328 78.4691C233.973 78.4901 234.614 78.5071 235.265 78.528C237.881 78.8853 240.398 79.5636 243.175 79.4876C243.481 79.4838 243.791 79.4781 244.106 79.4781C245.311 79.6377 246.523 79.6225 247.735 79.5408C250.702 80.2134 253.95 79.6757 256.927 80.2894C258.593 80.4813 260.114 81.0685 261.896 80.945C262.221 81.0362 262.547 81.0191 262.882 80.9507C265.218 81.4466 267.651 81.6062 270.103 81.6974C270.403 81.7829 270.693 81.7886 270.983 81.6974C271.099 81.629 271.189 81.5473 271.324 81.4998C271.189 81.5473 271.099 81.629 270.983 81.6974C272.004 82.1572 273.154 81.8513 274.15 81.7563C276.418 81.5435 278.564 82.2522 280.846 81.9007C281.812 81.7506 282.363 81.4523 282.302 80.9602C282.228 80.3901 281.458 80.1279 280.446 80.1602C278.149 80.2305 275.913 80.0424 273.721 79.6111C273.225 79.5142 272.7 79.4838 272.909 79.0829C273.08 78.7523 273.515 78.6668 274.086 78.7618C274.446 78.8207 274.846 78.8739 275.207 78.8435C278.174 78.6021 280.936 79.3337 283.739 79.6168C289.784 80.2305 295.748 81.0628 301.935 80.7321C302.425 80.7055 303.385 80.8386 303.275 80.278C303.105 79.4249 304.226 78.395 302.354 77.7547C302.235 77.7167 302.144 77.5666 302.18 77.4925C302.615 76.3886 301.258 76.3088 300.018 76.1701C299.422 76.1054 298.706 76.1111 298.832 75.5981C298.967 75.0167 299.667 75.3207 300.227 75.3378C303.71 75.4651 307.303 75.8603 310.18 74.1636C310.777 73.9868 311.012 73.6296 311.373 73.337C311.888 73.2078 312.117 72.9513 311.943 72.6701C311.753 72.3376 311.257 72.2426 310.677 72.3547C310.47 72.3224 310.255 72.2844 310.045 72.2521C308.244 71.836 306.278 71.8797 304.442 71.5433C304.161 71.4844 303.881 71.4312 303.601 71.3723C303.285 71.0303 302.976 70.6902 302.66 70.3482C302.66 70.3007 302.624 70.2684 302.55 70.2418C302.66 69.3715 301.123 69.0238 300.788 68.2505C300.234 66.9755 300.343 66.8843 302.525 67.0192C303.636 67.0876 305.041 67.5304 305.847 66.6012C306.243 66.5708 306.423 66.415 306.514 66.2022C307.239 65.8773 307.799 65.4878 307.889 64.9216C308.424 64.6175 309.011 64.3192 308.064 63.924C307.919 63.8708 307.773 63.8176 307.638 63.7587C306.823 63.3369 305.821 63.3312 304.825 63.2894C304.551 63.1925 304.271 63.1013 304 63.012C303.772 62.8087 303.391 62.7612 303.03 62.6966C300.662 62.2747 298.297 61.8206 295.909 61.4482C293.738 61.1062 291.646 60.5571 289.359 60.4925C289.149 60.4773 288.933 60.4602 288.724 60.4507C287.622 59.8521 286.137 60.0877 284.87 59.8426C284.139 59.7039 283.459 59.4246 283.939 59.0788C285.231 58.1554 284.229 57.477 283.478 56.7835C282.818 56.1698 283.214 55.957 284.21 55.9247C285.105 55.8924 285.911 55.7708 286.626 55.4458C286.887 55.4021 287.152 55.3603 287.413 55.3223C287.857 55.3375 288.057 55.2045 288.057 54.9537C288.898 54.1272 289.584 53.2778 288.843 52.286C289.078 51.3417 289.049 50.3498 290.464 49.6335C290.815 49.453 290.95 49.0787 290.815 48.748C291.511 48.0488 292.081 47.323 292.362 46.523C292.581 45.8884 292.262 45.4514 291.06 45.3431C289.819 45.2367 288.579 45.0885 287.342 44.9859C286.507 44.9175 285.702 44.8111 285.134 44.431C284.445 43.9788 284.119 43.5133 285.531 43.3271C286.671 43.1732 287.271 42.7305 287.712 42.1377C288.553 41.0223 289.004 39.8804 288.318 38.6852C288.063 38.2425 288.002 37.7295 288.653 37.549C290.515 37.0207 290.654 35.894 291.305 34.9933C291.721 34.4062 292.21 33.6367 291.26 32.9812C290.064 32.1584 290.544 31.0754 289.964 30.1538C289.848 29.9714 290.119 29.7795 290.38 29.6617C292.616 28.6851 293.096 27.2068 293.332 25.7456C293.567 24.2256 294.128 22.7891 295.123 21.3754C296.27 19.7528 295.329 18.8996 292.462 18.6013C290.97 18.4398 289.43 18.4246 287.964 18.132C286.826 17.9021 286.617 17.6513 287.258 17.0166C288.563 15.7246 289.649 14.385 288.453 12.8213C288.138 12.4051 288.698 12.1068 289.088 11.7914C290.28 10.8471 291.086 9.82293 291.105 8.60118C291.124 7.45923 290.528 6.98991 288.598 7.19322C285.386 7.52953 282.283 7.18182 279.19 6.8721C272.671 6.22797 266.12 5.69975 259.56 5.33114C249.536 4.77631 239.547 4.05048 229.51 3.62296C225.35 3.44245 221.168 3.24484 216.998 3.15934C210.998 3.03583 204.999 2.89713 199.018 2.66722C192.158 2.40121 185.292 2.2777 178.422 2.10289C170.911 1.90528 163.41 1.66017 155.899 1.43596C153.015 1.35046 150.138 1.24786 147.251 1.16235C141.586 0.987545 135.922 0.784236 130.257 0.65123C124.747 0.518224 119.237 0.512524 113.734 0.368117C102.714 0.0793047 91.6907 0.0755045 80.6708 0.00520142C75.7119 -0.0213998 70.7529 0.0584038 65.794 0.0527035C59.2884 0.0527035 52.8376 0.447921 46.3868 0.896341C42.3752 1.17945 38.3861 1.51577 34.3519 1.68107C31.336 1.80458 28.3973 1.28016 25.3846 1.55187C23.5093 1.72288 23.0775 1.86728 23.1291 2.97313C23.2032 4.28989 23.1935 5.59145 22.5974 6.8949C22.2623 7.59793 22.2978 8.36747 22.7327 9.0876C23.1226 9.70513 23.2386 10.3683 23.0582 10.9915C22.8133 11.8769 23.2837 12.6408 24.1247 13.2488C25.2299 14.0449 25.6456 14.9076 25.8615 15.8747C26.0065 16.4827 25.8454 16.9197 24.7402 17.0375C23.258 17.1972 22.5072 17.7311 22.533 18.5747C22.5781 19.5134 22.7424 20.4843 24.6145 20.8624C25.5006 21.0448 26.0516 21.4495 26.6058 21.8391C27.1117 22.202 27.0118 22.6181 26.6058 23.0133C26.1966 23.3971 25.6263 23.323 25.0141 23.2223C22.8874 22.8803 20.6705 22.9658 18.5052 22.8746C16.5977 22.7948 14.2165 24.3206 14.4807 25.3238C15.1961 27.9858 14.6708 30.6554 14.7514 33.3232C14.7868 34.2029 13.8266 34.657 12.4894 34.8489C8.97725 35.3563 7.83015 36.4013 8.56159 38.5085C8.95147 39.6143 9.43157 40.7392 8.92247 41.8545C8.06537 43.7109 9.07714 45.6376 8.19103 47.4902C7.1696 49.6183 9.00625 51.7255 8.28125 53.8973C7.87526 55.1095 9.68291 55.6852 11.7741 55.2748C12.4991 55.1361 13.2499 55.0335 14.0006 54.9651C14.9415 54.8739 15.8115 54.9385 15.8469 55.6738C15.8824 56.299 15.5569 56.7303 14.2713 56.7151C12.3638 56.6942 10.4433 56.7208 8.53581 56.736C7.00527 56.7531 5.5134 56.7626 4.08275 56.299C2.64566 55.8354 1.83045 56.7303 0.78968 57.04C-0.089976 57.2965 -0.151197 57.9159 0.20002 58.4233C0.780013 59.2593 0.754236 60.1675 1.23434 61.0264Z" fill="#D52917"/>
</g>
</g>
<path id="Fill 4" fill-rule="evenodd" clip-rule="evenodd" d="M117.118 75.8067C117.759 75.8181 118.745 76.276 118.909 75.7592C119.044 75.3203 117.843 75.2784 117.098 75.21C116.892 75.1872 116.666 75.1986 116.447 75.2043C113.045 75.2784 109.652 75.2575 106.259 75.0162C105.102 74.9307 103.887 74.868 102.73 75.2993C103.501 75.6737 104.287 75.5996 105.047 75.5882C109.081 75.5084 113.099 75.7212 117.118 75.8067Z" fill="black"/>
<path id="Fill 6" fill-rule="evenodd" clip-rule="evenodd" d="M65.912 74.9476C68.1127 75.0863 70.22 74.8032 72.5175 74.8678C72.2178 74.3928 71.7925 74.4574 71.4412 74.446C67.478 74.3187 63.4986 74.5695 59.5611 74.1363C59.1164 74.0888 58.4816 74.0128 58.4204 74.4517C58.3463 74.883 58.936 74.8469 59.4257 74.8792C61.5878 75.0331 63.7757 74.8089 65.912 74.9476Z" fill="black"/>
<path id="Fill 8" fill-rule="evenodd" clip-rule="evenodd" d="M183.353 78.0744C183.408 77.7589 182.993 77.6316 182.512 77.6145C181.137 77.567 179.77 77.567 178.395 77.8767C179.745 78.0212 181.091 78.1751 182.448 78.3043C182.783 78.3366 183.302 78.3993 183.353 78.0744Z" fill="black"/>
<path id="Fill 10" fill-rule="evenodd" clip-rule="evenodd" d="M173.427 77.338C173.482 76.8534 172.422 77.1841 171.99 76.8572C171.275 77.3323 169.599 76.709 169.548 77.3C169.5 77.8396 171.136 77.5565 171.997 77.7275C172.422 77.813 173.402 77.6534 173.427 77.338Z" fill="black"/>
</g>
<path id="FREEBonus#1" fill-rule="evenodd" clip-rule="evenodd" d="M227.664 56.9498C227.154 57.0836 226.705 56.9498 226.316 56.5486C225.927 56.1473 225.652 55.5588 225.491 54.7831C225.33 54.0073 225.357 53.1246 225.571 52.1348C225.705 51.8138 225.813 51.4995 225.893 51.1919C225.974 50.8842 226.014 50.6368 226.014 50.4495C226.068 50.2355 226.202 49.7607 226.416 49.0251C226.631 48.2895 226.893 47.4402 227.201 46.4771L227.664 45.0377L227.98 44.0616L227.971 44.0615C227.679 44.0654 227.447 44.0679 227.276 44.069L227.101 44.0696C226.94 44.0696 226.738 44.0629 226.497 44.0496C226.255 44.0362 225.987 43.976 225.692 43.869C225.29 43.869 224.968 43.7888 224.726 43.6283C224.485 43.4678 224.31 43.2939 224.203 43.1066C223.908 42.7054 223.935 42.4044 224.283 42.2038C224.632 42.0032 225.303 41.8494 226.296 41.7424C226.591 41.6621 227.194 41.5952 228.107 41.5417L228.457 41.522C228.576 41.5155 228.699 41.5094 228.827 41.5036L228.844 41.4533L228.9 41.2925L228.932 41.2007C229.16 40.5453 229.301 40.1775 229.354 40.0972C229.462 40.0972 229.555 40.0036 229.636 39.8164C229.716 39.6291 229.757 39.4418 229.757 39.2546C229.757 39.0406 229.804 38.7998 229.898 38.5323C229.991 38.2648 230.092 38.0776 230.199 37.9706C230.199 37.8368 230.233 37.683 230.3 37.5091C230.367 37.3353 230.401 37.1948 230.401 37.0878C230.401 36.9808 230.434 36.8738 230.501 36.7668C230.568 36.6598 230.602 36.5528 230.602 36.4458L230.653 36.3497C230.688 36.2804 230.728 36.2007 230.77 36.1106L230.825 35.9914L230.807 35.991C230.329 35.998 229.97 36.0022 229.731 36.0038L229.555 36.0044C229.395 36.0044 229.193 35.9978 228.952 35.9844C228.71 35.971 228.442 35.9108 228.147 35.8038C227.744 35.8038 227.429 35.7303 227.201 35.5831C226.973 35.436 226.805 35.2688 226.698 35.0816C226.403 34.6803 226.423 34.3727 226.758 34.1587C227.094 33.9447 227.758 33.7842 228.751 33.6772C229.046 33.5969 229.649 33.5301 230.562 33.4766L230.912 33.4568C231.151 33.4439 231.401 33.4313 231.661 33.4192L231.906 33.4083L232.038 33.0784C232.189 32.7035 232.348 32.3079 232.514 31.8916C232.956 30.7815 233.406 29.6312 233.862 28.4408C234.318 27.2505 234.747 26.1203 235.15 25.0503C235.552 23.9802 235.874 23.0975 236.115 22.402C236.357 21.7065 236.478 21.3052 236.478 21.1982C236.478 20.9842 236.625 20.7635 236.92 20.5362C237.215 20.3088 237.47 20.1951 237.685 20.1951C237.766 20.1148 237.866 20.0613 237.987 20.0346C238.108 20.0078 238.224 19.9966 238.335 20.0009L238.432 20.0972L238.49 20.155L238.561 20.2256L238.85 20.5145L238.973 20.6365C239.187 20.8237 239.416 21.0979 239.657 21.459C239.898 21.8202 240.019 22.1612 240.019 22.4822C240.019 22.83 239.979 23.1376 239.898 23.4051C239.818 23.6726 239.657 24.0605 239.416 24.5687C239.174 25.077 238.798 25.8661 238.289 26.9361C238.208 27.1501 238.047 27.5246 237.806 28.0596C237.564 28.5946 237.303 29.1965 237.021 29.8653C236.739 30.534 236.458 31.1827 236.176 31.8114L236.039 32.1173C235.864 32.5141 235.712 32.8663 235.583 33.1739L235.537 33.288L236.156 33.2711C236.69 33.2583 237.233 33.2465 237.786 33.2358L238.608 33.2206C239.696 33.2013 240.75 33.1863 241.77 33.1756L241.98 33.1736L242.019 33.0784C242.17 32.7035 242.328 32.3079 242.494 31.8916C242.937 30.7815 243.386 29.6312 243.842 28.4408C244.299 27.2505 244.728 26.1203 245.13 25.0503C245.533 23.9802 245.855 23.0975 246.096 22.402C246.338 21.7065 246.458 21.3052 246.458 21.1982C246.458 20.9842 246.606 20.7635 246.901 20.5362C247.196 20.3088 247.451 20.1951 247.666 20.1951C247.746 20.1148 247.847 20.0613 247.968 20.0346C248.088 20.0078 248.205 19.9966 248.316 20.0009L248.413 20.0972L248.471 20.155L248.542 20.2256L248.831 20.5145L248.954 20.6365C249.168 20.8237 249.396 21.0979 249.638 21.459C249.879 21.8202 250 22.1612 250 22.4822C250 22.83 249.96 23.1376 249.879 23.4051C249.799 23.6726 249.638 24.0605 249.396 24.5687C249.155 25.077 248.779 25.8661 248.269 26.9361C248.189 27.1501 248.028 27.5246 247.787 28.0596C247.545 28.5946 247.283 29.1965 247.002 29.8653C246.72 30.534 246.438 31.1827 246.157 31.8114L246.02 32.1173C245.888 32.4149 245.77 32.6874 245.665 32.9349L245.583 33.1295L245.6 33.1289C246.289 33.1199 246.777 33.1154 247.062 33.1154C247.76 33.1154 248.229 33.1689 248.471 33.2759C248.712 33.3829 248.98 33.5836 249.276 33.8778C249.678 34.2791 249.772 34.6937 249.557 35.1217C249.343 35.5497 248.927 35.7102 248.31 35.6032C248.122 35.6299 247.827 35.6567 247.424 35.6834C247.022 35.7102 246.579 35.7503 246.096 35.8038L246.063 35.804C245.914 35.805 245.489 35.8116 244.788 35.8239L244.563 35.8279L244.5 35.9643C244.446 36.0802 244.388 36.2073 244.325 36.3455C244.138 36.7601 243.943 37.2015 243.742 37.6696C243.541 38.1378 243.373 38.539 243.239 38.8734C243.105 39.2078 243.038 39.4017 243.038 39.4552C243.038 39.5622 243.031 39.6692 243.017 39.7762C243.004 39.8832 242.944 39.9902 242.836 40.0972C242.729 40.0972 242.669 40.1708 242.655 40.3179L242.635 40.5386L242.632 40.598C242.621 40.7285 242.575 40.9301 242.494 41.2027L242.615 41.2007C243.567 41.1873 244.218 41.1806 244.567 41.1806C245.264 41.1806 245.734 41.2341 245.975 41.3411C246.217 41.4481 246.485 41.6487 246.78 41.943C247.183 42.3442 247.283 42.7589 247.082 43.1869C246.881 43.6149 246.472 43.7754 245.855 43.6684C245.667 43.6951 245.365 43.7219 244.949 43.7486C244.533 43.7754 244.084 43.8155 243.601 43.869C243.494 43.869 243.058 43.8757 242.293 43.8891L242.031 43.8935L241.753 43.898L241.613 43.9001L241.592 43.9725C241.503 44.2746 241.408 44.6013 241.307 44.9524C241.039 45.8886 240.75 46.8851 240.442 47.9417C240.133 48.9984 239.845 50.0282 239.577 51.0314C239.308 52.0345 239.087 52.9106 238.912 53.6596C238.738 54.4086 238.651 54.9302 238.651 55.2245C238.651 55.8665 238.537 56.2878 238.309 56.4884C238.081 56.689 237.859 56.8428 237.645 56.9498C237.135 57.0836 236.686 56.9498 236.297 56.5486C235.908 56.1473 235.633 55.5588 235.472 54.7831C235.311 54.0073 235.337 53.1246 235.552 52.1348C235.686 51.8138 235.793 51.4995 235.874 51.1919C235.954 50.8842 235.995 50.6368 235.995 50.4495C236.048 50.2355 236.183 49.7607 236.397 49.0251C236.612 48.2895 236.873 47.4402 237.182 46.4771L237.645 45.0377L237.999 43.9452H237.963C237.23 43.9533 236.474 43.9613 235.693 43.9693L234.724 43.9793C233.764 43.9894 232.825 43.9994 231.91 44.0094L231.599 44.0125L231.52 44.2828C231.458 44.4951 231.393 44.7183 231.326 44.9524C231.058 45.8886 230.77 46.8851 230.461 47.9417C230.152 48.9984 229.864 50.0282 229.596 51.0314C229.327 52.0345 229.106 52.9106 228.932 53.6596C228.757 54.4086 228.67 54.9302 228.67 55.2245C228.67 55.8665 228.556 56.2878 228.328 56.4884C228.1 56.689 227.879 56.8428 227.664 56.9498ZM42.2794 53C42.6871 53 42.9304 52.7959 43.0094 52.3878C43.1409 52.3061 43.233 52.034 43.2856 51.5715C43.3382 51.1089 43.4829 50.5511 43.7196 49.8981C43.7196 49.6804 43.8051 49.2927 43.9761 48.7349C44.1471 48.1771 44.3641 47.524 44.6272 46.7758C44.8902 46.0275 45.173 45.2724 45.4755 44.5105C45.778 43.7487 46.0608 43.048 46.3239 42.4086C46.5869 41.7691 46.8105 41.2862 46.9947 40.9597C46.9947 40.742 47.0539 40.5651 47.1722 40.4291L47.3498 40.225C47.5865 40.2794 48.0009 40.3134 48.5927 40.327C49.1846 40.3406 49.8423 40.3338 50.5657 40.3066C51.2891 40.2794 51.9664 40.2522 52.5978 40.225C53.2291 40.1978 53.7158 40.1706 54.0577 40.1434C55.2152 40.0073 56.0372 39.8645 56.5239 39.7148C57.0105 39.5652 57.3328 39.4359 57.4906 39.3271C57.8326 39.1366 58.0299 38.8305 58.0825 38.4087C58.1351 37.987 58.0825 37.5788 57.9247 37.1843C57.7668 36.7897 57.5301 36.5789 57.2144 36.5517C57.0566 36.5245 56.7672 36.5381 56.3463 36.5925C55.9254 36.6469 55.5177 36.7149 55.1231 36.7966C54.2813 36.8782 53.3869 36.953 52.4399 37.021C51.4929 37.0891 50.6314 37.1231 49.8554 37.1231C49.0794 37.1231 48.5072 37.0687 48.139 36.9598C48.1916 36.9054 48.3231 36.6129 48.5335 36.0823C48.744 35.5517 48.9807 34.9395 49.2438 34.2456C49.5069 33.5518 49.7633 32.9055 50.0132 32.3069C50.2631 31.7083 50.4407 31.3138 50.5459 31.1233C50.7827 30.4158 51.0326 29.8785 51.2956 29.5111C51.5587 29.1438 51.7428 28.9601 51.8481 28.9601L52.4597 28.7765C52.8674 28.654 53.3606 28.5792 53.9394 28.552C55.3862 28.3343 56.5896 28.2051 57.5498 28.1642C58.51 28.1234 59.5556 28.1846 60.6867 28.3479C61.6338 28.3751 62.2256 28.3683 62.4624 28.3275C62.6991 28.2867 62.8307 28.1438 62.857 27.8989C62.8833 27.8173 62.9161 27.6472 62.9556 27.3888C62.9951 27.1303 63.0082 26.8718 62.9951 26.6133C62.9819 26.3548 62.8833 26.1847 62.6991 26.1031C62.5676 25.9943 62.4624 25.9194 62.3835 25.8786L62.3933 25.8837L62.4229 25.899L62.4451 25.8187L62.4624 25.7562C62.4887 25.6609 62.4492 25.5589 62.344 25.4501C62.1862 25.314 61.9823 25.2256 61.7324 25.1848C61.4825 25.1439 61.0813 25.0691 60.5289 24.9603C60.3974 25.0691 60.1541 25.1167 59.7989 25.1031C59.4438 25.0895 59.0426 25.1235 58.5955 25.2052C58.1746 25.0691 57.6024 25.0283 56.879 25.0827C56.1556 25.1371 55.5571 25.1916 55.0836 25.246C54.1893 25.4365 53.5645 25.5657 53.2094 25.6337C52.8542 25.7017 52.657 25.7085 52.6175 25.6541C52.578 25.5997 52.5452 25.5317 52.5189 25.4501C52.6241 24.9331 52.5583 24.5589 52.3216 24.3277C52.0848 24.0964 51.7757 23.9875 51.3943 24.0011C51.0129 24.0147 50.6512 24.1508 50.3092 24.4093C49.9672 24.6678 49.7305 25.0419 49.5989 25.5317C49.5726 25.6405 49.5134 25.7426 49.4214 25.8378C49.3293 25.933 49.2175 26.0215 49.086 26.1031C48.9281 26.0487 48.6585 26.0011 48.2771 25.9602C47.8956 25.9194 47.455 25.9534 46.9552 26.0623C46.5606 26.1711 46.2515 26.2459 46.0279 26.2868C45.8043 26.3276 45.6005 26.3752 45.4163 26.4296C45.0217 26.4568 44.6995 26.7017 44.4496 27.1643C44.1997 27.6268 44.0484 28.0758 43.9958 28.5112C43.9958 28.7561 44.101 28.9193 44.3115 29.0009C44.5219 29.0826 44.7587 29.1098 45.0217 29.0826C45.127 29.0554 45.2519 29.035 45.3966 29.0213C45.5413 29.0077 45.7715 28.9737 46.0871 28.9193C46.7185 28.8921 47.1393 28.8513 47.3498 28.7969C47.455 28.7969 47.4747 28.9193 47.409 29.1642C47.3432 29.4091 47.2577 29.722 47.1525 30.1029C47.0999 30.2934 47.021 30.5451 46.9158 30.858C46.8105 31.1709 46.7316 31.3818 46.679 31.4906C46.679 31.5178 46.6132 31.7083 46.4817 32.062C46.3502 32.4158 46.2055 32.8443 46.0477 33.3477C45.8898 33.8511 45.7254 34.3409 45.5544 34.817C45.3834 35.2932 45.2585 35.6673 45.1796 35.9394C44.9165 36.5381 44.6863 36.9802 44.4891 37.2659C44.2918 37.5516 44.1274 37.7489 43.9958 37.8577C43.8117 38.1026 43.7065 38.2727 43.6802 38.3679C43.6539 38.4632 43.6539 38.6604 43.6802 38.9597C43.5486 39.3135 43.4434 39.7012 43.3645 40.123C43.2856 40.5447 43.1014 41.0141 42.8121 41.5311C42.549 42.048 42.2794 42.7079 42.0032 43.5106C41.727 44.3133 41.4639 45.1364 41.214 45.9799C40.9641 46.8234 40.7405 47.592 40.5432 48.2859C40.3459 48.9797 40.2078 49.5035 40.1289 49.8573C39.9448 50.4559 39.9579 50.9933 40.1684 51.4694C40.3788 51.9456 40.7734 52.3334 41.3521 52.6327C41.5626 52.8776 41.8716 53 42.2794 53ZM60.9301 51.9155C61.064 52.0344 61.1309 52.0278 61.1309 51.8957C61.1576 51.7901 61.2045 51.7372 61.2714 51.7372C61.3383 51.7372 61.4253 51.8033 61.5324 51.9353C61.6126 52.041 61.7331 52.008 61.8937 51.8363C62.0543 51.6646 62.1747 51.4731 62.255 51.2617C62.5494 50.4164 62.7903 49.6041 62.9776 48.8248C63.165 48.0455 63.2319 47.537 63.1784 47.2993C63.3122 47.0879 63.4527 46.7974 63.5999 46.4275C63.7471 46.0577 63.8943 45.6813 64.0415 45.2982C64.1887 44.9152 64.2891 44.6444 64.3426 44.4859C64.4229 44.3274 64.5233 44.2614 64.6437 44.2878C64.7642 44.3142 64.8646 44.3935 64.9449 44.5255C65.159 44.7369 65.3664 44.9086 65.5671 45.0407C65.7679 45.1727 65.9753 45.2256 66.1894 45.1992C66.5641 45.1199 66.8451 45.0803 67.0325 45.0803C67.2199 45.0803 67.3938 45.1397 67.5544 45.2586C67.715 45.3775 67.9157 45.5822 68.1566 45.8728C69.2807 47.0615 70.3179 48.171 71.268 49.2013C72.2182 50.2315 73.2954 50.9315 74.4999 51.3014C74.9281 51.5919 75.2626 51.7108 75.5035 51.658C75.7444 51.6051 75.9518 51.4731 76.1258 51.2617C76.2998 51.0504 76.4938 50.8655 76.7079 50.707C76.7882 50.6542 76.9087 50.4692 77.0693 50.1522C77.2299 49.8352 77.3235 49.505 77.3503 49.1616C77.3235 48.7125 77.2566 48.3956 77.1496 48.2106C77.0425 48.0257 76.8819 47.9267 76.6678 47.9135C76.4537 47.9002 76.1726 47.9465 75.8247 48.0521C75.6374 47.9465 75.3496 47.755 74.9615 47.4776C74.5735 47.2002 74.1452 46.8766 73.6768 46.5068C73.2085 46.1369 72.7601 45.7605 72.3319 45.3775C71.9037 44.9944 71.549 44.6312 71.268 44.2878C70.987 43.9444 70.8465 43.667 70.8465 43.4557L70.8625 43.4272L70.9468 43.2774C71.0138 43.1585 71.074 43.0462 71.1275 42.9406C72.9475 41.9367 74.453 40.8273 75.644 39.6121C76.8351 38.3969 77.8321 37.1686 78.635 35.927C79.0632 35.3458 79.371 34.8373 79.5584 34.4015C79.7457 33.9656 79.8662 33.5165 79.9197 33.0542C79.9732 32.5919 80 32.057 80 31.4494C79.9197 30.4456 79.6788 29.5607 79.2774 28.7946C78.8759 28.0285 78.4075 27.4209 77.8722 26.9718C77.7919 26.8662 77.5109 26.6681 77.0291 26.3775C76.5474 26.0869 75.9987 25.8029 75.3831 25.5255C74.7675 25.2482 74.2322 25.0831 73.7772 25.0302C73.5631 25.0302 73.3958 25.0038 73.2754 24.951C73.1549 24.8982 73.0144 24.8189 72.8538 24.7132C72.5862 24.5283 72.2315 24.383 71.7899 24.2774C71.3483 24.1717 70.6993 24.1057 69.8428 24.0792C69.361 23.9472 68.819 23.9802 68.2168 24.1783C67.6146 24.3764 67.0057 24.6472 66.3901 24.9906C66.1225 25.1755 65.8749 25.3737 65.6474 25.585C65.4199 25.7963 65.266 25.968 65.1857 26.1001C64.9181 26.3907 64.8311 26.7143 64.9248 27.0709C65.0185 27.4275 65.1724 27.7511 65.3865 28.0417C65.5203 28.2266 65.6407 28.3719 65.7478 28.4776C65.8549 28.5832 65.9485 28.6889 66.0288 28.7946L65.8682 29.1314C65.7612 29.3559 65.6407 29.5871 65.5069 29.8248C65.0519 30.8815 64.5701 32.024 64.0616 33.2523C63.5531 34.4807 63.1115 35.643 62.7368 36.7393C62.3621 37.8356 62.1212 38.7007 62.0141 39.3347C62.0409 39.414 62.0676 39.6055 62.0944 39.9093C62.1212 40.2131 62.0676 40.4178 61.9338 40.5235C61.7732 40.5763 61.6528 40.6621 61.5725 40.781C61.4922 40.8999 61.4387 40.9857 61.4119 41.0386L61.2313 41.5537C61.1108 41.8971 61.0238 42.3198 60.9703 42.8217C60.4885 44.1161 60.0737 45.3511 59.7257 46.5266C59.3778 47.7021 59.1369 48.5937 59.0031 49.2013C58.9763 49.7032 59.1235 50.139 59.4447 50.5089C59.7659 50.8787 60.0469 51.1825 60.2878 51.4202C60.5822 51.6316 60.7963 51.7967 60.9301 51.9155ZM66.9828 41.5459L67.8836 42L68.8254 41.1743C69.6171 40.9266 70.4019 40.5482 71.18 40.039C71.958 39.5299 72.6882 38.9175 73.3707 38.2019C74.0532 37.4863 74.6128 36.7295 75.0496 35.9313C75.268 35.7662 75.4727 35.4978 75.6638 35.1263C75.8549 34.7547 76.0187 34.5277 76.1552 34.4451C76.4009 34.1424 76.5715 33.9084 76.667 33.7433C76.7626 33.5781 76.7421 33.3717 76.6056 33.124C76.6056 32.9038 76.6397 32.6905 76.708 32.4841C76.7762 32.2777 76.8376 32.0782 76.8922 31.8855C77.0287 31.5002 77.0356 31.1562 76.9127 30.8534C76.7899 30.5507 76.3872 30.2066 75.7047 29.8213C75.4591 29.6562 75.2065 29.5117 74.9472 29.3879C74.6879 29.264 74.4149 29.1402 74.1282 29.0163C73.8416 28.8925 73.5208 28.748 73.1659 28.5828C72.7292 28.5828 72.2856 28.4796 71.8351 28.2732C71.3847 28.0668 71.0366 27.9773 70.7909 28.0049C70.6545 28.0324 70.5248 28.1906 70.4019 28.4796C70.2791 28.7686 70.1494 29.1746 70.0129 29.6975C69.9037 30.1378 69.7741 30.53 69.6239 30.8741C69.4738 31.2181 69.2895 31.4452 69.0711 31.5552C69.0438 31.6653 68.921 32.0507 68.7026 32.7112C68.4842 33.3717 68.2249 34.1492 67.9246 35.0437L67.0237 37.7271C66.7234 38.6216 66.4777 39.3854 66.2866 40.0184C66.0955 40.6514 66 41.023 66 41.133C66 41.1881 66.0887 41.2844 66.2662 41.422C66.4436 41.5596 66.6006 41.6422 66.7371 41.6697L66.7575 41.6491L66.819 41.5872C66.8736 41.5321 66.9282 41.5184 66.9828 41.5459ZM85.4477 52C86.7478 51.9736 88.2204 51.8087 89.8655 51.5052C91.5106 51.2017 93.0363 50.6805 94.4425 49.9415C95.3181 49.4401 96.081 48.8727 96.731 48.2393C97.3811 47.6059 97.8654 47.0056 98.1838 46.4382C98.5022 45.8708 98.5818 45.4551 98.4226 45.1912C98.396 45.0592 98.197 44.9471 97.8256 44.8547C97.4541 44.7624 96.9897 44.7689 96.4325 44.8745C95.8753 44.9801 95.3181 45.2704 94.7609 45.7454C94.4691 45.9829 94.2568 46.1677 94.1241 46.2996C93.9915 46.4316 93.9649 46.4316 94.0445 46.2996C93.9119 46.2996 93.8124 46.3524 93.746 46.458C93.6797 46.5635 93.5404 46.6691 93.3281 46.7746C93.1955 46.8802 92.824 47.0781 92.2137 47.3684C91.6034 47.6587 90.5156 47.9358 88.9501 48.1997C88.3133 48.4636 87.7428 48.5692 87.2387 48.5164C86.7345 48.4636 86.2171 48.4241 85.6865 48.3977C84.7843 48.1338 84.1011 47.7841 83.6367 47.3486C83.1724 46.9132 82.8341 46.392 82.6218 45.785C82.5157 45.4947 82.4759 45.0856 82.5024 44.5578C82.529 44.03 82.6152 43.4626 82.7611 42.8556C82.9071 42.2486 83.0729 41.6812 83.2586 41.1534C83.4444 40.6256 83.65 40.21 83.8755 39.9065C84.1011 39.603 84.3067 39.504 84.4924 39.6096C84.4394 40.1374 84.8639 40.3617 85.7661 40.2825C86.6682 40.2034 87.8489 39.9526 89.3083 39.5304C91.033 39.0554 92.4658 38.6925 93.6067 38.4418C94.7477 38.1911 95.6299 37.9733 96.2534 37.7886C96.877 37.6039 97.2816 37.3664 97.4674 37.0761C97.6531 36.7858 97.6531 36.3767 97.4674 35.8489C97.3082 35.4003 97.0362 35.011 96.6514 34.6811C96.2667 34.3512 95.8886 34.3314 95.5171 34.6217C95.2518 34.6481 94.9533 34.7009 94.6216 34.7801C94.29 34.8592 93.7328 34.9978 92.95 35.1957C92.1673 35.3937 90.9534 35.7037 89.3083 36.126C89.0695 36.1788 88.7577 36.2316 88.373 36.2843C87.9882 36.3371 87.6632 36.4295 87.3979 36.5614C87.2917 36.5614 87.0529 36.5219 86.6815 36.4427L86.1243 36.3239C86.0181 36.192 86.1442 35.8819 86.5024 35.3937C86.8606 34.9054 87.4111 34.1467 88.1541 33.1175L89.0297 31.4548C89.3216 30.9006 89.5604 30.5576 89.7461 30.4256C90.1441 29.8186 90.5089 29.3964 90.8406 29.1589C91.1723 28.9213 91.5636 28.763 92.0147 28.6838C92.4658 28.6046 93.023 28.4991 93.6863 28.3671C94.615 28.156 95.3248 28.0043 95.8156 27.9119C96.3065 27.8195 96.7708 27.7404 97.2087 27.6744C97.6465 27.6084 98.2634 27.5226 99.0594 27.4171C100.147 27.2851 100.943 27.0476 101.447 26.7045C101.952 26.3614 102.111 25.9524 101.925 25.4774C101.713 25.0023 101.427 24.6263 101.069 24.3491C100.711 24.072 100.439 23.9599 100.253 24.0127L99.7559 24.0523C99.4242 24.0786 99.0461 24.0984 98.6216 24.1116C98.197 24.1248 97.8123 24.1182 97.4674 24.0918C96.804 24.171 96.2269 24.2568 95.736 24.3491C95.2452 24.4415 94.9334 24.5669 94.8007 24.7252C94.4823 24.778 94.1175 24.8506 93.7062 24.9429C93.295 25.0353 92.9367 25.1013 92.6316 25.1409C92.3265 25.1805 92.1739 25.1607 92.1739 25.0815C92.0678 24.7912 91.7162 24.6658 91.1192 24.7054C90.5222 24.745 89.9053 25.0155 89.2685 25.5169C88.6582 25.86 88.101 26.2493 87.5969 26.6847C87.0927 27.1202 86.7014 27.5094 86.4228 27.8525C86.1442 28.1956 86.0314 28.4199 86.0845 28.5255C86.2171 28.6838 86.2569 28.8949 86.2039 29.1589C86.1508 29.4228 85.9253 29.7658 85.5273 30.1881C85.315 30.6103 85.0695 31.092 84.7909 31.633C84.5123 32.174 84.373 32.5105 84.373 32.6424L84.3929 32.6622C84.4062 32.6754 84.32 32.7744 84.1342 32.9591C83.8424 33.4341 83.451 34.0609 82.9601 34.8394C82.4693 35.618 81.9784 36.4361 81.4875 37.2938C80.9967 38.1515 80.592 38.9498 80.2736 39.6887C80.0613 40.1638 79.8358 40.8169 79.597 41.6483C79.3582 42.4796 79.1857 43.3043 79.0796 44.1224C78.9735 44.9405 78.9735 45.6003 79.0796 46.1017C79.2388 46.9462 79.4378 47.6257 79.6766 48.1404C79.9154 48.655 80.2603 49.1366 80.7114 49.5853C81.4013 50.0603 82.1575 50.5683 82.98 51.1093C83.8026 51.6503 84.6251 51.9472 85.4477 52ZM111.543 52.9014C111.171 52.9671 110.68 53 110.069 53C109.007 53 108.057 52.9408 107.221 52.8225C106.384 52.7042 105.621 52.3822 104.93 51.8563C104.107 51.2516 103.53 50.3775 103.198 49.2338C102.866 48.0901 102.952 46.585 103.457 44.7183C103.589 44.061 103.742 43.4826 103.915 42.9831C104.087 42.4836 104.24 42.2338 104.373 42.2338C104.399 42.1023 104.439 41.9117 104.492 41.662C104.545 41.4122 104.598 41.1164 104.652 40.7746C104.784 40.3014 104.877 39.9531 104.93 39.7296C104.983 39.5061 105.09 39.3155 105.249 39.1577C105.329 39.1052 105.422 38.9277 105.528 38.6254C105.634 38.323 105.7 38.1455 105.727 38.093L105.767 37.7972C105.793 37.6 105.86 37.37 105.966 37.107C106.364 36.4498 106.564 36.016 106.564 35.8056C106.617 35.7005 106.729 35.5427 106.902 35.3324C107.075 35.1221 107.214 34.846 107.32 34.5042C108.117 33.1108 108.768 31.9606 109.272 31.0535C109.777 30.1465 110.082 29.4432 110.188 28.9437C110.321 28.6545 110.447 28.3061 110.567 27.8986C110.686 27.4911 110.839 27.1822 111.025 26.9718C110.972 26.8404 111.124 26.6958 111.483 26.538C111.841 26.3803 112.313 26.2094 112.897 26.0254C113.481 25.8413 114.105 25.6836 114.769 25.5521C115.433 25.4207 116.044 25.3418 116.602 25.3155C116.761 25.2103 117.113 25.1315 117.657 25.0789C118.202 25.0263 118.832 25 119.549 25C120.266 25 120.93 25.0263 121.541 25.0789C122.125 25.0789 122.59 25.1577 122.935 25.3155L123.971 25.7887L124.057 25.8739L124.391 26.2052L124.528 26.3408C124.767 26.5775 124.92 26.8272 124.987 27.0901C125.053 27.3531 124.874 27.5897 124.449 27.8C124.369 27.8789 123.931 27.9446 123.134 27.9972C122.338 28.0498 121.501 28.0761 120.625 28.0761C119.642 28.0761 118.792 28.1549 118.075 28.3127C117.358 28.4704 116.854 28.5493 116.562 28.5493C116.19 28.6545 115.752 28.7202 115.247 28.7465L114.49 28.7859C114.437 28.7859 114.305 28.9371 114.092 29.2394C113.88 29.5418 113.647 29.8967 113.395 30.3042C113.143 30.7117 112.917 31.0864 112.718 31.4282C112.519 31.77 112.419 31.9803 112.419 32.0592C112.419 32.3221 112.313 32.6113 112.1 32.9268C111.888 33.2423 111.636 33.6103 111.344 34.031C111.078 34.3728 110.905 34.7343 110.826 35.1155C110.746 35.4967 110.826 35.7399 111.065 35.8451C111.49 35.7662 112.08 35.6873 112.837 35.6085C113.594 35.5296 114.344 35.4573 115.088 35.3915C115.831 35.3258 116.402 35.293 116.801 35.293C117.252 35.1615 117.624 35.1352 117.916 35.2141C118.208 35.293 118.421 35.3718 118.553 35.4507C118.872 35.5033 119.065 35.661 119.131 35.9239C119.197 36.1869 119.191 36.4498 119.111 36.7127C119.031 36.9756 118.899 37.1465 118.713 37.2254C118.553 37.3831 118.155 37.5671 117.518 37.7775C116.88 37.9878 116.13 38.1981 115.267 38.4085C114.404 38.6188 113.541 38.8094 112.678 38.9803C111.815 39.1512 111.071 39.2892 110.447 39.3944C109.823 39.4995 109.458 39.539 109.352 39.5127C109.193 39.1446 109.013 39.1512 108.814 39.5324C108.615 39.9136 108.383 40.6826 108.117 41.8394L107.46 43.3183C107.314 43.6469 107.201 44.0019 107.121 44.3831C107.042 44.7643 106.922 45.3624 106.763 46.1775C106.577 46.8873 106.597 47.5249 106.822 48.0901C107.048 48.6554 107.586 49.1352 108.436 49.5296C108.967 49.6347 109.578 49.6742 110.268 49.6479C110.958 49.6216 111.875 49.4639 113.017 49.1746C113.495 48.8854 113.973 48.616 114.451 48.3662C114.929 48.1164 115.261 47.939 115.446 47.8338C115.579 47.8338 115.785 47.7746 116.064 47.6563C116.343 47.538 116.535 47.4789 116.641 47.4789C116.854 47.1897 117.119 47.0451 117.438 47.0451C117.491 47.0451 117.644 47.1634 117.896 47.4C118.148 47.6366 118.394 47.939 118.633 48.307C118.872 48.6751 118.992 49.0563 118.992 49.4507C118.992 49.7136 118.547 50.0554 117.657 50.4761C116.768 50.8967 115.659 51.37 114.331 51.8958C113.667 52.185 113.129 52.4085 112.718 52.5662C112.306 52.7239 111.914 52.8357 111.543 52.9014ZM136.869 53.9152C137.565 54.0642 138.676 54.0168 140.202 53.7731C140.764 53.6647 141.346 53.5496 141.948 53.4277C142.551 53.3059 142.999 53.2043 143.294 53.123C143.722 52.8793 144.083 52.6965 144.378 52.5746L144.792 52.4032L144.819 52.3918C144.953 52.4459 145.141 52.3782 145.382 52.1886C145.622 51.9991 145.837 51.7959 146.024 51.5793C146.479 51.3626 146.814 51.2204 147.028 51.1527C147.242 51.085 147.403 51.0782 147.51 51.1324C147.563 51.1324 147.791 50.936 148.192 50.5433C148.594 50.1506 149.022 49.6969 149.477 49.1823C149.932 48.6677 150.24 48.2344 150.401 47.8823C150.749 47.3677 151.05 46.7989 151.304 46.176C151.558 45.5531 151.719 44.9572 151.786 44.3884C151.853 43.8197 151.766 43.3728 151.525 43.0478C151.311 42.3978 150.956 41.7681 150.461 41.1587C149.966 40.5493 149.41 40.0415 148.795 39.6352C148.58 39.4998 148.239 39.4185 147.771 39.3915L147.068 39.3508C147.657 38.6466 148.045 38.193 148.232 37.9899L148.513 37.6852C149.129 37.0081 149.624 36.3106 149.999 35.5929C150.374 34.8752 150.775 34.2049 151.204 33.5819C151.364 33.4194 151.552 33.0538 151.766 32.485C151.98 31.9163 152.187 31.3001 152.388 30.6365C152.589 29.973 152.703 29.4516 152.729 29.0724C152.944 28.6391 153.031 28.2396 152.99 27.874C152.95 27.5083 152.903 27.1495 152.85 26.7974C152.796 26.4724 152.589 26.1338 152.228 25.7817C151.866 25.4296 151.478 25.1114 151.063 24.827C150.648 24.5426 150.32 24.3598 150.079 24.2786C149.437 23.9536 148.768 23.9129 148.072 24.1567C147.777 24.1296 147.396 24.1432 146.927 24.1973C146.459 24.2515 146.024 24.3463 145.622 24.4817C145.462 24.5359 145.167 24.6442 144.739 24.8067C144.311 24.9692 143.889 25.1385 143.474 25.3145C143.059 25.4906 142.785 25.6057 142.651 25.6599C142.49 25.714 142.236 25.8291 141.888 26.0052C141.54 26.1812 141.172 26.3708 140.784 26.5739C140.396 26.7771 140.068 26.9599 139.8 27.1224C139.533 27.2849 139.399 27.3932 139.399 27.4474C139.399 27.5557 139.425 27.7927 139.479 28.1584C139.533 28.524 139.586 28.7339 139.64 28.7881C139.907 29.086 140.081 29.2959 140.162 29.4178C140.242 29.5396 140.121 29.8037 139.8 30.21C139.693 30.3996 139.539 30.7787 139.338 31.3475C139.138 31.9163 138.944 32.4038 138.756 32.81C138.489 33.2434 138.234 33.67 137.993 34.0898C137.752 34.5096 137.632 34.7872 137.632 34.9226C137.418 35.1393 137.184 35.532 136.929 36.1007C136.675 36.6695 136.441 37.2247 136.227 37.7664L135.825 38.7821C135.825 38.8362 135.758 38.9446 135.624 39.1071C135.49 39.2696 135.397 39.5404 135.343 39.9196C135.29 39.9467 135.136 40.292 134.882 40.9556C134.627 41.6191 134.333 42.4181 133.998 43.3525C133.664 44.2869 133.336 45.201 133.014 46.0947C132.693 46.9885 132.425 47.7062 132.211 48.2479C131.944 48.925 131.93 49.4599 132.171 49.8526C132.412 50.2454 132.64 50.4417 132.854 50.4417C133.148 50.7396 133.362 50.9699 133.496 51.1324C133.63 51.2949 133.777 51.3761 133.938 51.3761C134.206 51.3761 134.467 51.2136 134.721 50.8886C134.975 50.5636 135.316 49.873 135.745 48.8167C135.798 48.4917 135.946 48.0583 136.186 47.5167C136.427 46.975 136.615 46.4604 136.749 45.9729C137.123 45.1603 137.378 44.6187 137.512 44.3478C137.645 44.077 137.819 43.9416 138.034 43.9416C138.167 44.077 138.422 44.1447 138.796 44.1447C139.171 44.1447 139.566 44.0702 139.981 43.9212C140.396 43.7723 140.697 43.5759 140.884 43.3322C141.206 43.278 141.534 43.1629 141.868 42.9869C142.203 42.8108 142.544 42.628 142.892 42.4384C143.267 42.2217 143.601 42.0592 143.896 41.9509C144.19 41.8426 144.592 41.7884 145.1 41.7884C145.609 41.8696 145.97 41.917 146.185 41.9306C146.399 41.9441 146.68 42.0998 147.028 42.3978C147.617 42.9936 147.931 43.6233 147.971 44.2869C148.012 44.9504 147.751 45.7697 147.188 46.7448C146.76 47.4219 146.077 48.0516 145.141 48.6339C144.204 49.2162 143.126 49.6834 141.908 50.0355C140.69 50.3876 139.412 50.5365 138.074 50.4823C136.949 50.5636 136.186 50.699 135.785 50.8886C135.383 51.0782 135.076 51.2407 134.861 51.3761C134.754 51.4574 134.701 51.6808 134.701 52.0464C134.701 52.4121 134.821 52.7032 135.062 52.9199C135.571 53.4345 136.173 53.7663 136.869 53.9152ZM139.004 40.977C139.029 41.0306 139.228 40.9904 139.599 40.8564C139.97 40.7223 140.418 40.5213 140.943 40.2532C141.468 39.9851 141.986 39.6903 142.498 39.3686C143.01 39.0469 143.42 38.7386 143.727 38.4437C144.086 38.1756 144.412 37.8807 144.707 37.5591C145.001 37.2374 145.238 36.9358 145.417 36.6543C145.596 36.3728 145.686 36.1919 145.686 36.1114L145.878 35.6892C146.006 35.4077 146.211 35.0928 146.492 34.7443C146.825 34.3958 147.081 34.0674 147.26 33.7591C147.44 33.4508 147.529 33.2564 147.529 33.176L147.545 33.1432L147.721 32.7739C147.849 32.5058 148.003 32.1975 148.182 31.849C148.413 31.5273 148.592 31.1386 148.72 30.6829C148.848 30.2272 148.937 29.8921 148.989 29.6776C149.04 29.0074 148.918 28.545 148.624 28.2903C148.329 28.0357 147.926 27.9485 147.414 28.029C147.081 28.0826 146.755 28.1295 146.435 28.1697C146.115 28.2099 145.795 28.2702 145.475 28.3506C145.155 28.4311 144.828 28.5651 144.495 28.7528C144.086 29.0208 143.791 29.2822 143.612 29.5369C143.433 29.7916 143.497 29.9323 143.804 29.9591C144.009 29.9591 144.06 30.1468 143.958 30.5221C143.855 30.8974 143.625 31.4067 143.266 32.0501C143.164 32.2646 142.946 32.6935 142.614 33.3369C142.281 33.9802 141.903 34.7241 141.481 35.5686C141.058 36.413 140.655 37.2374 140.271 38.0416C139.887 38.8458 139.573 39.5227 139.33 40.0723C139.087 40.6218 138.978 40.9234 139.004 40.977ZM156.141 51C156.746 50.9468 157.365 50.8803 157.996 50.8005C158.628 50.7207 159.22 50.4947 159.773 50.1223C160.536 49.6702 161.233 49.1782 161.865 48.6463C162.497 48.1144 163.141 47.3697 163.799 46.4122C164.852 44.8963 165.497 43.5598 165.734 42.4029C165.97 41.246 166.049 40.2686 165.97 39.4707C165.891 38.7527 165.727 38.1676 165.477 37.7154C165.227 37.2633 164.799 36.9043 164.194 36.6383C163.799 36.2128 163.293 36 162.674 36C162.056 36 161.457 36.0665 160.878 36.1995C160.299 36.3324 159.727 36.5718 159.161 36.9176C158.595 37.2633 157.983 37.7154 157.325 38.2739C157.01 38.5399 156.661 38.8923 156.279 39.3311C155.898 39.7699 155.549 40.2088 155.233 40.6476C154.917 41.0864 154.681 41.4388 154.523 41.7048C154.128 42.3431 153.819 43.0146 153.595 43.7194C153.371 44.4242 153.286 44.883 153.338 45.0957C153.391 45.3883 153.338 45.5346 153.18 45.5346C153.128 45.641 153.075 45.7141 153.023 45.754C152.97 45.7939 153.009 45.8803 153.141 46.0133L153.161 46.3125C153.174 46.512 153.141 46.7181 153.062 46.9309C152.983 47.383 153.095 47.9149 153.398 48.5266C153.7 49.1383 154.102 49.7101 154.602 50.242C154.891 50.4814 155.134 50.6676 155.332 50.8005C155.529 50.9335 155.799 51 156.141 51ZM157.269 46.649C157.511 46.986 157.911 47.0803 158.467 46.932C159.024 46.7838 159.701 46.3457 160.5 45.6179C161.128 45.1057 161.578 44.5396 161.849 43.9196C162.12 43.2996 162.412 42.5718 162.726 41.7361C162.84 41.5744 162.919 41.3048 162.961 40.9274C163.004 40.55 163.011 40.1794 162.983 39.8154C162.954 39.4515 162.854 39.2426 162.683 39.1887C162.426 39 162.17 38.9528 161.913 39.0472C161.656 39.1415 161.328 39.3235 160.928 39.5931C160.072 40.267 159.281 41.042 158.553 41.9181C157.825 42.7942 157.319 43.8657 157.033 45.1327C156.948 45.8066 157.026 46.312 157.269 46.649ZM182.339 50C182.69 49.9191 183.048 49.71 183.413 49.3727C183.777 49.0355 183.973 48.6915 184 48.3408C183.865 47.99 183.743 47.7 183.635 47.4707C183.527 47.2413 183.44 47.0323 183.372 46.8434C183.305 46.6545 183.244 46.4657 183.19 46.2768L183.17 46.1757C183.156 46.1082 183.163 46.061 183.19 46.034C183.163 45.9531 183.136 45.8924 183.109 45.8519L183.068 45.7912C183.176 45.3056 183.23 44.7592 183.23 44.1522C183.23 43.5451 183.224 42.9381 183.21 42.3311C183.197 41.724 183.203 41.2047 183.23 40.773C183.23 40.6381 183.244 40.483 183.271 40.3076C183.298 40.1322 183.311 39.9906 183.311 39.8827C183.257 39.6668 183.062 39.4308 182.724 39.1745C182.387 38.9182 182.022 38.6956 181.63 38.5067C181.239 38.3179 180.908 38.2234 180.638 38.2234C180.53 38.2234 180.246 38.3381 179.787 38.5674C179.328 38.7967 178.95 39.0193 178.653 39.2352C178.329 39.451 177.897 39.7613 177.357 40.166C176.817 40.5707 176.317 40.9551 175.858 41.3193C175.756 41.4003 175.662 41.4755 175.576 41.5452L175.342 41.737C175.167 41.8827 175.042 41.9931 174.967 42.068C174.751 42.2029 174.495 42.385 174.197 42.6144C173.9 42.8437 173.644 43.0393 173.428 43.2012L173.104 43.444C173.104 43.3091 173.205 43.0595 173.408 42.6953C173.61 42.3311 173.806 41.9331 173.995 41.5014C174.778 40.2334 175.183 39.2082 175.21 38.4258C175.237 37.6434 174.967 37.0094 174.4 36.5237C174.13 36.3079 173.732 36.1528 173.205 36.0583C172.678 35.9639 172.321 35.9841 172.132 36.119H172.051C171.943 36.146 171.862 36.2135 171.808 36.3214C171.754 36.4293 171.74 36.5102 171.767 36.5642C171.659 37.1577 171.524 37.7108 171.362 38.2234C171.2 38.736 170.97 39.3431 170.673 40.0445C170.484 40.4762 170.289 40.9349 170.086 41.4205C169.884 41.9061 169.728 42.3378 169.62 42.7155C169.485 42.9583 169.37 43.1809 169.276 43.3833C169.181 43.5856 169.08 43.7812 168.972 43.9701C168.756 44.4557 168.574 44.8874 168.425 45.2651C168.277 45.6428 168.169 46.007 168.101 46.3578C168.034 46.7085 168 47.0997 168 47.5314C168.054 47.6393 168.209 47.8619 168.466 48.1991C168.722 48.5364 168.945 48.8129 169.134 49.0287C169.404 49.2446 169.661 49.4334 169.904 49.5953C170.147 49.7572 170.376 49.7842 170.592 49.6762C170.889 49.6762 171.18 49.4739 171.463 49.0692C171.747 48.6645 172.186 48.1384 172.78 47.4909C173.536 46.8434 174.272 46.2296 174.987 45.6495C175.703 45.0695 176.392 44.5569 177.053 44.1117C177.715 43.6666 178.329 43.3091 178.896 43.0393C179.247 42.9044 179.497 42.8841 179.646 42.9786C179.794 43.073 179.895 43.3226 179.949 43.7273V44.4962C179.949 44.8199 179.922 45.2044 179.868 45.6495C179.814 46.0947 179.781 46.5534 179.767 47.0255C179.754 47.4976 179.801 47.9496 179.909 48.3812C180.152 49.0018 180.469 49.4132 180.861 49.6155C181.252 49.8179 181.745 49.946 182.339 50ZM196.793 50.9431C196.605 51.0474 196.355 51.0083 196.045 50.8258C195.735 50.6432 195.432 50.3694 195.135 50.0044C194.946 49.6915 194.805 49.372 194.71 49.0461C194.616 48.7201 194.569 48.2312 194.569 47.5793C194.596 47.0578 194.603 46.6993 194.589 46.5037C194.576 46.3081 194.454 46.2951 194.225 46.4646C193.996 46.6341 193.544 47.0317 192.87 47.6576C192.196 48.3095 191.556 48.8636 190.949 49.3199C190.342 49.7762 189.85 49.9913 189.473 49.9653C189.284 49.9653 189.028 49.8479 188.704 49.6132C188.38 49.3786 188.07 49.0852 187.774 48.7332C187.477 48.3812 187.261 48.0487 187.127 47.7358C186.965 47.11 186.958 46.3016 187.106 45.3107C187.255 44.3198 187.504 43.2833 187.855 42.2012C188.205 41.119 188.603 40.1021 189.048 39.1503C189.493 38.1986 189.938 37.4293 190.383 36.8426C190.828 36.2559 191.212 35.9756 191.535 36.0017C191.994 36.0538 192.391 36.2689 192.729 36.647C193.066 37.0251 193.329 37.4358 193.517 37.8791C193.625 38.0617 193.672 38.2181 193.659 38.3485C193.645 38.4789 193.531 38.6353 193.315 38.8179C193.072 39.1308 192.782 39.5806 192.445 40.1673C192.108 40.754 191.771 41.3863 191.434 42.0643C191.097 42.7423 190.801 43.3876 190.544 44.0004C190.288 44.6132 190.106 45.1152 189.998 45.5063C189.891 45.8974 189.891 46.093 189.998 46.093C190.376 46.093 190.726 45.9952 191.05 45.7997C191.374 45.6041 191.778 45.2847 192.263 44.8414C192.83 44.2938 193.329 43.7397 193.76 43.179C194.191 42.6184 194.636 41.973 195.095 41.2429C195.445 40.7214 195.816 40.1477 196.207 39.5219C196.598 38.8961 196.847 38.4528 196.955 38.192L197.805 36.6666C197.993 36.3276 198.223 36.119 198.492 36.0408H199.423C199.584 36.0669 199.773 36.1842 199.989 36.3928C200.205 36.4971 200.427 36.6405 200.656 36.8231C200.885 37.0056 201 37.162 201 37.2924C200.892 37.5532 200.724 37.9378 200.494 38.4463C200.265 38.9548 200.097 39.3263 199.989 39.561C199.476 40.6823 198.984 41.784 198.512 42.8661C198.041 43.9483 197.697 45.05 197.481 46.1712C197.427 46.5363 197.42 46.96 197.461 47.4424C197.501 47.9248 197.575 48.2703 197.683 48.4789C197.764 48.6354 197.865 48.8114 197.987 49.007C198.108 49.2025 198.25 49.3655 198.411 49.4959C198.654 49.6524 198.647 49.8479 198.391 50.0826C198.135 50.3173 197.825 50.5194 197.461 50.6889C197.097 50.8584 196.874 50.9431 196.793 50.9431ZM204.537 51C206.244 51 207.414 50.502 208.047 49.5059C208.681 48.5099 208.519 46.9889 207.562 44.943C207.407 44.62 207.271 44.344 207.155 44.1152C207.039 43.8864 206.955 43.7451 206.903 43.6912C206.722 43.3682 206.56 42.9576 206.418 42.4596C206.276 41.9616 206.205 41.5241 206.205 41.1473C206.205 40.7704 206.289 40.4137 206.457 40.0772C206.625 39.7407 206.838 39.4244 207.097 39.1283C207.459 38.7514 207.86 38.4283 208.299 38.1591C208.739 37.8899 209.159 37.6813 209.56 37.5333C209.96 37.3852 210.251 37.3112 210.432 37.3112C210.561 37.3112 210.652 37.3246 210.704 37.3515C210.755 37.3785 210.781 37.4188 210.781 37.4727C210.781 37.5804 210.665 37.7823 210.432 38.0784C210.199 38.3745 210.083 38.7245 210.083 39.1283C210.083 39.6128 210.251 40.0368 210.587 40.4002C210.923 40.7637 211.292 40.979 211.693 41.0463C212.093 41.1136 212.371 40.9588 212.526 40.5819C212.63 40.3666 212.72 40.1512 212.798 39.9359C212.875 39.7205 212.966 39.5186 213.069 39.3302C213.25 38.9533 213.451 38.6101 213.67 38.3005C213.89 37.9909 214 37.7284 214 37.5131C214 37.0554 213.845 36.4901 213.535 35.8171C213.224 35.1441 212.888 34.6595 212.526 34.3634C212.345 34.2019 211.99 34.101 211.46 34.0606C210.93 34.0202 210.432 34 209.967 34C209.527 34.0538 208.984 34.2288 208.338 34.5249C207.692 34.8211 207.039 35.1845 206.38 35.6152C205.72 36.0459 205.119 36.5036 204.576 36.9881C204.085 37.4458 203.671 37.9101 203.335 38.3812C202.999 38.8523 202.831 39.2763 202.831 39.6532C202.883 40.5685 202.986 41.477 203.141 42.3789C203.296 43.2807 203.697 44.2296 204.343 45.2257C204.499 45.5487 204.628 45.8852 204.731 46.2352C204.835 46.5851 204.886 46.8139 204.886 46.9216C204.835 47.2447 204.615 47.4802 204.227 47.6283C203.839 47.7763 203.4 47.81 202.909 47.7292C202.417 47.6485 201.965 47.46 201.551 47.1639C201.37 47.0293 201.189 46.9082 201.008 46.8005C200.827 46.6928 200.672 46.6255 200.543 46.5986C200.362 46.5986 200.226 46.6524 200.136 46.7601C200.045 46.8678 200 47.0428 200 47.285C200 47.8234 200.207 48.382 200.62 48.9608C201.034 49.5396 201.584 50.0241 202.269 50.4145C202.954 50.8048 203.71 51 204.537 51ZM232 41L232.009 40.9773C232.125 40.6188 232.183 40.3746 232.183 40.2447L232.202 40.0438C232.215 39.9099 232.273 39.8429 232.375 39.8429C232.477 39.7455 232.535 39.6481 232.547 39.5507C232.56 39.4533 232.566 39.3559 232.566 39.2584C232.566 39.2097 232.63 39.0332 232.758 38.7288C232.886 38.4244 233.046 38.0591 233.237 37.6329C233.429 37.2067 233.615 36.8049 233.793 36.4274C233.853 36.3016 233.908 36.1859 233.96 36.0804L233.969 36.0603L234.693 36.053C235.286 36.0469 235.89 36.0408 236.505 36.0347L237.436 36.0256C238.187 36.0183 238.914 36.011 239.614 36.0037L240 36L239.96 36.0833C239.894 36.2206 239.836 36.3366 239.785 36.4312L239.736 36.5187C239.736 36.6161 239.704 36.7135 239.641 36.811C239.577 36.9084 239.545 37.0058 239.545 37.1032C239.545 37.2006 239.513 37.3285 239.449 37.4868C239.385 37.6451 239.353 37.7851 239.353 37.9068C239.251 38.0043 239.155 38.1747 239.065 38.4183C238.976 38.6618 238.931 38.881 238.931 39.0758C238.931 39.2463 238.893 39.4167 238.816 39.5872C238.74 39.7577 238.65 39.8429 238.548 39.8429C238.497 39.916 238.362 40.2508 238.145 40.8475L238.131 40.8877L237.756 40.8921C237.015 40.9008 236.256 40.9118 235.478 40.9249L234.694 40.9388C233.905 40.9534 233.138 40.9702 232.394 40.9892L232 41ZM257.809 51.9454C257.727 52 257.529 52.0136 257.214 51.9864C256.899 51.9591 256.57 51.884 256.227 51.7613C255.885 51.6385 255.618 51.4952 255.426 51.3315C255.317 51.2224 255.207 51.0928 255.097 50.9427C254.988 50.7926 254.94 50.5266 254.954 50.1446C254.967 49.7626 255.056 49.1487 255.221 48.3029C255.33 47.7572 255.467 47.1842 255.632 46.5839C255.796 45.9836 255.947 45.4652 256.084 45.0287L256.289 44.3738C256.426 44.3192 256.625 43.91 256.885 43.146C257.145 42.382 257.44 41.4543 257.768 40.3629C257.878 39.9809 258.07 39.3397 258.344 38.4393C258.617 37.5389 258.891 36.6658 259.165 35.8199C259.412 35.0286 259.645 34.4147 259.864 33.9782L259.994 33.7195L260.156 33.3961L260.193 33.3233L259.699 33.6098C259.371 33.8008 258.946 34.06 258.426 34.3874C257.905 34.7149 257.357 35.0969 256.782 35.5334C256.316 35.8063 255.789 36.1814 255.2 36.6589C254.611 37.1364 254.07 37.5252 253.577 37.8254C252.838 38.3984 252.338 38.7667 252.077 38.9304C251.817 39.0941 251.564 39.1078 251.317 38.9714C250.961 38.6712 250.626 38.2278 250.311 37.6412C249.995 37.0546 249.92 36.6248 250.085 36.352C250.139 36.3247 250.324 36.2019 250.639 35.9836C250.954 35.7653 251.317 35.5061 251.728 35.206C252.139 34.9059 252.516 34.633 252.858 34.3874C253.2 34.1419 253.44 33.9782 253.577 33.8963C253.659 33.8963 253.81 33.8008 254.029 33.6098C254.248 33.4188 254.481 33.2415 254.728 33.0778C254.865 32.9141 255.344 32.5457 256.166 31.9727C256.988 31.3997 257.878 30.7585 258.837 30.0491C259.85 29.4216 260.754 28.9168 261.548 28.5348C262.343 28.1528 262.795 27.9754 262.904 28.0027C262.987 28.0027 263.185 28.0982 263.5 28.2892C263.815 28.4802 264.123 28.6985 264.425 28.9441C264.726 29.1896 264.89 29.3943 264.918 29.558C265.082 29.749 265 30.1855 264.671 30.8677C264.562 31.1132 264.384 31.5566 264.137 32.1978C263.891 32.839 263.624 33.5757 263.336 34.4079C263.048 35.2401 262.774 36.0587 262.514 36.8636C262.254 37.6685 262.042 38.3574 261.877 38.9304C261.658 39.7763 261.459 40.4311 261.281 40.895C261.103 41.3588 260.939 41.8022 260.788 42.2251C260.638 42.648 260.466 43.2278 260.275 43.9645C260.083 44.4011 259.884 44.9536 259.679 45.6221C259.473 46.2906 259.289 46.9454 259.124 47.5866C258.96 48.2278 258.837 48.7531 258.754 49.1623C258.535 49.7626 258.357 50.3492 258.22 50.9222C258.083 51.4952 257.946 51.8363 257.809 51.9454Z" fill="white"/>
</g>
</svg>
