<svg width="26" height="26" viewBox="0 0 26 26" fill="none" xmlns="http://www.w3.org/2000/svg">
<path d="M23.3435 10.1739C23.5696 11.0783 23.7391 11.9826 23.7391 13C23.7391 18.9348 18.9348 23.7391 13 23.7391C7.06522 23.7391 2.26087 18.9348 2.26087 13C2.26087 7.06522 7.06522 2.26087 13 2.26087C15.4304 2.26087 17.6913 3.1087 19.5 4.46522L21.1391 2.82609C18.9348 1.01739 16.1087 0 13.0565 0C5.82174 0 0 5.82174 0 13C0 20.1783 5.82174 26 13 26C20.1783 26 26 20.1783 26 13C26 11.3609 25.7174 9.83478 25.1522 8.42174L23.3435 10.1739Z" fill="#BEBEBE"/>
<path d="M12.7176 18.4261L7.12198 12.8305C6.44372 12.1522 6.44372 11.0783 7.12198 10.4566L8.30893 9.2696L12.6611 13.6218L22.6089 3.67395L23.7959 4.86091C24.4741 5.53917 24.4741 6.61308 23.7959 7.23482L12.7176 18.4261Z" fill="#FFC230"/>
<path d="M12.7169 13.6218C12.0952 14.2435 10.9082 15.4305 10.9082 15.4305L11.5865 12.4913L12.7169 13.6218Z" fill="#E6AD27"/>
</svg>
