<svg width="307" height="62" viewBox="0 0 307 62" fill="none" xmlns="http://www.w3.org/2000/svg">
<path fill-rule="evenodd" clip-rule="evenodd" d="M94.2981 0H9.65117C4.2943 0 -0.0422048 4.38598 0.000309959 9.7088V42.0715C0.000309959 47.4368 4.33682 51.7802 9.69369 51.7802H49.785L68.1091 62L63.9426 51.7802H94.2981C99.6551 51.7802 103.991 47.4368 103.991 42.0715V9.7088C103.991 4.3434 99.6551 0 94.2981 0ZM7.86593 7.4945C6.67551 7.57967 5.78268 8.0055 5.18748 8.81455C4.59228 9.58104 4.37972 10.5604 4.50725 11.6676C7.01562 27.6361 9.35393 38.4094 11.5222 43.9877C12.3725 46.0316 13.3503 47.0112 14.4982 46.926C16.2838 46.7981 18.4096 44.3284 20.918 39.5166C22.2359 36.7911 24.2766 32.7034 27.0401 27.2527C29.3358 35.3008 32.4818 41.3477 36.4359 45.3929C37.5414 46.5426 38.6892 47.0536 39.7944 46.9684C40.7725 46.8833 41.5375 46.3722 42.0477 45.4354C42.4729 44.6264 42.643 43.6895 42.558 42.625C42.3028 38.7501 42.6856 33.3421 43.7485 26.4011C44.8537 19.2473 46.2142 14.0948 47.8723 11.0288C48.2125 10.3901 48.3399 9.75136 48.2975 8.98489C48.2125 8.00547 47.7873 7.19643 46.9796 6.55769C46.1719 5.91896 45.2788 5.62089 44.3011 5.70603C43.0682 5.7912 42.1328 6.38735 41.4951 7.57967C38.8593 12.3915 36.9885 20.1841 35.8833 31C34.2676 26.9121 32.907 22.1003 31.8442 16.4368C31.3766 13.9245 30.2288 12.7321 28.358 12.8599C27.0826 12.945 26.0197 13.7967 25.1694 15.4148L15.8587 33.1717C14.3282 26.9973 12.8827 19.4602 11.5647 10.5604C11.2671 8.34616 10.0342 7.32416 7.86593 7.4945ZM89.7919 10.5606C92.8106 11.1993 95.0639 12.8175 96.5943 15.5001C97.9548 17.7996 98.6348 20.5675 98.6348 23.8889C98.6348 28.2748 97.5297 32.2776 95.3187 35.9397C92.7679 40.198 89.4518 42.327 85.3279 42.327C84.6052 42.327 83.8399 42.2418 83.0319 42.0715C80.0136 41.4328 77.7602 39.8148 76.2296 37.1321C74.8693 34.79 74.189 31.9796 74.189 28.7006C74.189 24.3147 75.2944 20.3119 77.5051 16.6925C80.0986 12.4342 83.4147 10.3051 87.4962 10.3051C88.2189 10.3051 88.9842 10.3903 89.7919 10.5606ZM88.0064 33.5976C89.5794 32.1924 90.6423 30.1058 91.2375 27.2954C91.4076 26.3161 91.535 25.2515 91.535 24.1444C91.535 22.9095 91.2799 21.5894 90.7697 20.2694C90.132 18.6087 89.2817 17.7144 88.2612 17.5015C86.7309 17.2034 85.2429 18.0551 83.8399 20.1416C82.6921 21.7598 81.9691 23.4631 81.5866 25.2089C81.3739 26.1884 81.2888 27.253 81.2888 28.3175C81.2888 29.5524 81.5439 30.8724 82.0541 32.1924C82.6921 33.8531 83.5421 34.7473 84.5626 34.9603C85.6254 35.1731 86.7732 34.7048 88.0064 33.5976ZM69.9374 15.5001C68.4068 12.8175 66.1111 11.1993 63.1351 10.5606C62.3271 10.3903 61.5621 10.3051 60.8391 10.3051C56.7579 10.3051 53.4418 12.4342 50.8483 16.6925C48.6374 20.3119 47.5322 24.3147 47.5322 28.7006C47.5322 31.9796 48.2125 34.79 49.5728 37.1321C51.1034 39.8148 53.3567 41.4328 56.3751 42.0715C57.1828 42.2418 57.9482 42.327 58.6711 42.327C62.7949 42.327 66.1111 40.198 68.6619 35.9397C70.8728 32.2776 71.978 28.2748 71.978 23.8889C71.978 20.5675 71.2977 17.7996 69.9374 15.5001ZM64.5804 27.2954C63.9854 30.1058 62.9224 32.1924 61.3493 33.5976C60.1164 34.7048 58.9686 35.1731 57.9058 34.9603C56.8853 34.7473 56.035 33.8531 55.3973 32.1924C54.8871 30.8724 54.632 29.5524 54.632 28.3175C54.632 27.253 54.717 26.1884 54.9298 25.2089C55.3123 23.4631 56.035 21.7598 57.1828 20.1416C58.5861 18.0551 60.0741 17.2034 61.6044 17.5015C62.6249 17.7144 63.4752 18.6087 64.1129 20.2694C64.6231 21.5894 64.8782 22.9095 64.8782 24.1444C64.8782 25.2515 64.7932 26.3161 64.5804 27.2954Z" fill="#7F54B3"/>
<path fill-rule="evenodd" clip-rule="evenodd" d="M135.07 14.819C137.281 12.2214 140.342 10.9014 144.253 10.9014C148.419 10.9014 151.608 12.2214 153.861 14.819C156.072 17.4591 157.177 21.2063 157.177 26.0607C157.177 30.9152 156.072 34.7049 153.904 37.3877C151.735 40.0705 148.632 41.4329 144.593 41.4329C140.427 41.4329 137.238 40.0705 135.07 37.3877C132.901 34.7049 131.796 30.83 131.796 25.7627C131.796 21.0786 132.859 17.4165 135.07 14.819ZM110.496 25.8478C110.496 21.5044 111.899 17.9275 114.748 15.1171C117.596 12.3066 121.167 10.9014 125.504 10.944C127.162 10.944 128.735 11.1143 130.138 11.4975V18.3959C128.607 17.9701 127.204 17.7572 125.887 17.7572C123.846 17.7572 122.188 18.5237 120.827 20.0992C119.509 21.6322 118.829 23.6335 118.829 26.0607C118.829 28.6583 119.509 30.7022 120.87 32.2352C122.23 33.7256 124.016 34.4922 126.269 34.4922C127.375 34.4922 128.65 34.2791 130.138 33.8532V40.7516C128.522 41.2202 127.034 41.433 125.716 41.433C121.167 41.433 117.511 39.9853 114.705 37.1322C111.899 34.2791 110.496 30.4894 110.496 25.8478ZM147.612 33.0442C146.846 34.2366 145.698 34.8328 144.253 34.8328C142.892 34.8328 141.872 34.2366 141.149 33.0442C140.427 31.8518 140.087 29.4673 140.087 25.8478C140.087 20.2695 141.489 17.5016 144.338 17.5016C147.314 17.5016 148.844 20.3121 148.844 25.9756C148.802 29.4673 148.377 31.8518 147.612 33.0442ZM176.649 18.2256L178.18 11.7104H188.298L192.21 40.7091H184.472L182.389 20.7805L177.542 40.7091H172.27L167.211 20.7379L165.213 40.7091H157.815L161.514 11.7104H171.377C172.78 17.9701 173.886 23.3355 174.694 27.8493L175.544 23.3355C175.884 21.5896 176.267 19.8863 176.649 18.2256ZM213.594 11.7104L212.064 18.2256C211.681 19.8863 211.299 21.5896 210.959 23.3355L210.108 27.8493C209.301 23.3355 208.195 17.9701 206.792 11.7104H196.929L193.23 40.7091H200.627L202.626 20.7379L207.685 40.7091H212.957L217.761 20.7805L219.844 40.7091H227.582L223.671 11.7104H213.594ZM244.588 29.2545H237.658V34.5773H245.693V40.7516H229.835V11.753H245.651V17.9275H237.658V23.2503H244.588V29.2545ZM267.716 24.6555C268.524 23.3355 268.949 21.9728 268.949 20.5676C268.949 17.8423 267.886 15.6706 265.76 14.0951C263.634 12.5195 260.701 11.7104 257.045 11.7104H247.946V40.7091H255.769V27.5086H255.897L262.231 40.7091H270.479L264.23 27.6362C265.718 26.955 266.908 25.9756 267.716 24.6555ZM255.727 17.2887V24.1871C259.17 24.1445 260.913 23.1225 260.913 21.1212C260.913 19.7585 260.531 18.8217 259.723 18.2256C258.915 17.6294 257.597 17.3313 255.727 17.2887ZM273.539 15.1171C270.692 17.9275 269.289 21.5044 269.289 25.8478C269.289 30.4894 270.692 34.2791 273.499 37.1322C276.305 39.9853 279.959 41.433 284.51 41.433C285.827 41.433 287.316 41.2202 288.93 40.7516V33.8532C287.444 34.2791 286.167 34.4922 285.061 34.4922C282.809 34.4922 281.024 33.7256 279.663 32.2352C278.302 30.7022 277.623 28.6583 277.623 26.0607C277.623 23.6335 278.302 21.6322 279.62 20.0992C280.981 18.5237 282.638 17.7572 284.678 17.7572C285.996 17.7572 287.4 17.9701 288.93 18.3959V11.4975C287.528 11.1143 285.955 10.944 284.298 10.944C280.003 10.9014 276.389 12.3066 273.539 15.1171ZM298.922 29.2118V34.4922V34.5346H307V40.7091H291.142V11.7104H306.956V17.8849H298.922V23.2077H305.85V29.2118H298.922Z" fill="black"/>
</svg>
