<svg width="144" height="144" viewBox="0 0 144 144" fill="none" xmlns="http://www.w3.org/2000/svg">
<g clip-path="url(#clip0_0_1653)">
<path fill-rule="evenodd" clip-rule="evenodd" d="M144 72C144 78.2609 137.05 83.3322 135.485 89.0296C133.92 94.727 137.301 102.866 134.358 107.812C131.416 112.758 122.713 114.073 118.456 118.268C114.198 122.463 113.197 131.103 108 134.17C102.803 137.238 94.9148 133.732 89.2174 135.297C83.52 136.863 78.2609 144 72 144C65.7391 144 60.6678 137.05 54.9704 135.485C49.273 133.92 41.1339 137.301 36.1878 134.358C31.2417 131.416 29.927 122.713 25.7322 118.456C21.5374 114.198 12.647 113.259 9.3913 108C6.13565 102.741 9.82957 94.9148 8.26435 89.2174C6.69913 83.52 0 78.2609 0 72C0 65.7391 6.94957 60.6678 8.51478 54.9704C10.08 49.273 6.69913 41.1339 9.64174 36.1878C12.5843 31.2417 21.287 29.927 25.5443 25.7322C29.8017 21.5374 30.7409 12.647 36 9.3913C41.2591 6.13565 49.0852 9.82957 54.7826 8.26435C60.48 6.69913 65.7391 0 72 0C78.2609 0 83.3322 6.94957 89.0296 8.51478C94.727 10.08 102.866 6.69913 107.812 9.64174C112.758 12.5843 114.073 21.287 118.268 25.5443C122.463 29.8017 131.103 30.8035 134.17 36C137.238 41.1965 133.732 49.0852 135.297 54.7826C136.863 60.48 144 65.7391 144 72Z" fill="#D52917" stroke="#AA1D0E" stroke-width="3" stroke-linecap="round" stroke-linejoin="round"/>
<path d="M50.3708 64.2C50.3708 66.3333 49.7174 68.0933 48.4108 69.48C47.1041 70.8667 45.3174 71.7467 43.0508 72.12C42.9174 72.1733 42.8508 72.2533 42.8508 72.36L42.8908 74.96C42.8908 75.0933 42.8374 75.2 42.7308 75.28C42.6508 75.3867 42.5441 75.44 42.4108 75.44H38.4108C38.2774 75.44 38.1574 75.3867 38.0508 75.28C37.9708 75.2 37.9308 75.0933 37.9308 74.96L37.9708 72.32C37.9708 72.2133 37.9041 72.1333 37.7708 72.08C35.5041 71.6267 33.7174 70.6933 32.4108 69.28C31.1308 67.8667 30.4908 66.0933 30.4908 63.96V63.08C30.4908 62.9467 30.5308 62.84 30.6108 62.76C30.7174 62.6533 30.8374 62.6 30.9708 62.6H35.2908C35.4241 62.6 35.5308 62.6533 35.6108 62.76C35.7174 62.84 35.7708 62.9467 35.7708 63.08V63.68C35.7708 64.7467 36.2374 65.6533 37.1708 66.4C38.1041 67.12 39.3841 67.48 41.0108 67.48C42.3708 67.48 43.3708 67.1867 44.0108 66.6C44.6774 65.9867 45.0108 65.24 45.0108 64.36C45.0108 63.72 44.8108 63.1867 44.4108 62.76C44.0108 62.3067 43.4508 61.92 42.7308 61.6C42.0374 61.2533 40.9308 60.7867 39.4108 60.2C37.6774 59.5867 36.2241 58.96 35.0508 58.32C33.8774 57.68 32.8774 56.8133 32.0508 55.72C31.2508 54.6 30.8508 53.2267 30.8508 51.6C30.8508 49.5467 31.4641 47.8533 32.6908 46.52C33.9441 45.16 35.6241 44.28 37.7308 43.88C37.8641 43.8267 37.9308 43.7467 37.9308 43.64L37.8508 40.72C37.8508 40.5867 37.8908 40.48 37.9708 40.4C38.0774 40.2933 38.1974 40.24 38.3308 40.24H42.3308C42.4641 40.24 42.5708 40.2933 42.6508 40.4C42.7574 40.48 42.8108 40.5867 42.8108 40.72L42.7708 43.72C42.7708 43.8267 42.8374 43.9067 42.9708 43.96C45.1841 44.4133 46.9441 45.3867 48.2508 46.88C49.5574 48.3467 50.2108 50.1467 50.2108 52.28V52.88C50.2108 53.0133 50.1574 53.1333 50.0508 53.24C49.9708 53.32 49.8641 53.36 49.7308 53.36H45.3708C45.2374 53.36 45.1174 53.32 45.0108 53.24C44.9308 53.1333 44.8908 53.0133 44.8908 52.88V52.56C44.8908 51.44 44.4508 50.4933 43.5708 49.72C42.6908 48.92 41.4908 48.52 39.9708 48.52C38.7708 48.52 37.8374 48.7867 37.1708 49.32C36.5041 49.8533 36.1708 50.5867 36.1708 51.52C36.1708 52.1867 36.3574 52.7467 36.7308 53.2C37.1308 53.6533 37.7174 54.0667 38.4908 54.44C39.2641 54.8133 40.4641 55.2933 42.0908 55.88C43.8774 56.5467 45.2908 57.1467 46.3308 57.68C47.3708 58.2133 48.3041 59.0133 49.1308 60.08C49.9574 61.1467 50.3708 62.52 50.3708 64.2ZM71.0214 58.64C71.5547 59.8667 71.8214 61.28 71.8214 62.88C71.8214 64.32 71.5814 65.6533 71.1014 66.88C70.4614 68.5867 69.3814 69.92 67.8614 70.88C66.3681 71.84 64.5947 72.32 62.5414 72.32C60.5147 72.32 58.7281 71.8133 57.1814 70.8C55.6614 69.7867 54.5681 68.4133 53.9014 66.68C53.5281 65.64 53.3147 64.52 53.2614 63.32C53.2614 63 53.4214 62.84 53.7414 62.84H58.4614C58.7814 62.84 58.9414 63 58.9414 63.32C59.0481 64.2 59.1947 64.8533 59.3814 65.28C59.6214 65.9733 60.0081 66.52 60.5414 66.92C61.1014 67.2933 61.7547 67.48 62.5014 67.48C63.9947 67.48 65.0214 66.8267 65.5814 65.52C65.9547 64.72 66.1414 63.7867 66.1414 62.72C66.1414 61.4667 65.9414 60.44 65.5414 59.64C64.9281 58.3867 63.9014 57.76 62.4614 57.76C62.1681 57.76 61.8614 57.8533 61.5414 58.04C61.2214 58.2 60.8347 58.44 60.3814 58.76C60.2747 58.84 60.1681 58.88 60.0614 58.88C59.9014 58.88 59.7814 58.8 59.7014 58.64L57.3414 55.32C57.2881 55.24 57.2614 55.1467 57.2614 55.04C57.2614 54.88 57.3147 54.7467 57.4214 54.64L63.7814 49.08C63.8347 49.0267 63.8481 48.9733 63.8214 48.92C63.8214 48.8667 63.7814 48.84 63.7014 48.84H54.3014C54.1681 48.84 54.0481 48.8 53.9414 48.72C53.8614 48.6133 53.8214 48.4933 53.8214 48.36V44.48C53.8214 44.3467 53.8614 44.24 53.9414 44.16C54.0481 44.0533 54.1681 44 54.3014 44H70.9814C71.1147 44 71.2214 44.0533 71.3014 44.16C71.4081 44.24 71.4614 44.3467 71.4614 44.48V48.88C71.4614 49.0933 71.3681 49.2933 71.1814 49.48L65.9414 54.28C65.8881 54.3333 65.8614 54.3867 65.8614 54.44C65.8881 54.4933 65.9547 54.52 66.0614 54.52C68.3814 54.9733 70.0347 56.3467 71.0214 58.64ZM78.503 72C78.103 72 77.9696 71.8133 78.103 71.44L86.783 49.08C86.8363 48.92 86.783 48.84 86.623 48.84H79.143C79.0096 48.84 78.943 48.9067 78.943 49.04V50.88C78.943 51.0133 78.8896 51.1333 78.783 51.24C78.703 51.32 78.5963 51.36 78.463 51.36H74.823C74.6896 51.36 74.5696 51.32 74.463 51.24C74.383 51.1333 74.343 51.0133 74.343 50.88L74.383 44.48C74.383 44.3467 74.423 44.24 74.503 44.16C74.6096 44.0533 74.7296 44 74.863 44H92.343C92.4763 44 92.583 44.0533 92.663 44.16C92.7696 44.24 92.823 44.3467 92.823 44.48V48.52C92.823 48.68 92.783 48.88 92.703 49.12L84.063 71.64C83.983 71.88 83.7963 72 83.503 72H78.503ZM113.027 59.24C113.427 60.5467 113.627 61.8133 113.627 63.04C113.627 64.4 113.413 65.6267 112.987 66.72C112.373 68.4267 111.293 69.7867 109.747 70.8C108.2 71.7867 106.387 72.28 104.307 72.28C102.28 72.28 100.493 71.8 98.9467 70.84C97.4267 69.8533 96.3467 68.52 95.7067 66.84C95.4401 66.1467 95.2401 65.4133 95.1067 64.64V64.56C95.1067 64.2667 95.2667 64.12 95.5867 64.12H100.427C100.693 64.12 100.867 64.2667 100.947 64.56C100.973 64.72 101.013 64.8533 101.067 64.96C101.12 65.0667 101.16 65.16 101.187 65.24C101.453 65.9333 101.853 66.4667 102.387 66.84C102.92 67.2133 103.547 67.4 104.267 67.4C105.013 67.4 105.667 67.2 106.227 66.8C106.787 66.4 107.2 65.84 107.467 65.12C107.733 64.5867 107.867 63.8933 107.867 63.04C107.867 62.2667 107.747 61.5733 107.507 60.96C107.32 60.2667 106.947 59.7333 106.387 59.36C105.827 58.9867 105.173 58.8 104.427 58.8C103.68 58.8 102.987 58.9733 102.347 59.32C101.707 59.6667 101.28 60.12 101.067 60.68C100.987 60.9467 100.813 61.08 100.547 61.08H95.6267C95.4934 61.08 95.3734 61.04 95.2667 60.96C95.1867 60.8533 95.1467 60.7333 95.1467 60.6V44.48C95.1467 44.3467 95.1867 44.24 95.2667 44.16C95.3734 44.0533 95.4934 44 95.6267 44H112.147C112.28 44 112.387 44.0533 112.467 44.16C112.573 44.24 112.627 44.3467 112.627 44.48V48.36C112.627 48.4933 112.573 48.6133 112.467 48.72C112.387 48.8 112.28 48.84 112.147 48.84H100.987C100.853 48.84 100.787 48.9067 100.787 49.04L100.747 54.96C100.747 55.1467 100.827 55.1867 100.987 55.08C102.187 54.3067 103.573 53.92 105.147 53.92C107.013 53.92 108.64 54.4 110.027 55.36C111.44 56.2933 112.44 57.5867 113.027 59.24Z" fill="white"/>
<path d="M44.6811 101C44.5344 101 44.4391 100.927 44.3951 100.78L39.8631 85.908L39.8411 85.82C39.8411 85.6733 39.9217 85.6 40.0831 85.6H42.8551C43.0164 85.6 43.1191 85.6733 43.1631 85.82L46.0891 96.556C46.1037 96.6 46.1257 96.622 46.1551 96.622C46.1844 96.622 46.2064 96.6 46.2211 96.556L49.1031 85.82C49.1471 85.6733 49.2497 85.6 49.4111 85.6H52.1171C52.2051 85.6 52.2711 85.6293 52.3151 85.688C52.3591 85.7467 52.3664 85.82 52.3371 85.908L47.7391 100.78C47.6951 100.927 47.5997 101 47.4531 101H44.6811ZM61.8517 101C61.7051 101 61.6097 100.927 61.5657 100.78L60.9057 98.624C60.8764 98.5653 60.8397 98.536 60.7957 98.536H55.3837C55.3397 98.536 55.3031 98.5653 55.2737 98.624L54.6357 100.78C54.5917 100.927 54.4964 101 54.3497 101H51.5557C51.4677 101 51.4017 100.978 51.3577 100.934C51.3137 100.875 51.3064 100.795 51.3357 100.692L56.0877 85.82C56.1317 85.6733 56.2271 85.6 56.3737 85.6H59.8277C59.9744 85.6 60.0697 85.6733 60.1137 85.82L64.8657 100.692C64.8804 100.721 64.8877 100.758 64.8877 100.802C64.8877 100.934 64.8071 101 64.6457 101H61.8517ZM56.0657 96.006C56.0511 96.094 56.0804 96.138 56.1537 96.138H60.0257C60.1137 96.138 60.1431 96.094 60.1137 96.006L58.1337 89.472C58.1191 89.4133 58.0971 89.3913 58.0677 89.406C58.0384 89.406 58.0164 89.428 58.0017 89.472L56.0657 96.006ZM67.0855 101C67.0122 101 66.9462 100.978 66.8875 100.934C66.8435 100.875 66.8215 100.809 66.8215 100.736V85.864C66.8215 85.7907 66.8435 85.732 66.8875 85.688C66.9462 85.6293 67.0122 85.6 67.0855 85.6H69.6595C69.7328 85.6 69.7915 85.6293 69.8355 85.688C69.8942 85.732 69.9235 85.7907 69.9235 85.864V98.228C69.9235 98.3013 69.9602 98.338 70.0335 98.338H77.2275C77.3008 98.338 77.3595 98.3673 77.4035 98.426C77.4622 98.47 77.4915 98.5287 77.4915 98.602V100.736C77.4915 100.809 77.4622 100.875 77.4035 100.934C77.3595 100.978 77.3008 101 77.2275 101H67.0855ZM84.9993 101.176C83.87 101.176 82.8727 100.956 82.0073 100.516C81.1567 100.076 80.4893 99.46 80.0053 98.668C79.536 97.8613 79.3013 96.9373 79.3013 95.896V85.864C79.3013 85.7907 79.3233 85.732 79.3673 85.688C79.426 85.6293 79.492 85.6 79.5653 85.6H82.1393C82.2127 85.6 82.2713 85.6293 82.3153 85.688C82.374 85.732 82.4033 85.7907 82.4033 85.864V95.918C82.4033 96.6953 82.638 97.326 83.1073 97.81C83.5913 98.2793 84.222 98.514 84.9993 98.514C85.7767 98.514 86.4 98.2793 86.8693 97.81C87.3533 97.326 87.5953 96.6953 87.5953 95.918V85.864C87.5953 85.7907 87.6173 85.732 87.6613 85.688C87.72 85.6293 87.786 85.6 87.8593 85.6H90.4333C90.5067 85.6 90.5653 85.6293 90.6093 85.688C90.668 85.732 90.6973 85.7907 90.6973 85.864V95.896C90.6973 96.9373 90.4553 97.8613 89.9713 98.668C89.502 99.46 88.8347 100.076 87.9693 100.516C87.1187 100.956 86.1287 101.176 84.9993 101.176ZM103.939 87.998C103.939 88.0713 103.91 88.1373 103.851 88.196C103.807 88.24 103.749 88.262 103.675 88.262H96.4593C96.3859 88.262 96.3493 88.2987 96.3493 88.372V91.782C96.3493 91.8553 96.3859 91.892 96.4593 91.892H101.189C101.263 91.892 101.321 91.9213 101.365 91.98C101.424 92.024 101.453 92.0827 101.453 92.156V94.29C101.453 94.3633 101.424 94.4293 101.365 94.488C101.321 94.532 101.263 94.554 101.189 94.554H96.4593C96.3859 94.554 96.3493 94.5907 96.3493 94.664V98.228C96.3493 98.3013 96.3859 98.338 96.4593 98.338H103.675C103.749 98.338 103.807 98.3673 103.851 98.426C103.91 98.47 103.939 98.5287 103.939 98.602V100.736C103.939 100.809 103.91 100.875 103.851 100.934C103.807 100.978 103.749 101 103.675 101H93.5113C93.4379 101 93.3719 100.978 93.3133 100.934C93.2693 100.875 93.2473 100.809 93.2473 100.736V85.864C93.2473 85.7907 93.2693 85.732 93.3133 85.688C93.3719 85.6293 93.4379 85.6 93.5113 85.6H103.675C103.749 85.6 103.807 85.6293 103.851 85.688C103.91 85.732 103.939 85.7907 103.939 85.864V87.998Z" fill="white"/>
</g>
<defs>
<clipPath id="clip0_0_1653">
<rect width="144" height="144" fill="white"/>
</clipPath>
</defs>
</svg>
