<svg width="144" height="144" viewBox="0 0 144 144" fill="none" xmlns="http://www.w3.org/2000/svg">
<g id="images/badge copy 3" clip-path="url(#clip0_0_1790)">
<path id="images/badge" fill-rule="evenodd" clip-rule="evenodd" d="M144 72C144 78.2609 137.05 83.3322 135.485 89.0296C133.92 94.727 137.301 102.866 134.358 107.812C131.416 112.758 122.713 114.073 118.456 118.268C114.198 122.463 113.197 131.103 108 134.17C102.803 137.238 94.9148 133.732 89.2174 135.297C83.52 136.863 78.2609 144 72 144C65.7391 144 60.6678 137.05 54.9704 135.485C49.273 133.92 41.1339 137.301 36.1878 134.358C31.2417 131.416 29.927 122.713 25.7322 118.456C21.5374 114.198 12.647 113.259 9.3913 108C6.13565 102.741 9.82957 94.9148 8.26435 89.2174C6.69913 83.52 0 78.2609 0 72C0 65.7391 6.94957 60.6678 8.51478 54.9704C10.08 49.273 6.69913 41.1339 9.64174 36.1878C12.5843 31.2417 21.287 29.927 25.5443 25.7322C29.8017 21.5374 30.7409 12.647 36 9.3913C41.2591 6.13565 49.0852 9.82957 54.7826 8.26435C60.48 6.69913 65.7391 0 72 0C78.2609 0 83.3322 6.94957 89.0296 8.51478C94.727 10.08 102.866 6.69913 107.812 9.64174C112.758 12.5843 114.073 21.287 118.268 25.5443C122.463 29.8017 131.103 30.8035 134.17 36C137.238 41.1965 133.732 49.0852 135.297 54.7826C136.863 60.48 144 65.7391 144 72Z" fill="#D52917" stroke="#AA1D0E" stroke-width="3" stroke-linecap="round" stroke-linejoin="round"/>
<path id="$94" d="M58.6403 64.2C58.6403 66.3333 57.987 68.0933 56.6803 69.48C55.3736 70.8667 53.587 71.7467 51.3203 72.12C51.187 72.1733 51.1203 72.2533 51.1203 72.36L51.1603 74.96C51.1603 75.0933 51.107 75.2 51.0003 75.28C50.9203 75.3867 50.8136 75.44 50.6803 75.44H46.6803C46.547 75.44 46.427 75.3867 46.3203 75.28C46.2403 75.2 46.2003 75.0933 46.2003 74.96L46.2403 72.32C46.2403 72.2133 46.1736 72.1333 46.0403 72.08C43.7736 71.6267 41.987 70.6933 40.6803 69.28C39.4003 67.8667 38.7603 66.0933 38.7603 63.96V63.08C38.7603 62.9467 38.8003 62.84 38.8803 62.76C38.987 62.6533 39.107 62.6 39.2403 62.6H43.5603C43.6936 62.6 43.8003 62.6533 43.8803 62.76C43.987 62.84 44.0403 62.9467 44.0403 63.08V63.68C44.0403 64.7467 44.507 65.6533 45.4403 66.4C46.3736 67.12 47.6536 67.48 49.2803 67.48C50.6403 67.48 51.6403 67.1867 52.2803 66.6C52.947 65.9867 53.2803 65.24 53.2803 64.36C53.2803 63.72 53.0803 63.1867 52.6803 62.76C52.2803 62.3067 51.7203 61.92 51.0003 61.6C50.307 61.2533 49.2003 60.7867 47.6803 60.2C45.947 59.5867 44.4936 58.96 43.3203 58.32C42.147 57.68 41.147 56.8133 40.3203 55.72C39.5203 54.6 39.1203 53.2267 39.1203 51.6C39.1203 49.5467 39.7336 47.8533 40.9603 46.52C42.2136 45.16 43.8936 44.28 46.0003 43.88C46.1336 43.8267 46.2003 43.7467 46.2003 43.64L46.1203 40.72C46.1203 40.5867 46.1603 40.48 46.2403 40.4C46.347 40.2933 46.467 40.24 46.6003 40.24H50.6003C50.7336 40.24 50.8403 40.2933 50.9203 40.4C51.027 40.48 51.0803 40.5867 51.0803 40.72L51.0403 43.72C51.0403 43.8267 51.107 43.9067 51.2403 43.96C53.4536 44.4133 55.2136 45.3867 56.5203 46.88C57.827 48.3467 58.4803 50.1467 58.4803 52.28V52.88C58.4803 53.0133 58.427 53.1333 58.3203 53.24C58.2403 53.32 58.1336 53.36 58.0003 53.36H53.6403C53.507 53.36 53.387 53.32 53.2803 53.24C53.2003 53.1333 53.1603 53.0133 53.1603 52.88V52.56C53.1603 51.44 52.7203 50.4933 51.8403 49.72C50.9603 48.92 49.7603 48.52 48.2403 48.52C47.0403 48.52 46.107 48.7867 45.4403 49.32C44.7736 49.8533 44.4403 50.5867 44.4403 51.52C44.4403 52.1867 44.627 52.7467 45.0003 53.2C45.4003 53.6533 45.987 54.0667 46.7603 54.44C47.5336 54.8133 48.7336 55.2933 50.3603 55.88C52.147 56.5467 53.5603 57.1467 54.6003 57.68C55.6403 58.2133 56.5736 59.0133 57.4003 60.08C58.227 61.1467 58.6403 62.52 58.6403 64.2ZM79.0509 49.08C79.5043 50.1733 79.7309 51.48 79.7309 53V65.04C79.7309 66.48 79.3576 67.76 78.6109 68.88C77.8643 69.9733 76.8109 70.8267 75.4509 71.44C74.0909 72.0267 72.5309 72.32 70.7709 72.32C69.0376 72.32 67.5043 72.0267 66.1709 71.44C64.8376 70.8267 63.7976 69.9867 63.0509 68.92C62.3043 67.8267 61.9309 66.5733 61.9309 65.16V64.04C61.9309 63.9067 61.9709 63.8 62.0509 63.72C62.1576 63.6133 62.2776 63.56 62.4109 63.56H67.0909C67.2243 63.56 67.3309 63.6133 67.4109 63.72C67.5176 63.8 67.5709 63.9067 67.5709 64.04V64.4C67.5709 65.28 67.8643 66.0133 68.4509 66.6C69.0643 67.1867 69.8376 67.48 70.7709 67.48C71.7576 67.48 72.5576 67.1867 73.1709 66.6C73.7843 65.9867 74.0909 65.2133 74.0909 64.28V60.56C74.0909 60.48 74.0643 60.4267 74.0109 60.4C73.9576 60.3733 73.9043 60.3867 73.8509 60.44C72.7576 61.3733 71.3176 61.84 69.5309 61.84C67.9309 61.84 66.4909 61.48 65.2109 60.76C63.9576 60.0133 62.9709 58.9467 62.2509 57.56C61.5843 56.3067 61.2509 54.7733 61.2509 52.96C61.2509 51.3867 61.5176 50 62.0509 48.8C62.7176 47.2267 63.7843 45.9867 65.2509 45.08C66.7443 44.1733 68.4909 43.72 70.4909 43.72C72.5176 43.72 74.2776 44.2 75.7709 45.16C77.2909 46.0933 78.3843 47.4 79.0509 49.08ZM70.4909 57.12C71.8776 57.12 72.8776 56.5733 73.4909 55.48C73.8909 54.7867 74.0909 53.8933 74.0909 52.8C74.0909 51.92 73.9176 51.1067 73.5709 50.36C72.9843 49.1867 71.9709 48.6 70.5309 48.6C69.1443 48.6 68.1309 49.1867 67.4909 50.36C67.0909 51.1067 66.8909 51.9467 66.8909 52.88C66.8909 53.8933 67.1176 54.7733 67.5709 55.52C68.2376 56.5867 69.2109 57.12 70.4909 57.12ZM103.301 59.8C103.434 59.8 103.541 59.8533 103.621 59.96C103.728 60.04 103.781 60.1467 103.781 60.28V64.32C103.781 64.4533 103.728 64.5733 103.621 64.68C103.541 64.76 103.434 64.8 103.301 64.8H101.581C101.448 64.8 101.381 64.8667 101.381 65V71.52C101.381 71.6533 101.328 71.7733 101.221 71.88C101.141 71.96 101.034 72 100.901 72H96.2209C96.0876 72 95.9676 71.96 95.8609 71.88C95.7809 71.7733 95.7409 71.6533 95.7409 71.52V65C95.7409 64.8667 95.6743 64.8 95.5409 64.8H83.2609C83.1276 64.8 83.0076 64.76 82.9009 64.68C82.8209 64.5733 82.7809 64.4533 82.7809 64.32V61.12C82.7809 60.96 82.8209 60.76 82.9009 60.52L90.1009 44.36C90.2076 44.12 90.3943 44 90.6609 44H95.6609C95.8476 44 95.9676 44.0533 96.0209 44.16C96.1009 44.24 96.1009 44.3733 96.0209 44.56L89.3409 59.56C89.3143 59.6133 89.3143 59.6667 89.3409 59.72C89.3676 59.7733 89.4076 59.8 89.4609 59.8H95.5409C95.6743 59.8 95.7409 59.7333 95.7409 59.6V54.64C95.7409 54.5067 95.7809 54.4 95.8609 54.32C95.9676 54.2133 96.0876 54.16 96.2209 54.16H100.901C101.034 54.16 101.141 54.2133 101.221 54.32C101.328 54.4 101.381 54.5067 101.381 54.64V59.6C101.381 59.7333 101.448 59.8 101.581 59.8H103.301Z" fill="white"/>
<path id="VALUE" d="M44.6811 101C44.5344 101 44.4391 100.927 44.3951 100.78L39.8631 85.908L39.8411 85.82C39.8411 85.6733 39.9217 85.6 40.0831 85.6H42.8551C43.0164 85.6 43.1191 85.6733 43.1631 85.82L46.0891 96.556C46.1037 96.6 46.1257 96.622 46.1551 96.622C46.1844 96.622 46.2064 96.6 46.2211 96.556L49.1031 85.82C49.1471 85.6733 49.2497 85.6 49.4111 85.6H52.1171C52.2051 85.6 52.2711 85.6293 52.3151 85.688C52.3591 85.7467 52.3664 85.82 52.3371 85.908L47.7391 100.78C47.6951 100.927 47.5997 101 47.4531 101H44.6811ZM61.8517 101C61.7051 101 61.6097 100.927 61.5657 100.78L60.9057 98.624C60.8764 98.5653 60.8397 98.536 60.7957 98.536H55.3837C55.3397 98.536 55.3031 98.5653 55.2737 98.624L54.6357 100.78C54.5917 100.927 54.4964 101 54.3497 101H51.5557C51.4677 101 51.4017 100.978 51.3577 100.934C51.3137 100.875 51.3064 100.795 51.3357 100.692L56.0877 85.82C56.1317 85.6733 56.2271 85.6 56.3737 85.6H59.8277C59.9744 85.6 60.0697 85.6733 60.1137 85.82L64.8657 100.692C64.8804 100.721 64.8877 100.758 64.8877 100.802C64.8877 100.934 64.8071 101 64.6457 101H61.8517ZM56.0657 96.006C56.0511 96.094 56.0804 96.138 56.1537 96.138H60.0257C60.1137 96.138 60.1431 96.094 60.1137 96.006L58.1337 89.472C58.1191 89.4133 58.0971 89.3913 58.0677 89.406C58.0384 89.406 58.0164 89.428 58.0017 89.472L56.0657 96.006ZM67.0855 101C67.0122 101 66.9462 100.978 66.8875 100.934C66.8435 100.875 66.8215 100.809 66.8215 100.736V85.864C66.8215 85.7907 66.8435 85.732 66.8875 85.688C66.9462 85.6293 67.0122 85.6 67.0855 85.6H69.6595C69.7328 85.6 69.7915 85.6293 69.8355 85.688C69.8942 85.732 69.9235 85.7907 69.9235 85.864V98.228C69.9235 98.3013 69.9602 98.338 70.0335 98.338H77.2275C77.3008 98.338 77.3595 98.3673 77.4035 98.426C77.4622 98.47 77.4915 98.5287 77.4915 98.602V100.736C77.4915 100.809 77.4622 100.875 77.4035 100.934C77.3595 100.978 77.3008 101 77.2275 101H67.0855ZM84.9993 101.176C83.87 101.176 82.8727 100.956 82.0073 100.516C81.1567 100.076 80.4893 99.46 80.0053 98.668C79.536 97.8613 79.3013 96.9373 79.3013 95.896V85.864C79.3013 85.7907 79.3233 85.732 79.3673 85.688C79.426 85.6293 79.492 85.6 79.5653 85.6H82.1393C82.2127 85.6 82.2713 85.6293 82.3153 85.688C82.374 85.732 82.4033 85.7907 82.4033 85.864V95.918C82.4033 96.6953 82.638 97.326 83.1073 97.81C83.5913 98.2793 84.222 98.514 84.9993 98.514C85.7767 98.514 86.4 98.2793 86.8693 97.81C87.3533 97.326 87.5953 96.6953 87.5953 95.918V85.864C87.5953 85.7907 87.6173 85.732 87.6613 85.688C87.72 85.6293 87.786 85.6 87.8593 85.6H90.4333C90.5067 85.6 90.5653 85.6293 90.6093 85.688C90.668 85.732 90.6973 85.7907 90.6973 85.864V95.896C90.6973 96.9373 90.4553 97.8613 89.9713 98.668C89.502 99.46 88.8347 100.076 87.9693 100.516C87.1187 100.956 86.1287 101.176 84.9993 101.176ZM103.939 87.998C103.939 88.0713 103.91 88.1373 103.851 88.196C103.807 88.24 103.749 88.262 103.675 88.262H96.4593C96.3859 88.262 96.3493 88.2987 96.3493 88.372V91.782C96.3493 91.8553 96.3859 91.892 96.4593 91.892H101.189C101.263 91.892 101.321 91.9213 101.365 91.98C101.424 92.024 101.453 92.0827 101.453 92.156V94.29C101.453 94.3633 101.424 94.4293 101.365 94.488C101.321 94.532 101.263 94.554 101.189 94.554H96.4593C96.3859 94.554 96.3493 94.5907 96.3493 94.664V98.228C96.3493 98.3013 96.3859 98.338 96.4593 98.338H103.675C103.749 98.338 103.807 98.3673 103.851 98.426C103.91 98.47 103.939 98.5287 103.939 98.602V100.736C103.939 100.809 103.91 100.875 103.851 100.934C103.807 100.978 103.749 101 103.675 101H93.5113C93.4379 101 93.3719 100.978 93.3133 100.934C93.2693 100.875 93.2473 100.809 93.2473 100.736V85.864C93.2473 85.7907 93.2693 85.732 93.3133 85.688C93.3719 85.6293 93.4379 85.6 93.5113 85.6H103.675C103.749 85.6 103.807 85.6293 103.851 85.688C103.91 85.732 103.939 85.7907 103.939 85.864V87.998Z" fill="white"/>
</g>
<defs>
<clipPath id="clip0_0_1790">
<rect width="144" height="144" fill="white"/>
</clipPath>
</defs>
</svg>
