<svg width="144" height="144" viewBox="0 0 144 144" fill="none" xmlns="http://www.w3.org/2000/svg">
<g clip-path="url(#clip0_0_1705)">
<path fill-rule="evenodd" clip-rule="evenodd" d="M144 72C144 78.2609 137.05 83.3322 135.485 89.0296C133.92 94.727 137.301 102.866 134.358 107.812C131.416 112.758 122.713 114.073 118.456 118.268C114.198 122.463 113.197 131.103 108 134.17C102.803 137.238 94.9148 133.732 89.2174 135.297C83.52 136.863 78.2609 144 72 144C65.7391 144 60.6678 137.05 54.9704 135.485C49.273 133.92 41.1339 137.301 36.1878 134.358C31.2417 131.416 29.927 122.713 25.7322 118.456C21.5374 114.198 12.647 113.259 9.3913 108C6.13565 102.741 9.82957 94.9148 8.26435 89.2174C6.69913 83.52 0 78.2609 0 72C0 65.7391 6.94957 60.6678 8.51478 54.9704C10.08 49.273 6.69913 41.1339 9.64174 36.1878C12.5843 31.2417 21.287 29.927 25.5443 25.7322C29.8017 21.5374 30.7409 12.647 36 9.3913C41.2591 6.13565 49.0852 9.82957 54.7826 8.26435C60.48 6.69913 65.7391 0 72 0C78.2609 0 83.3322 6.94957 89.0296 8.51478C94.727 10.08 102.866 6.69913 107.812 9.64174C112.758 12.5843 114.073 21.287 118.268 25.5443C122.463 29.8017 131.103 30.8035 134.17 36C137.238 41.1965 133.732 49.0852 135.297 54.7826C136.863 60.48 144 65.7391 144 72Z" fill="#D52917" stroke="#AA1D0E" stroke-width="3" stroke-linecap="round" stroke-linejoin="round"/>
<path d="M59.402 64.2C59.402 66.3333 58.7487 68.0933 57.442 69.48C56.1354 70.8667 54.3487 71.7467 52.082 72.12C51.9487 72.1733 51.882 72.2533 51.882 72.36L51.922 74.96C51.922 75.0933 51.8687 75.2 51.762 75.28C51.682 75.3867 51.5754 75.44 51.442 75.44H47.442C47.3087 75.44 47.1887 75.3867 47.082 75.28C47.002 75.2 46.962 75.0933 46.962 74.96L47.002 72.32C47.002 72.2133 46.9354 72.1333 46.802 72.08C44.5354 71.6267 42.7487 70.6933 41.442 69.28C40.162 67.8667 39.522 66.0933 39.522 63.96V63.08C39.522 62.9467 39.562 62.84 39.642 62.76C39.7487 62.6533 39.8687 62.6 40.002 62.6H44.322C44.4554 62.6 44.562 62.6533 44.642 62.76C44.7487 62.84 44.802 62.9467 44.802 63.08V63.68C44.802 64.7467 45.2687 65.6533 46.202 66.4C47.1354 67.12 48.4154 67.48 50.042 67.48C51.402 67.48 52.402 67.1867 53.042 66.6C53.7087 65.9867 54.042 65.24 54.042 64.36C54.042 63.72 53.842 63.1867 53.442 62.76C53.042 62.3067 52.482 61.92 51.762 61.6C51.0687 61.2533 49.962 60.7867 48.442 60.2C46.7087 59.5867 45.2554 58.96 44.082 58.32C42.9087 57.68 41.9087 56.8133 41.082 55.72C40.282 54.6 39.882 53.2267 39.882 51.6C39.882 49.5467 40.4954 47.8533 41.722 46.52C42.9754 45.16 44.6554 44.28 46.762 43.88C46.8954 43.8267 46.962 43.7467 46.962 43.64L46.882 40.72C46.882 40.5867 46.922 40.48 47.002 40.4C47.1087 40.2933 47.2287 40.24 47.362 40.24H51.362C51.4954 40.24 51.602 40.2933 51.682 40.4C51.7887 40.48 51.842 40.5867 51.842 40.72L51.802 43.72C51.802 43.8267 51.8687 43.9067 52.002 43.96C54.2154 44.4133 55.9754 45.3867 57.282 46.88C58.5887 48.3467 59.242 50.1467 59.242 52.28V52.88C59.242 53.0133 59.1887 53.1333 59.082 53.24C59.002 53.32 58.8954 53.36 58.762 53.36H54.402C54.2687 53.36 54.1487 53.32 54.042 53.24C53.962 53.1333 53.922 53.0133 53.922 52.88V52.56C53.922 51.44 53.482 50.4933 52.602 49.72C51.722 48.92 50.522 48.52 49.002 48.52C47.802 48.52 46.8687 48.7867 46.202 49.32C45.5354 49.8533 45.202 50.5867 45.202 51.52C45.202 52.1867 45.3887 52.7467 45.762 53.2C46.162 53.6533 46.7487 54.0667 47.522 54.44C48.2954 54.8133 49.4954 55.2933 51.122 55.88C52.9087 56.5467 54.322 57.1467 55.362 57.68C56.402 58.2133 57.3354 59.0133 58.162 60.08C58.9887 61.1467 59.402 62.52 59.402 64.2ZM70.2927 66.92C70.2393 66.9733 70.226 67.0267 70.2527 67.08C70.2793 67.1333 70.3327 67.16 70.4127 67.16H81.2527C81.386 67.16 81.4927 67.2133 81.5727 67.32C81.6793 67.4 81.7327 67.5067 81.7327 67.64V71.52C81.7327 71.6533 81.6793 71.7733 81.5727 71.88C81.4927 71.96 81.386 72 81.2527 72H63.2527C63.1193 72 62.9993 71.96 62.8927 71.88C62.8127 71.7733 62.7727 71.6533 62.7727 71.52V67.84C62.7727 67.6 62.8527 67.4 63.0127 67.24C64.3193 65.96 65.6527 64.5733 67.0127 63.08C68.3727 61.56 69.226 60.6133 69.5727 60.24C70.3193 59.36 71.0793 58.52 71.8527 57.72C74.2793 55.0267 75.4927 53.0267 75.4927 51.72C75.4927 50.7867 75.1593 50.0267 74.4927 49.44C73.826 48.8267 72.9593 48.52 71.8927 48.52C70.826 48.52 69.9593 48.8267 69.2927 49.44C68.626 50.0267 68.2927 50.8133 68.2927 51.8V52.8C68.2927 52.9333 68.2393 53.0533 68.1327 53.16C68.0527 53.24 67.946 53.28 67.8127 53.28H63.0927C62.9593 53.28 62.8393 53.24 62.7327 53.16C62.6527 53.0533 62.6127 52.9333 62.6127 52.8V50.92C62.6927 49.48 63.146 48.2133 63.9727 47.12C64.7993 46 65.8927 45.1467 67.2527 44.56C68.6393 43.9733 70.186 43.68 71.8927 43.68C73.786 43.68 75.426 44.04 76.8127 44.76C78.226 45.4533 79.306 46.4 80.0527 47.6C80.826 48.8 81.2127 50.1333 81.2127 51.6C81.2127 52.72 80.9327 53.8667 80.3727 55.04C79.8127 56.2133 78.9727 57.48 77.8527 58.84C77.026 59.88 76.1327 60.9067 75.1727 61.92C74.2127 62.9333 72.786 64.4 70.8927 66.32L70.2927 66.92ZM102.995 59.24C103.395 60.5467 103.595 61.8133 103.595 63.04C103.595 64.4 103.382 65.6267 102.955 66.72C102.342 68.4267 101.262 69.7867 99.7155 70.8C98.1688 71.7867 96.3555 72.28 94.2755 72.28C92.2488 72.28 90.4621 71.8 88.9155 70.84C87.3955 69.8533 86.3155 68.52 85.6755 66.84C85.4088 66.1467 85.2088 65.4133 85.0755 64.64V64.56C85.0755 64.2667 85.2355 64.12 85.5555 64.12H90.3955C90.6621 64.12 90.8355 64.2667 90.9155 64.56C90.9421 64.72 90.9821 64.8533 91.0355 64.96C91.0888 65.0667 91.1288 65.16 91.1555 65.24C91.4221 65.9333 91.8221 66.4667 92.3555 66.84C92.8888 67.2133 93.5155 67.4 94.2355 67.4C94.9821 67.4 95.6355 67.2 96.1955 66.8C96.7555 66.4 97.1688 65.84 97.4355 65.12C97.7021 64.5867 97.8355 63.8933 97.8355 63.04C97.8355 62.2667 97.7155 61.5733 97.4755 60.96C97.2888 60.2667 96.9155 59.7333 96.3555 59.36C95.7955 58.9867 95.1421 58.8 94.3955 58.8C93.6488 58.8 92.9555 58.9733 92.3155 59.32C91.6755 59.6667 91.2488 60.12 91.0355 60.68C90.9555 60.9467 90.7821 61.08 90.5155 61.08H85.5955C85.4621 61.08 85.3421 61.04 85.2355 60.96C85.1555 60.8533 85.1155 60.7333 85.1155 60.6V44.48C85.1155 44.3467 85.1555 44.24 85.2355 44.16C85.3421 44.0533 85.4621 44 85.5955 44H102.115C102.249 44 102.355 44.0533 102.435 44.16C102.542 44.24 102.595 44.3467 102.595 44.48V48.36C102.595 48.4933 102.542 48.6133 102.435 48.72C102.355 48.8 102.249 48.84 102.115 48.84H90.9555C90.8221 48.84 90.7555 48.9067 90.7555 49.04L90.7155 54.96C90.7155 55.1467 90.7955 55.1867 90.9555 55.08C92.1555 54.3067 93.5421 53.92 95.1155 53.92C96.9821 53.92 98.6088 54.4 99.9955 55.36C101.409 56.2933 102.409 57.5867 102.995 59.24Z" fill="white"/>
<path d="M44.6811 101C44.5344 101 44.4391 100.927 44.3951 100.78L39.8631 85.908L39.8411 85.82C39.8411 85.6733 39.9217 85.6 40.0831 85.6H42.8551C43.0164 85.6 43.1191 85.6733 43.1631 85.82L46.0891 96.556C46.1037 96.6 46.1257 96.622 46.1551 96.622C46.1844 96.622 46.2064 96.6 46.2211 96.556L49.1031 85.82C49.1471 85.6733 49.2497 85.6 49.4111 85.6H52.1171C52.2051 85.6 52.2711 85.6293 52.3151 85.688C52.3591 85.7467 52.3664 85.82 52.3371 85.908L47.7391 100.78C47.6951 100.927 47.5997 101 47.4531 101H44.6811ZM61.8517 101C61.7051 101 61.6097 100.927 61.5657 100.78L60.9057 98.624C60.8764 98.5653 60.8397 98.536 60.7957 98.536H55.3837C55.3397 98.536 55.3031 98.5653 55.2737 98.624L54.6357 100.78C54.5917 100.927 54.4964 101 54.3497 101H51.5557C51.4677 101 51.4017 100.978 51.3577 100.934C51.3137 100.875 51.3064 100.795 51.3357 100.692L56.0877 85.82C56.1317 85.6733 56.2271 85.6 56.3737 85.6H59.8277C59.9744 85.6 60.0697 85.6733 60.1137 85.82L64.8657 100.692C64.8804 100.721 64.8877 100.758 64.8877 100.802C64.8877 100.934 64.8071 101 64.6457 101H61.8517ZM56.0657 96.006C56.0511 96.094 56.0804 96.138 56.1537 96.138H60.0257C60.1137 96.138 60.1431 96.094 60.1137 96.006L58.1337 89.472C58.1191 89.4133 58.0971 89.3913 58.0677 89.406C58.0384 89.406 58.0164 89.428 58.0017 89.472L56.0657 96.006ZM67.0855 101C67.0122 101 66.9462 100.978 66.8875 100.934C66.8435 100.875 66.8215 100.809 66.8215 100.736V85.864C66.8215 85.7907 66.8435 85.732 66.8875 85.688C66.9462 85.6293 67.0122 85.6 67.0855 85.6H69.6595C69.7328 85.6 69.7915 85.6293 69.8355 85.688C69.8942 85.732 69.9235 85.7907 69.9235 85.864V98.228C69.9235 98.3013 69.9602 98.338 70.0335 98.338H77.2275C77.3008 98.338 77.3595 98.3673 77.4035 98.426C77.4622 98.47 77.4915 98.5287 77.4915 98.602V100.736C77.4915 100.809 77.4622 100.875 77.4035 100.934C77.3595 100.978 77.3008 101 77.2275 101H67.0855ZM84.9993 101.176C83.87 101.176 82.8727 100.956 82.0073 100.516C81.1567 100.076 80.4893 99.46 80.0053 98.668C79.536 97.8613 79.3013 96.9373 79.3013 95.896V85.864C79.3013 85.7907 79.3233 85.732 79.3673 85.688C79.426 85.6293 79.492 85.6 79.5653 85.6H82.1393C82.2127 85.6 82.2713 85.6293 82.3153 85.688C82.374 85.732 82.4033 85.7907 82.4033 85.864V95.918C82.4033 96.6953 82.638 97.326 83.1073 97.81C83.5913 98.2793 84.222 98.514 84.9993 98.514C85.7767 98.514 86.4 98.2793 86.8693 97.81C87.3533 97.326 87.5953 96.6953 87.5953 95.918V85.864C87.5953 85.7907 87.6173 85.732 87.6613 85.688C87.72 85.6293 87.786 85.6 87.8593 85.6H90.4333C90.5067 85.6 90.5653 85.6293 90.6093 85.688C90.668 85.732 90.6973 85.7907 90.6973 85.864V95.896C90.6973 96.9373 90.4553 97.8613 89.9713 98.668C89.502 99.46 88.8347 100.076 87.9693 100.516C87.1187 100.956 86.1287 101.176 84.9993 101.176ZM103.939 87.998C103.939 88.0713 103.91 88.1373 103.851 88.196C103.807 88.24 103.749 88.262 103.675 88.262H96.4593C96.3859 88.262 96.3493 88.2987 96.3493 88.372V91.782C96.3493 91.8553 96.3859 91.892 96.4593 91.892H101.189C101.263 91.892 101.321 91.9213 101.365 91.98C101.424 92.024 101.453 92.0827 101.453 92.156V94.29C101.453 94.3633 101.424 94.4293 101.365 94.488C101.321 94.532 101.263 94.554 101.189 94.554H96.4593C96.3859 94.554 96.3493 94.5907 96.3493 94.664V98.228C96.3493 98.3013 96.3859 98.338 96.4593 98.338H103.675C103.749 98.338 103.807 98.3673 103.851 98.426C103.91 98.47 103.939 98.5287 103.939 98.602V100.736C103.939 100.809 103.91 100.875 103.851 100.934C103.807 100.978 103.749 101 103.675 101H93.5113C93.4379 101 93.3719 100.978 93.3133 100.934C93.2693 100.875 93.2473 100.809 93.2473 100.736V85.864C93.2473 85.7907 93.2693 85.732 93.3133 85.688C93.3719 85.6293 93.4379 85.6 93.5113 85.6H103.675C103.749 85.6 103.807 85.6293 103.851 85.688C103.91 85.732 103.939 85.7907 103.939 85.864V87.998Z" fill="white"/>
</g>
<defs>
<clipPath id="clip0_0_1705">
<rect width="144" height="144" fill="white"/>
</clipPath>
</defs>
</svg>
