<svg width="427" height="12" viewBox="0 0 427 12" fill="none" xmlns="http://www.w3.org/2000/svg">
<path d="M24.2597 4.09412C38.0032 4.09412 52.9417 3.95305 67.8802 3.81176L120.464 2.82339C140.183 2.39996 154.524 1.97631 164.085 1.83523C196.95 1.27051 228.618 0.846864 259.094 0.705792H261.484C266.264 0.705792 277.618 0.705792 291.361 0.423432H305.105C314.665 0.282361 326.019 0.141071 335.58 0.141071C355.299 0 369.042 0 375.614 0H379.796C380.991 0 382.186 0 382.784 0.141071C384.575 0.282142 385.174 0.564503 385.77 0.988153C386.367 1.55287 385.77 1.97652 383.38 2.39996L381.588 2.54103C379.796 2.6821 375.613 2.6821 369.04 2.82339L318.249 3.67047C293.75 3.95283 275.226 4.23519 262.677 4.51755C250.129 4.65862 233.397 4.94098 213.679 5.36463C173.643 5.92936 140.779 6.77644 107.316 7.90632L84.609 8.61189C97.7555 8.47082 105.523 8.32953 107.316 8.32953L107.913 8.18846H108.51H109.705C110.302 8.18846 110.9 8.18846 112.095 8.04739C114.485 8.04739 118.07 8.04739 122.253 7.90632L168.264 7.3416C178.422 7.20052 194.556 7.20052 215.47 7.05923L262.676 6.6358C303.905 6.21237 357.086 6.07108 421.622 6.07108C428.793 6.07108 428.793 8.61255 421.622 8.61255C355.295 8.61255 302.711 8.75362 262.676 9.17727L217.261 9.60048C196.946 9.74155 182.006 9.74155 172.446 9.88284C171.849 9.88284 171.849 9.88284 171.251 10.0239L170.056 10.3063H168.861C167.666 10.4473 157.508 10.4473 138.387 10.5886C129.424 10.7297 122.253 10.7297 118.07 10.7297H113.29H112.693H112.095C109.108 10.7297 101.34 10.8708 88.1933 11.1531L55.9261 11.5764C40.9875 11.8587 29.6341 12 21.8659 12H9.9154C8.1233 11.8587 6.92733 11.8587 6.33027 11.8587C5.7332 11.7176 4.53816 11.7176 3.94017 11.7176L0.953019 11.1529C-0.840013 10.4471 -0.242028 9.45854 3.94017 9.03532C5.13522 8.89425 6.33027 8.89425 8.1233 8.89425H11.1105H12.3055C22.4639 8.47082 31.4262 8.18846 39.1945 7.76481L89.9863 5.92936C64.2923 6.35279 42.1826 6.63515 24.2569 6.63515C17.0885 6.63537 17.0885 4.09412 24.2597 4.09412Z" fill="#D52917"/>
</svg>
