<svg width="57" height="57" viewBox="0 0 57 57" fill="none" xmlns="http://www.w3.org/2000/svg">
<path fill-rule="evenodd" clip-rule="evenodd" d="M52.4733 26.5939H52.4732C51.2109 26.6557 50.3951 25.4473 50.4564 24.5773C50.5492 23.7691 50.8953 22.6837 52.5116 22.6222C52.5427 22.6222 52.5735 22.6222 52.6118 22.6298C53.5047 22.6916 54.5203 23.6613 54.4283 24.693C54.3363 25.878 53.4663 26.5247 52.6118 26.5862C52.5653 26.5939 52.5195 26.5939 52.4733 26.5939ZM52.9122 23.2765H51.4186H51.4184V25.9477H51.9731V24.8316H52.4732L52.6118 25.1009L53.0274 25.9477H53.682L53.0274 24.8316C54.1822 24.8316 53.9665 23.2765 52.9122 23.2765Z" fill="#425E99"/>
<path fill-rule="evenodd" clip-rule="evenodd" d="M27.2022 21.1673C27.1945 21.1673 29.3034 20.9209 31.5589 21.8832C32.4444 22.2603 33.3525 22.8299 34.1606 23.6768C36.5007 26.2475 36.8471 29.6577 35.0614 32.6211C34.2298 34.076 32.9982 35.1997 31.5589 35.862C30.235 36.4697 28.7338 36.7006 27.2022 36.4468V21.1673ZM52.7581 24.3926C53.4353 24.3926 53.374 23.6768 52.7581 23.6768H51.9728V24.3926H52.7581ZM15.4331 33.6297L13.0314 28.5879L12.9928 28.6726L10.5527 33.6297H15.4331Z" fill="#425E99"/>
<path fill-rule="evenodd" clip-rule="evenodd" d="M52.6109 15.9869H55.6517V8.2818H0.830078L0.845608 40.8958L12.9921 16.3564L13.3001 15.7405L26.1393 41.8962L19.6581 41.9581C19.2312 41.4689 18.9628 40.8469 18.697 40.2309C18.4357 39.6251 18.1769 39.0252 17.7722 38.5634L12.9921 38.5478L8.11968 38.5329L6.58774 41.8889H0.830078V48.1852L12.9921 48.1928H52.6109L55.6361 48.2004V21.1673H49.0545V41.8889H43.451V21.1673H35.3151V15.9869H52.6109ZM52.5107 22.1217H52.6109C53.7807 22.1832 54.9276 23.3688 54.9276 24.6927C54.8892 26.1628 53.7115 26.9789 52.6109 27.0633C52.5418 27.0709 52.4805 27.0709 52.4105 27.0709C51.4564 27.0709 50.0165 26.2856 50.0165 24.5383C49.9784 23.4843 50.8563 22.1217 52.5107 22.1217ZM41.0725 24.8158C40.7873 23.7843 40.3106 22.8223 39.7178 22.1141L34.3376 22.1528L34.3601 17.1877C33.8292 16.8566 32.7977 16.5026 31.5582 16.2641C30.6809 16.0947 29.6954 15.9869 28.6951 15.9869L21.4441 15.9793V29.9191L27.348 41.9504C28.8178 42.012 30.2343 41.8889 31.5582 41.5962C38.9173 39.9643 43.4202 33.1444 41.0725 24.8158Z" fill="#425E99"/>
</svg>
