<svg width="55" height="55" viewBox="0 0 55 55" fill="none" xmlns="http://www.w3.org/2000/svg">
<path fill-rule="evenodd" clip-rule="evenodd" d="M28.3183 0.0567017H26.6193C18.4095 0.510363 12.456 3.68279 8.09401 8.0613C3.75204 12.4195 0.505078 18.3023 0.0918666 26.601C0.0964749 26.6331 0.0859586 26.65 0.0644531 26.6561V28.3065C0.49598 36.637 3.72534 42.4591 8.09389 46.8736C12.4625 51.2883 18.356 54.4369 26.6193 54.9056H28.2909C36.7187 54.4894 42.3019 51.2184 46.8437 46.9012C51.1673 42.3562 54.4536 36.7702 54.8732 28.3065V26.6561C54.4416 18.3256 51.2124 12.5033 46.8437 8.08882C42.4752 3.67437 36.5827 0.524477 28.3183 0.0567017ZM16.836 5.64059C18.1595 4.98364 19.6197 4.42786 21.248 3.99021C22.8886 3.54924 24.6864 3.31108 26.5922 3.22C30.4689 3.03474 34.0885 3.89829 36.869 5.06299C39.7346 6.26338 42.1664 7.9242 44.1859 9.87666C48.2673 13.8226 51.36 18.9971 51.722 26.6284C51.9133 30.657 51.0285 33.9825 49.8585 36.8611C47.545 42.5519 43.3709 46.6762 38.0745 49.3493C35.372 50.7132 32.1101 51.5625 28.3459 51.7424C24.4215 51.93 20.9365 51.0929 18.1241 49.8995C12.4366 47.4862 8.32691 43.5154 5.62751 38.1264C4.26061 35.3971 3.39531 32.1952 3.21606 28.3889C2.93176 22.3513 4.8949 17.747 7.16219 14.1678C9.48513 10.5009 12.8074 7.64014 16.836 5.64059Z" fill="#0083CA"/>
<path fill-rule="evenodd" clip-rule="evenodd" d="M24.9473 20.3569C25.142 20.4863 25.3377 20.6147 25.5334 20.7432L25.5335 20.7432C26.2104 21.1874 26.8875 21.6317 27.5233 22.1173C26.4415 22.7992 25.372 23.4935 24.3026 24.1879L24.3023 24.1881C23.5414 24.6821 22.7805 25.1762 22.0151 25.6657C22.1548 25.7729 22.304 25.8705 22.4533 25.9681L22.4533 25.9681L22.4533 25.9681C22.6027 26.0658 22.7522 26.1635 22.892 26.2708L23.3232 25.9967C25.036 24.9075 26.7488 23.8184 28.4551 22.7224C29.2846 23.2378 30.1012 23.7659 30.8668 24.3454C29.7978 25.0231 28.7495 25.7215 27.7012 26.4199L27.7012 26.4199C26.9321 26.9322 26.1631 27.4446 25.3859 27.9487C25.5594 28.0904 25.7578 28.2068 25.9563 28.3232C26.0691 28.3895 26.1819 28.4556 26.2901 28.5265C27.6716 27.6777 29.0281 26.8038 30.3846 25.9299L30.3847 25.9298C30.892 25.603 31.3993 25.2762 31.9079 24.9507V21.0445H36.0187V28.8291C36.7373 28.8688 37.5017 28.8628 38.266 28.8568C38.7354 28.8532 39.2048 28.8495 39.6636 28.8564V32.515H31.9079V28.8014C30.4104 29.7146 28.8884 30.7064 27.3703 31.6957L27.3702 31.6958C26.5784 32.2117 25.7877 32.727 25.0021 33.2301C23.7795 32.4332 22.5796 31.6135 21.3796 30.7937L21.3796 30.7937L21.3796 30.7937C20.2368 30.013 19.0941 29.2323 17.9318 28.4714C17.2415 30.6676 15.602 32.3198 12.8892 32.515C12.0119 32.578 11.0726 32.5512 10.0997 32.5235H10.0997H10.0997C9.19648 32.4978 8.26437 32.4713 7.32617 32.515V21.0445C8.24261 21.1055 9.19287 21.0743 10.1246 21.0437C11.6698 20.993 13.1642 20.944 14.3691 21.3196C16.0769 21.852 17.2877 23.2197 17.8494 24.923C19.4064 23.9415 20.9471 22.9436 22.4878 21.9457L22.4879 21.9457L22.4884 21.9453C23.3072 21.4151 24.126 20.8847 24.9473 20.3569ZM11.2449 24.7305V28.8565C11.341 28.857 11.4348 28.858 11.5264 28.8589C12.3686 28.8677 13.0256 28.8746 13.5468 28.4715C14.4067 27.8068 14.5799 26.1588 13.8208 25.2806C13.3143 24.6947 12.459 24.5717 11.2722 24.648C11.2405 24.6526 11.2425 24.6915 11.2449 24.7305ZM44.8427 21.0445H40.7321C40.7002 21.0491 40.7023 21.0878 40.7045 21.1266L40.7045 21.1271V32.5151H48.4601V28.8565H44.8427V21.0445Z" fill="#0083CA"/>
</svg>
