<svg width="96" height="20" viewBox="0 0 96 20" fill="none" xmlns="http://www.w3.org/2000/svg">
<path fill-rule="evenodd" clip-rule="evenodd" d="M14.1402 6.54545H10.4191L10.086 9.85986H13.4908C15.5728 9.85986 15.7279 10.2559 15.7279 11.6074V12.1794H12.9758C10.2719 12.1794 8.76046 13.124 8.76046 15.7704C8.76046 18.0143 10.0557 19.6364 12.49 19.6364C13.3815 19.6364 14.7337 19.5004 16.2496 18.6628L16.3927 19.5002H19.711V11.6338C19.7108 7.98619 18.709 6.54545 14.1402 6.54545ZM15.6956 16.5026C15.1157 16.8009 14.646 17.0909 13.8513 17.0909C13.111 17.0909 12.7757 16.6777 12.7757 15.8817C12.7757 15.0796 13.1366 14.9091 13.9588 14.9091H15.6958V16.5026H15.6956ZM96 6.44983H91.6479L87.9688 12.336V0.363636L83.9544 1.03904V19.6364H87.9688V13.4388L91.6479 19.6364H96L91.9825 12.8729L96 6.44983ZM63.89 6.54545C59.1833 6.54545 58.038 9.20599 58.038 11.9494V14.5976C58.038 17.3399 59.1831 20 63.89 20C68.5939 20 69.7186 17.3399 69.7186 14.5976V11.9494C69.7184 9.20599 68.5939 6.54545 63.89 6.54545ZM65.7034 15.0073C65.7034 15.9612 65.2299 16.7273 63.8782 16.7273C62.5228 16.7273 62.0532 15.9612 62.0532 15.0073V11.5333C62.0532 10.5825 62.5226 9.81818 63.8782 9.81818C65.2299 9.81818 65.7034 10.5825 65.7034 11.5333V15.0073ZM9.12547 6.43352H6.06758L6.07261 4.73956C6.07261 3.85733 6.15644 3.38435 7.41903 3.38435H9.10599V0H6.40602C3.16351 0 2.02225 1.64199 2.02225 4.40228V6.43352H0V9.81787H2.02225V19.6364H6.06758V9.81787H8.76755L9.12547 6.43352ZM21.1711 12.1013V14.4504C21.1711 17.7303 22.9145 20 27.303 20C28.3253 20 29.5346 19.8924 31.3916 19.4822V16.212C29.2717 16.5711 28.6632 16.6501 27.6432 16.6501C25.811 16.6501 25.2576 16.2516 25.2576 14.7209V11.8254C25.2576 10.2963 25.811 9.89783 27.6432 9.89783C28.6632 9.89783 29.2717 9.97686 31.3916 10.3343V7.06446C29.5346 6.65409 28.3251 6.54545 27.303 6.54545C22.9147 6.54545 21.1711 8.81937 21.1711 12.1013ZM52.2711 6.56969C51.2516 6.56969 50.1316 6.73295 49.2663 7.05572V0.727273L45.2624 1.39656V19.4892C47.4413 19.8255 48.6007 20 50.5736 20C56.0409 20 56.943 17.6912 56.943 14.5258V11.2614C56.9428 8.36973 56.2764 6.56969 52.2711 6.56969ZM52.9278 14.5314C52.9278 15.8102 52.6611 16.7273 50.7117 16.7273C50.1713 16.7273 49.847 16.7273 49.2776 16.6702V10.3696C49.8711 10.0914 50.4559 9.81818 51.2683 9.81818C52.6227 9.81818 52.9278 10.5769 52.9278 11.5207V14.5314V14.5314ZM77.0315 6.54545C72.3247 6.54545 71.1787 9.20599 71.1787 11.9494V14.5976C71.1787 17.3399 72.3245 20 77.0315 20C81.7339 20 82.8593 17.3399 82.8593 14.5976V11.9494C82.8593 9.20599 81.7339 6.54545 77.0315 6.54545ZM78.8441 15.0073C78.8441 15.9612 78.3664 16.7273 77.0155 16.7273C75.6632 16.7273 75.1939 15.9612 75.1939 15.0073V11.5333C75.1939 10.5825 75.6632 9.81818 77.0155 9.81818C78.3664 9.81818 78.8441 10.5825 78.8441 11.5333V15.0073ZM38.1453 6.54545C33.7525 6.54545 32.4867 8.89589 32.4867 11.7645V14.4504C32.4867 17.7303 34.1916 20 38.4794 20C40.4364 20 41.4748 19.8924 43.4682 19.4822V16.212C41.4013 16.5711 40.4197 16.6501 38.8103 16.6501C37.021 16.6501 36.4799 16.2516 36.4799 14.7209V14.4504H43.8023V11.7645C43.8025 8.86816 42.5393 6.54545 38.1453 6.54545ZM39.7871 11.6364H36.5019V11.1193C36.5019 10.1984 36.8068 9.45455 38.1451 9.45455C39.4818 9.45455 39.7871 10.1984 39.7871 11.1193V11.6364V11.6364Z" fill="#AAAAAA"/>
</svg>
