<svg width="100" height="29" viewBox="0 0 100 29" fill="none" xmlns="http://www.w3.org/2000/svg">
<path fill-rule="evenodd" clip-rule="evenodd" d="M3.49704 5.39874H0.0117188V24.3882H3.49704V16.4897H10.8478V24.3882H14.3376V5.39874H10.8478V13.1347H3.49704V5.39874ZM22.492 21.0862C24.0828 21.0862 25.3791 19.7927 25.3791 18.203V10.0274H28.6833V18.203C28.6833 21.6138 25.9055 24.3882 22.492 24.3882C19.0777 24.3882 16.2997 21.6138 16.2997 18.203V10.0274H19.6051V18.203C19.6051 19.7927 20.9006 21.0862 22.492 21.0862ZM37.9104 10.1232C36.2708 10.1232 35.1264 10.5985 34.0212 11.6824V5.39874H30.7051V17.0441C30.7051 21.403 33.8597 24.3882 37.4038 24.3882C41.3438 24.3882 44.796 21.3497 44.796 17.2559C44.796 13.2139 41.6127 10.1232 37.9104 10.1232ZM34.0276 17.2559C34.0276 19.4486 35.7459 21.3234 37.9928 21.3234C39.8967 21.3234 41.616 19.4486 41.616 17.2559C41.616 15.0628 39.8967 13.1874 37.9928 13.1874C35.7459 13.1874 34.0276 15.0628 34.0276 17.2559ZM50.3654 10.9578C50.3654 9.29248 51.4761 8.76448 52.692 8.76448C53.6709 8.76448 54.9663 9.5041 55.8117 10.4025L57.9794 7.86668C56.896 6.41397 54.7018 5.40986 52.9036 5.40986C49.3072 5.40986 46.7159 7.49687 46.7159 10.9578C46.7159 14.6295 49.3028 15.5352 51.5172 16.3105C53.174 16.8906 54.6223 17.3976 54.6223 18.9356C54.6223 20.0439 53.5386 21.0222 52.2965 21.0222C50.5184 21.0222 49.8316 20.2375 49.0471 19.3411L49.0468 19.3407L49.0457 19.3394L49.0453 19.339C48.9667 19.2492 48.8872 19.1584 48.8055 19.0671L46.3988 21.5499C47.9334 23.4256 49.8365 24.3771 52.1108 24.3771C55.5215 24.3771 58.2716 22.2637 58.2716 18.9612C58.2716 14.6603 55.3965 13.76 53.1139 13.0452C51.6113 12.5747 50.3654 12.1846 50.3654 10.9578ZM60.3026 17.2805C60.3026 12.9206 63.4576 9.93711 67.0013 9.93711C70.9406 9.93711 74.3937 12.9748 74.3937 17.0692C74.3937 21.1112 71.21 24.2015 67.508 24.2015C65.8678 24.2015 64.7239 23.7254 63.6185 22.6423V28.9558H60.3026V17.2805ZM67.5905 21.1377C65.3438 21.1377 63.6253 19.2604 63.6253 17.0692C63.6253 14.8761 65.3438 13.0007 67.5905 13.0007C69.4941 13.0007 71.2135 14.8761 71.2135 17.0692C71.2135 19.2604 69.4941 21.1377 67.5905 21.1377ZM96.291 19.1835C96.291 20.4785 96.8462 21.3234 98.8021 21.3234C99.1734 21.3234 99.5963 21.2971 99.9665 21.2715L99.1467 24.2827C98.829 24.3609 98.2466 24.3882 97.8236 24.3882C94.9956 24.3882 92.9339 22.8822 92.9339 19.8968V8.22069L96.291 6.71531V10.546H99.3312V13.4515H96.291V19.1835Z" fill="#45535E"/>
<path fill-rule="evenodd" clip-rule="evenodd" d="M87.4102 10.9923C88.5282 11.6518 89.4223 12.5277 90.058 13.6204C90.6826 14.705 90.9799 15.889 90.9799 17.1722V17.2373C90.9799 18.5418 90.6103 19.7275 89.9391 20.8007C89.2714 21.8709 88.3876 22.7092 87.2583 23.3222C86.1867 23.9023 85.0467 24.1859 83.8382 24.1859H83.6379C82.5448 24.1859 81.546 23.9478 80.6411 23.5569C80.1823 23.3589 79.7555 23.1293 79.3603 22.8567L76.4781 25.7365C76.546 25.953 76.5822 26.1809 76.5822 26.4143C76.5836 27.0135 76.3453 27.5884 75.9203 28.0112C75.4971 28.4363 74.9213 28.6747 74.3211 28.6732C73.7211 28.6748 73.1455 28.4364 72.7226 28.0112C72.2954 27.5846 72.0601 27.0176 72.0599 26.4143C72.0579 25.8149 72.2961 25.2397 72.7214 24.8169C73.3425 24.1931 74.2712 23.9896 75.0966 24.2965L77.8851 21.5038C77.4238 20.9352 77.0513 20.3064 76.7965 19.6148C76.5072 18.8227 76.3373 17.9795 76.3373 17.0864V16.8209C76.3373 15.5486 76.7471 14.3822 77.4178 13.3221C77.7487 12.8021 78.1624 12.3387 78.6065 11.9313L70.2044 5.88323L69.593 5.41979C69.1529 5.68467 68.6429 5.84578 68.0916 5.84578C66.4753 5.84578 65.166 4.53701 65.166 2.92299C65.166 1.30878 66.4739 0.000396729 68.0902 0.000396729C69.7066 0.000396729 71.015 1.30878 71.015 2.92299C71.015 3.19216 70.9621 3.44728 70.8934 3.69479C73.1071 5.37257 76.5206 7.96319 78.6821 9.60361C79.3498 10.1103 79.898 10.5264 80.2545 10.7969C80.9941 10.4232 81.8039 10.1799 82.5848 10.0672V6.59378C81.6087 6.1797 81.0378 5.26317 81.0378 4.19392C81.0378 2.73652 82.2281 1.55551 83.6869 1.55551C85.1445 1.55551 86.3144 2.73652 86.3144 4.19392C86.3144 5.26317 85.7086 6.1797 84.7324 6.59378V10.0656C85.7086 10.1981 86.5748 10.5064 87.4102 10.9923ZM83.8382 21.0651C84.8548 21.0651 85.7541 20.5301 86.5364 19.6616C87.2175 18.9132 87.558 18.0887 87.558 17.1985C87.558 17.0651 87.5526 16.9255 87.5418 16.7891C87.4735 16.1332 87.2611 15.5311 86.904 14.9728C86.5364 14.4148 86.0622 13.9906 85.4817 13.6801C84.912 13.3889 84.3084 13.2632 83.6707 13.2632H83.6053C82.9021 13.2632 82.2707 13.4542 81.6795 13.8435C81.0774 14.2356 80.6247 14.7286 80.2895 15.3627C79.9759 15.9428 79.8515 16.557 79.8515 17.2048V17.4049C79.8515 18.0638 80.0702 18.6852 80.4732 19.2543C80.8631 19.8342 81.3394 20.2922 81.9661 20.6132C82.5222 20.9048 83.0901 21.0651 83.6707 21.0651H83.8382Z" fill="#F8761F"/>
</svg>
