<svg width="71" height="47" viewBox="0 0 71 47" fill="none" xmlns="http://www.w3.org/2000/svg">
<path fill-rule="evenodd" clip-rule="evenodd" d="M15.4259 8.40399C35.6963 -3.9798 67.1418 -2.94936 70.459 13.3049C72.2407 22.0181 66.1126 29.1316 60.1383 31.3309V27.4458C65.1048 24.4746 67.8848 19.3144 67.0073 14.3613C64.3925 -0.611872 35.673 -0.675348 15.4259 9.77176V8.40399ZM3.01516 30.042C5.05678 41.011 19.633 43.0504 33.618 41.7556C42.2158 40.9551 52.5362 37.8722 58.7772 34.1402V39.5215C51.9006 43.3124 42.016 45.7514 34.4577 46.4865C15.3625 48.3478 2.85574 42.7429 0.517023 32.8453C-1.31386 25.1287 1.86481 18.5962 7.73011 13.4335V15.3366C4.47415 18.9006 2.0164 24.6346 3.01516 30.042Z" fill="#0E7DC2"/>
<path fill-rule="evenodd" clip-rule="evenodd" d="M57.6463 10.9382H53.9796V27.3286C53.9796 29.2494 54.9048 30.9199 57.6463 31.1867V10.9382ZM13.986 16.9226H10.3125L10.3105 27.631C10.3105 29.5586 11.2387 31.2273 13.986 31.4891V16.9226ZM13.9746 11.4368H10.3125V14.9252H13.9746V11.4368ZM35.9454 31.3195C32.9775 31.3195 31.7215 29.2492 31.7215 27.2099V12.9916H35.3564V16.9226H38.0938V19.8692H35.3564V26.9845C35.3564 27.816 35.7497 28.2793 36.6137 28.2793H38.0938V31.3197L35.9454 31.3195ZM45.8552 28.5011C43.7972 28.5011 42.6341 27.1292 42.6339 25.2624H51.8602V23.9463C51.8602 19.8212 49.6294 16.6786 45.7477 16.6786C41.9293 16.6786 39.017 19.363 39.017 24.1119C39.017 29.6668 42.3499 31.5722 45.8284 31.5722C48.491 31.5722 49.9997 30.7041 51.4397 29.2764L49.1937 27.129C48.2628 28.0519 47.4679 28.5011 45.8552 28.5011ZM45.5884 19.6957C44.3443 19.6957 43.3884 20.3388 42.9832 21.2063C42.7472 21.7277 42.6608 22.134 42.6338 22.7747H48.2357C48.1649 21.2063 47.4564 19.6957 45.5884 19.6957ZM25.3672 21.2564C25.3672 20.398 24.9241 19.8692 23.8582 19.8692H20.8502V31.3409H17.2131V16.9226L24.7232 16.9265C27.9158 16.9265 29.0029 19.1875 29.0029 21.2352V31.3409H25.3672V21.2564ZM61.5915 13.867C60.7832 13.867 60.1381 13.2127 60.1381 12.4025C60.1381 11.5962 60.7832 10.9382 61.5915 10.9382C62.3958 10.9382 63.0562 11.5962 63.0562 12.4025C63.0562 13.2127 62.3957 13.867 61.5915 13.867ZM60.3896 12.4025C60.3896 11.735 60.9254 11.1824 61.5915 11.1824C62.2576 11.1824 62.8105 11.735 62.8106 12.4025C62.8106 13.0739 62.2575 13.6168 61.5915 13.6168C60.9254 13.6168 60.3896 13.0739 60.3896 12.4025ZM62.2384 13.2802H61.9658C61.9418 13.2799 61.9201 13.2657 61.9104 13.2437L61.5416 12.6145C61.53 12.6011 61.4993 12.5857 61.4899 12.5857H61.321V13.2129C61.321 13.2438 61.2998 13.2803 61.2596 13.2803H61.0137C60.9771 13.2803 60.9524 13.2438 60.9524 13.2129V11.631C60.9524 11.5384 60.983 11.5004 61.0637 11.4888C61.152 11.4792 61.3824 11.4676 61.5112 11.4676C61.9661 11.4676 62.2332 11.602 62.2332 12.0254V12.0563C62.2332 12.3179 62.1046 12.4604 61.9049 12.524L62.2888 13.1801C62.2951 13.1947 62.2984 13.2105 62.2984 13.2265C62.2979 13.2513 62.2846 13.2802 62.2384 13.2802ZM61.5414 11.7928C61.7758 11.7928 61.8853 11.8487 61.8853 12.0254V12.0563C61.8853 12.224 61.7758 12.3024 61.5414 12.3024C61.5268 12.3024 61.4815 12.3006 61.4342 12.2988C61.3825 12.2968 61.3283 12.2947 61.3092 12.2947V11.7928H61.5414Z" fill="#0E7DC2"/>
</svg>
