<svg width="132" height="28" viewBox="0 0 132 28" fill="none" xmlns="http://www.w3.org/2000/svg">
<path fill-rule="evenodd" clip-rule="evenodd" d="M131.968 12.649V10.3456H129.086V6.76478L128.989 6.79442L126.282 7.61643L126.228 7.63252V10.3457H121.956V8.83424C121.956 8.13044 122.114 7.59185 122.427 7.23267C122.737 6.87779 123.181 6.69737 123.747 6.69737C124.154 6.69737 124.576 6.79252 125 6.98016L125.106 7.02729V4.60156L125.056 4.58331C124.66 4.44217 124.122 4.37109 123.455 4.37109C122.615 4.37109 121.851 4.55265 121.185 4.91247C120.518 5.2728 119.994 5.78718 119.627 6.44119C119.261 7.09444 119.075 7.84892 119.075 8.68385V10.3456H117.068V12.649H119.075V22.3525H121.956V12.649H126.228V18.8154C126.228 21.3551 127.435 22.642 129.816 22.642C130.207 22.642 130.619 22.5966 131.039 22.5075C131.467 22.416 131.758 22.3247 131.93 22.2271L131.968 22.2048V19.8802L131.851 19.9571C131.694 20.0605 131.5 20.145 131.271 20.2078C131.042 20.2718 130.851 20.3039 130.702 20.3039C130.145 20.3039 129.732 20.1547 129.476 19.8604C129.217 19.5634 129.086 19.0441 129.086 18.3176V12.649H131.968ZM110.634 20.3042C109.589 20.3042 108.764 19.9601 108.183 19.2823C107.599 18.601 107.303 17.6298 107.303 16.3958C107.303 15.1226 107.599 14.1261 108.184 13.4328C108.765 12.7441 109.582 12.3946 110.611 12.3946C111.61 12.3946 112.405 12.7284 112.975 13.3873C113.547 14.0497 113.838 15.0382 113.838 16.3262C113.838 17.63 113.565 18.6316 113.026 19.3016C112.491 19.9665 111.686 20.3042 110.634 20.3042ZM106.053 11.7807C107.183 10.6365 108.768 10.0564 110.763 10.0564C112.642 10.0564 114.132 10.6113 115.192 11.7061C116.251 12.8004 116.788 14.3238 116.788 16.2331C116.788 18.1661 116.216 19.7347 115.087 20.8935C113.958 22.0535 112.405 22.6418 110.471 22.6418C108.615 22.6418 107.115 22.0836 106.013 20.9816C104.911 19.8799 104.352 18.3678 104.352 16.4879C104.352 14.5086 104.924 12.925 106.053 11.7807ZM99.7069 10.0564C98.3499 10.0564 97.2274 10.4008 96.3699 11.0801C95.5072 11.7633 95.0696 12.6595 95.0696 13.7439C95.0696 14.3075 95.164 14.8083 95.3499 15.2329C95.5369 15.659 95.8263 16.0342 96.2109 16.349C96.5924 16.6613 97.1815 16.9885 97.962 17.3213C98.6181 17.5892 99.1075 17.8159 99.4183 17.9946C99.7221 18.1696 99.9378 18.3456 100.06 18.517C100.178 18.6848 100.238 18.9144 100.238 19.1977C100.238 20.0043 99.6292 20.3969 98.3767 20.3969C97.9122 20.3969 97.3823 20.3006 96.8018 20.1108C96.2254 19.9238 95.6815 19.6501 95.1889 19.2991L95.0693 19.214V21.9668L95.1132 21.987C95.5209 22.1738 96.0348 22.3313 96.6406 22.4552C97.2452 22.5792 97.7945 22.6423 98.2717 22.6423C99.7442 22.6423 100.93 22.2962 101.795 21.6129C102.666 20.9249 103.107 20.0076 103.107 18.8857C103.107 18.0764 102.87 17.3824 102.402 16.8226C101.937 16.2674 101.129 15.7577 100.003 15.3072C99.1066 14.9499 98.532 14.6533 98.2949 14.4256C98.0664 14.2057 97.9503 13.8946 97.9503 13.5007C97.9503 13.1516 98.0936 12.8718 98.3876 12.6453C98.6839 12.4176 99.0963 12.3018 99.6136 12.3018C100.094 12.3018 100.585 12.3771 101.073 12.5245C101.561 12.672 101.99 12.8695 102.348 13.1111L102.465 13.191V10.5797L102.42 10.5605C102.09 10.42 101.655 10.2997 101.126 10.2022C100.6 10.1053 100.122 10.0564 99.7069 10.0564ZM85.1083 19.2823C85.6892 19.9601 86.5138 20.3042 87.5592 20.3042C88.6114 20.3042 89.4155 19.9665 89.9506 19.3016C90.4893 18.6316 90.7626 17.63 90.7626 16.3262C90.7626 15.0382 90.4722 14.0497 89.8996 13.3873C89.3299 12.7284 88.5347 12.3946 87.5361 12.3946C86.5062 12.3946 85.6898 12.7441 85.1089 13.4328C84.524 14.1261 84.228 15.1226 84.228 16.3958C84.228 17.63 84.5236 18.601 85.1083 19.2823ZM87.6877 10.0564C85.6922 10.0564 84.1076 10.6365 82.9784 11.7807C81.8494 12.925 81.2766 14.5086 81.2766 16.4879C81.2766 18.3686 81.8358 19.8799 82.938 20.9816C84.0402 22.0836 85.54 22.6418 87.3958 22.6418C89.3294 22.6418 90.8827 22.0535 92.012 20.8935C93.1409 19.7347 93.7132 18.1661 93.7132 16.2331C93.7132 14.3238 93.1763 12.8004 92.1168 11.7061C91.0569 10.6113 89.5666 10.0564 87.6877 10.0564ZM76.9035 10.3456V12.425H76.9337C77.1997 11.7502 77.5474 11.209 78.0286 10.8144C78.5767 10.3654 79.2167 10.1373 79.9318 10.1373C80.4062 10.1373 80.7812 10.1937 81.0462 10.3054L81.0923 10.3251V13.1725L80.9726 13.0864C80.8409 12.9922 80.6175 12.9026 80.3091 12.8201C79.9974 12.7371 79.7097 12.6952 79.4534 12.6952C78.6971 12.6952 78.0777 13.0197 77.6129 13.66C77.1421 14.3081 76.9035 15.166 76.9035 16.2104V22.3523H74.0577V10.3456H76.9035ZM68.9614 10.0564C67.6558 10.0564 66.4913 10.3342 65.5008 10.8819C64.5083 11.4309 63.7406 12.2146 63.2184 13.2112C62.6984 14.2054 62.4344 15.3667 62.4344 16.6618C62.4344 17.7963 62.6904 18.8373 63.1963 19.7549C63.7025 20.6739 64.4189 21.3929 65.3258 21.8916C66.2314 22.3897 67.2781 22.6422 68.437 22.6422C69.7894 22.6422 70.9441 22.3738 71.8699 21.8446L71.9073 21.8233V19.2358L71.7877 19.3225C71.3683 19.6256 70.8997 19.8676 70.3954 20.042C69.8924 20.2162 69.4339 20.3042 69.0317 20.3042C67.9151 20.3042 67.0187 19.9575 66.368 19.2738C65.7159 18.5893 65.3853 17.628 65.3853 16.4184C65.3853 15.2013 65.7301 14.2153 66.4096 13.4878C67.0871 12.7625 67.9852 12.3946 69.0787 12.3946C70.0141 12.3946 70.9256 12.7089 71.7879 13.3297L71.9073 13.4157V10.6893L71.8687 10.6678C71.5442 10.4875 71.1016 10.3386 70.5522 10.2258C70.005 10.1131 69.4699 10.0564 68.9614 10.0564ZM57.6287 10.3457H60.4745V22.3523H57.6287V10.3457ZM59.0807 5.23086C58.6123 5.23086 58.2038 5.3891 57.8682 5.70268C57.5312 6.01714 57.3602 6.41307 57.3602 6.88032C57.3602 7.34023 57.5291 7.72894 57.8629 8.03504C58.1946 8.34025 58.6044 8.49495 59.0808 8.49495C59.5571 8.49495 59.9684 8.34025 60.304 8.03555C60.6418 7.72894 60.8132 7.34036 60.8132 6.88032C60.8132 6.42941 60.6464 6.03754 60.318 5.71535C59.9897 5.39379 59.5733 5.23086 59.0807 5.23086ZM51.9803 22.3523V9.45987H51.8866L46.7326 22.3523H44.6729L39.4372 9.45861H39.3435V22.3522H36.6143V5.59841H40.7975L45.7557 18.0427L50.8649 5.59841H54.8845V22.3523H51.9803Z" fill="#706D6E"/>
<path d="M13.3874 13.2864H0V0H13.3874V13.2864Z" fill="#F1511B"/>
<path d="M28.1684 13.2864H14.7812V0H28.1684V13.2864Z" fill="#80CC28"/>
<path d="M13.387 27.9611H0V14.6748H13.387V27.9611Z" fill="#00ADEF"/>
<path d="M28.1684 27.9611H14.7812V14.6748H28.1684V27.9611Z" fill="#FBBC09"/>
</svg>
