<svg width="105" height="26" viewBox="0 0 105 26" fill="none" xmlns="http://www.w3.org/2000/svg">
<path fill-rule="evenodd" clip-rule="evenodd" d="M36.3654 20.5583C32.8598 20.5583 31.1035 18.1469 31.1035 14.7397C31.1035 11.3325 32.8668 8.92102 36.3654 8.92102C39.871 8.92102 41.6273 11.3325 41.6273 14.7397C41.6273 18.1469 39.871 20.5583 36.3654 20.5583ZM47.0571 12.0911C49.3942 12.0911 50.8566 13.8117 50.8566 16.318C50.8566 18.8243 49.2473 20.5448 47.0571 20.5448C45.9936 20.5448 45.2309 20.0977 44.902 19.7726C44.839 19.7116 44.7551 19.7387 44.7551 19.82V23.4846C44.7551 23.532 44.7201 23.5659 44.6711 23.5659H42.8448C42.7958 23.5659 42.7609 23.532 42.7609 23.4846V12.335C42.7609 12.2876 42.7958 12.2537 42.8448 12.2537H44.0763C44.1743 12.2537 44.2792 12.2673 44.3142 12.335L44.7131 12.8837C44.769 12.9582 44.867 12.9379 44.937 12.8498C45.3288 12.4637 46.2105 12.0911 47.0571 12.0911ZM46.7213 13.8591C45.3918 13.8591 44.7481 14.8684 44.7481 16.318C44.7481 17.9233 45.3918 18.7768 46.7213 18.7768C48.1347 18.7768 48.8624 17.7676 48.8624 16.318C48.8624 14.8684 48.1347 13.8591 46.7213 13.8591ZM99.0463 23.5727C100.859 23.5727 100.999 23.4846 101.733 21.5473L104.91 12.3418C104.924 12.2944 104.889 12.2605 104.826 12.2605H102.902C102.853 12.2605 102.818 12.2944 102.804 12.3418L100.796 18.5601C100.775 18.6414 100.642 18.6414 100.628 18.5601L98.6195 12.3418C98.6055 12.2944 98.5705 12.2605 98.5216 12.2605H96.5833C96.5134 12.2605 96.4854 12.2944 96.4994 12.3418L99.2703 20.3077C99.6831 21.5405 99.6901 21.8995 98.6265 21.8995H96.6043C96.5343 21.8995 96.5204 21.9334 96.5204 21.9808V23.4914C96.5204 23.5388 96.5553 23.5727 96.6043 23.5727H99.0463ZM36.3654 10.689C38.4296 10.689 39.5561 12.2131 39.5561 14.7397C39.5561 17.2663 38.4296 18.7904 36.3654 18.7904C34.3012 18.7904 33.1747 17.2663 33.1747 14.7397C33.1747 12.2131 34.3082 10.689 36.3654 10.689ZM51.1295 13.9539C51.0805 13.9539 51.0455 13.9201 51.0455 13.8726V12.3485C51.0455 12.3011 51.0805 12.2673 51.1295 12.2673H52.494C52.5429 12.2673 52.5779 12.2334 52.5779 12.186V10.0184C52.5779 9.97095 52.6129 9.93708 52.6619 9.93708H54.4882C54.5371 9.93708 54.5721 9.97095 54.5721 10.0184V12.186C54.5721 12.2334 54.6071 12.2673 54.6561 12.2673H56.3494C56.3984 12.2673 56.4334 12.3011 56.4334 12.3485V13.8726C56.4334 13.9201 56.3984 13.9539 56.3494 13.9539H54.6491C54.6001 13.9539 54.5651 13.9878 54.5651 14.0352V18.1198C54.5651 18.4382 54.831 18.6346 55.1599 18.6346H56.3354C56.3844 18.6346 56.4194 18.6685 56.4194 18.7159V20.3213C56.4194 20.3687 56.3844 20.4025 56.3354 20.4025H55.0409C53.2986 20.4025 52.5639 19.7455 52.5639 18.1333V14.0352C52.5639 13.9878 52.5289 13.9539 52.48 13.9539H51.1295ZM57.6649 10.9464C57.6649 10.987 57.6929 11.0141 57.7349 11.0141H59.5611C59.6031 11.0141 59.6311 10.987 59.6311 10.9464V9.15133C59.6311 9.11069 59.6031 9.08359 59.5611 9.08359H57.7349C57.6929 9.08359 57.6649 9.11069 57.6649 9.15133V10.9464ZM57.7349 20.3958C57.6859 20.3958 57.6509 20.3619 57.6509 20.3145V12.3418C57.6509 12.2944 57.6859 12.2605 57.7349 12.2605H59.5611C59.6101 12.2605 59.6451 12.2944 59.6451 12.3418V20.3145C59.6451 20.3619 59.6101 20.3958 59.5611 20.3958H57.7349ZM70.8616 20.3145C70.8616 20.3619 70.8966 20.3958 70.9456 20.3958H72.7719C72.8208 20.3958 72.8558 20.3619 72.8558 20.3145V15.7625C72.8558 13.2562 71.6103 12.0979 69.5182 12.0979C68.4546 12.0979 67.7689 12.5653 67.307 13.0462C67.272 13.0937 67.2091 13.0937 67.1741 13.0462C66.7403 12.484 65.9916 12.0979 65.012 12.0979C64.2493 12.0979 63.3536 12.5314 63.0038 12.8701C62.9548 12.9175 62.8918 12.8972 62.8568 12.8363L62.6889 12.3553C62.6539 12.2944 62.6189 12.2605 62.521 12.2605H60.9466C60.8976 12.2605 60.8626 12.2944 60.8626 12.3418V20.3145C60.8626 20.3619 60.8976 20.3958 60.9466 20.3958H62.7659C62.8148 20.3958 62.8498 20.3619 62.8498 20.3145V15.8641C62.8498 14.7397 63.2207 13.8726 64.3472 13.8726C65.4948 13.8726 65.8586 14.9023 65.8586 15.8641V20.3145C65.8586 20.3619 65.8936 20.3958 65.9426 20.3958H67.7689C67.8178 20.3958 67.8528 20.3619 67.8528 20.3145V15.8641C67.8528 14.7397 68.2237 13.8726 69.3502 13.8726C70.4978 13.8726 70.8616 14.9023 70.8616 15.8641V20.3145ZM74.1643 11.0141C74.1223 11.0141 74.0943 10.987 74.0943 10.9464V9.15133C74.0943 9.11069 74.1223 9.08359 74.1643 9.08359H75.9906C76.0325 9.08359 76.0605 9.11069 76.0605 9.15133V10.9464C76.0605 10.987 76.0325 11.0141 75.9906 11.0141H74.1643ZM74.0733 20.3145C74.0733 20.3619 74.1083 20.3958 74.1573 20.3958H75.9836C76.0325 20.3958 76.0675 20.3619 76.0675 20.3145V12.3418C76.0675 12.2944 76.0325 12.2605 75.9836 12.2605H74.1573C74.1083 12.2605 74.0733 12.2944 74.0733 12.3418V20.3145ZM77.397 20.3958C77.348 20.3958 77.313 20.3619 77.313 20.3145V18.7701C77.313 18.7091 77.348 18.6549 77.376 18.6278L81.3784 14.1571C81.4134 14.1233 81.4134 14.0284 81.3154 14.0284H77.5649C77.5159 14.0284 77.481 13.9946 77.481 13.9472V12.3418C77.481 12.2944 77.5159 12.2605 77.5649 12.2605H83.8064C83.8554 12.2605 83.8904 12.2944 83.8904 12.3418V13.9336C83.8904 13.981 83.8764 13.9946 83.8554 14.0149L79.867 18.4991C79.832 18.533 79.832 18.6278 79.93 18.6278H83.9954C84.0443 18.6278 84.0793 18.6617 84.0793 18.7091V20.3145C84.0793 20.3619 84.0443 20.3958 83.9954 20.3958H77.397ZM86.5983 17.0699H92.378C92.427 17.0699 92.441 17.036 92.455 16.9886C92.504 16.7989 92.5249 16.6499 92.5389 16.3315C92.5389 13.8252 90.9086 12.1047 88.4876 12.1047C86.0665 12.1047 84.4362 13.8049 84.4362 16.3315C84.4362 18.8378 86.0665 20.5583 88.4876 20.5583C90.3838 20.5583 91.8952 19.6236 92.2591 18.0656C92.273 18.0182 92.2241 17.9843 92.1751 17.9843H90.2299C90.1459 17.9843 90.1109 18.0317 90.0969 18.0656C89.817 18.6143 89.2153 18.7904 88.4876 18.7904C87.312 18.7904 86.5144 18.0385 86.5144 17.1511C86.5144 17.1037 86.5493 17.0699 86.5983 17.0699ZM90.3488 15.4645C90.3978 15.4645 90.4118 15.4509 90.4118 15.4035C90.4118 14.76 89.845 13.8794 88.4876 13.8794C87.1441 13.8794 86.5144 14.7803 86.5144 15.4035C86.5144 15.4509 86.5284 15.4645 86.5773 15.4645H90.3488ZM93.5395 20.3145C93.5395 20.3619 93.5745 20.3958 93.6235 20.3958V20.4025H95.4498C95.4988 20.4025 95.5337 20.3687 95.5337 20.3213V9.16488C95.5337 9.11746 95.4988 9.08359 95.4498 9.08359H93.6235C93.5745 9.08359 93.5395 9.11746 93.5395 9.16488V20.3145Z" fill="#181818"/>
<path d="M9.87374 2.85851C8.60024 4.09133 7.75358 5.56801 7.31976 7.13952C8.12444 6.92954 8.9501 6.82116 9.77577 6.81438L6.99089 9.51034C6.98389 10.1064 7.03287 10.7025 7.14483 11.2918L11.616 6.96341C12.1898 7.05824 12.7496 7.20726 13.3024 7.4037C13.4633 7.15985 13.6522 6.93631 13.8691 6.71955C15.5135 5.12772 18.1864 5.12772 19.8378 6.71955C21.4821 8.31139 21.4821 10.899 19.8378 12.4976C19.6208 12.7076 19.3829 12.8904 19.131 13.0462C19.334 13.5746 19.4879 14.1233 19.5859 14.6787L15.1146 19.0072C15.7234 19.1155 16.3391 19.163 16.9549 19.1562L19.7398 16.4602C19.7328 17.2595 19.6208 18.0588 19.4039 18.8378C21.0203 18.4178 22.5527 17.5982 23.8262 16.3654C27.6816 12.633 27.6816 6.59085 23.8262 2.85851C19.9707 -0.867061 13.7222 -0.867061 9.87374 2.85851Z" fill="#0037FF"/>
<path fill-rule="evenodd" clip-rule="evenodd" d="M12.6302 9.83551C12.6652 10.3639 12.7982 10.8854 13.0361 11.3732L11.6856 12.6805L8.94271 15.3358C8.64882 14.9565 8.38993 14.5636 8.16602 14.1572L10.0972 12.2876L12.6302 9.83551ZM15.0303 13.2969C15.5341 13.534 16.0729 13.6627 16.6186 13.6898L14.0856 16.1419L12.1544 18.0114C11.7346 17.7947 11.3288 17.544 10.9369 17.2596L13.6798 14.6042L15.0303 13.2969Z" fill="#0037FF"/>
<path fill-rule="evenodd" clip-rule="evenodd" d="M7.32024 7.13953C7.10333 7.91852 6.99137 8.71782 6.98438 9.51712L9.76926 6.82117C8.94359 6.82794 8.11792 6.93632 7.32024 7.13953ZM12.6381 9.83549C12.5891 8.99554 12.813 8.14205 13.2958 7.41048C12.7431 7.21404 12.1833 7.06502 11.6095 6.97019L7.13831 11.2986C7.23627 11.8541 7.39021 12.396 7.59313 12.9311C7.75407 13.3511 7.94299 13.7643 8.1669 14.1639L12.6381 9.83549ZM16.6195 13.6898L12.1553 18.0182C12.5681 18.235 12.995 18.4178 13.4288 18.5736C13.9746 18.7701 14.5414 18.9191 15.1151 19.0139L19.5863 14.6855C19.4814 14.1301 19.3344 13.5882 19.1315 13.053C18.3688 13.5272 17.4872 13.7372 16.6195 13.6898ZM19.7403 16.4602C19.7333 17.2595 19.6213 18.0588 19.4044 18.8378C18.5997 19.0478 17.7741 19.1562 16.9554 19.1562L19.7403 16.4602ZM13.8626 12.5044C14.2125 12.843 14.6113 13.1072 15.0312 13.3037L10.9378 17.2663C10.5599 16.9954 10.2031 16.6973 9.86722 16.3722C9.53136 16.0403 9.22348 15.6948 8.94359 15.3358L13.037 11.3731C13.2399 11.7863 13.5128 12.1657 13.8626 12.5044Z" fill="#080738"/>
<path fill-rule="evenodd" clip-rule="evenodd" d="M7.31989 7.13953C5.70353 7.5595 4.17115 8.37912 2.89766 9.61195C0.994418 11.4544 0.0358013 13.8523 0.0078125 16.2638L6.98402 9.51034C6.99102 8.71781 7.10297 7.91851 7.31989 7.13953ZM9.97183 25.9164C12.4628 25.8893 14.9468 24.9613 16.8501 23.1188C18.1236 21.886 18.9702 20.4093 19.4041 18.8378C18.5994 19.0478 17.7737 19.1562 16.948 19.163L9.97183 25.9164ZM7.59278 12.9311C7.34088 13.0869 7.10297 13.2698 6.88606 13.4798C6.00441 14.3333 5.59858 15.4713 5.65455 16.5889L1.19034 20.9106C0.686541 20.0097 0.343678 19.041 0.161751 18.0521L7.13796 11.2986C7.23592 11.8541 7.38986 12.396 7.59278 12.9311ZM13.4214 18.5736C13.2605 18.8175 13.0716 19.0478 12.8547 19.2578C12.0084 20.0799 10.8401 20.5136 9.64296 20.45L5.17874 24.7716C6.10937 25.2593 7.10997 25.5913 8.13156 25.7674L15.1078 19.0139C14.541 18.9191 13.9742 18.7701 13.4214 18.5736ZM6.06039 18.1266C6.26331 18.5398 6.5362 18.9191 6.88606 19.2578C7.23592 19.5897 7.63476 19.8607 8.05459 20.0571L3.96123 24.0197C3.58338 23.7488 3.22653 23.4507 2.89066 23.1256C2.55479 22.7937 2.24692 22.4482 1.96703 22.0892L6.06039 18.1266Z" fill="#0037FF"/>
</svg>
