<svg width="103" height="15" viewBox="0 0 103 15" fill="none" xmlns="http://www.w3.org/2000/svg">
<path d="M22.9159 0.895828V11.3607C22.9159 12.1184 22.9524 12.585 23.0241 12.7614C23.1559 13.1862 23.5763 13.3997 24.286 13.3997H24.7591V14.1092H19.1926V13.3997H19.6666C20.1788 13.3997 20.5346 13.2945 20.7353 13.0807C20.9358 12.8682 21.0364 12.2942 21.0364 11.3607V0.895828H20.6225C19.9722 0.895828 19.3865 1.09107 18.868 1.48023C18.0859 2.07197 17.632 3.25832 17.5075 5.03875H16.916L17.0245 0.186584H26.9934L27.0725 5.03875H26.4703C26.2197 2.99556 25.6277 1.72258 24.693 1.21852C24.2908 1.00392 23.8006 0.89609 23.2215 0.89609L22.9159 0.895828Z" fill="#CA0088"/>
<path fill-rule="evenodd" clip-rule="evenodd" d="M68.9764 0.149177L71.8679 0L71.8674 5.85218C72.3071 4.83699 73.1021 4.33005 74.2512 4.33005C75.2298 4.33005 76.0311 4.68493 76.6548 5.39392C77.4625 6.3196 77.867 7.56823 77.867 9.13537C77.867 10.4733 77.5743 11.6264 76.9886 12.5916C76.298 13.7282 75.3375 14.2951 74.1068 14.2951C73.5087 14.2951 72.9597 14.1325 72.4597 13.8064C72.3614 13.7405 72.1378 13.5636 71.7891 13.2775C71.6573 13.172 71.542 13.1189 71.4442 13.1189C71.2929 13.1189 71.0197 13.4487 70.6256 14.109H69.9542C69.9932 13.992 70.0288 13.8839 70.0621 13.7829L70.0726 13.7512C70.1372 13.5539 70.1689 12.987 70.1689 12.0475V2.48392C70.1689 1.72286 70.0855 1.24916 69.9185 1.0657C69.7715 0.902126 69.5071 0.820472 69.127 0.820472H68.9764V0.149177ZM51.1428 14.1092H51.7648L55.3195 1.44309V11.3537C55.3195 12.2707 55.2272 12.8329 55.0425 13.0441C54.8314 13.2812 54.4644 13.3997 53.9438 13.3997H53.7659V14.1085H58.8618V13.3995H58.5926C57.8625 13.3995 57.4352 13.1859 57.3087 12.7591C57.2352 12.5761 57.1987 12.1092 57.1987 11.3571V2.90162C57.1987 1.96678 57.3004 1.39232 57.5018 1.1785C57.7041 0.965199 58.068 0.858159 58.5926 0.858159H58.8618V0.186602H54.8818L51.9427 10.3916L49.0758 0.186602H45.1635V0.858159H45.5411C45.8468 0.858159 46.0797 0.886162 46.2381 0.939813C46.5108 1.02853 46.6867 1.23476 46.766 1.55955C46.8055 1.71606 46.8258 2.03456 46.8258 2.51454V10.5541C46.8258 11.6659 46.7396 12.3974 46.567 12.7502C46.3547 13.1841 45.9963 13.3997 45.492 13.3997H45.1635V14.1092H49.3561V13.3997H49.0887C48.3695 13.3997 47.9047 13.0367 47.6941 12.311C47.6213 12.0676 47.5853 11.4808 47.5853 10.5505V1.44492L51.1428 14.1092ZM0 6.30782V9.21833H2.81949V6.30782H0ZM16.9162 9.21833V6.30782H19.7354V9.21833H16.9162ZM24.2534 9.21833V6.30782H27.0732V9.21833H24.2534ZM32.7116 6.30782V9.21833H35.5314V6.30782H32.7116ZM41.1693 9.21833V6.30782H43.9891V9.21833H41.1693ZM8.45796 9.21833V6.30782H11.2777V9.21833H8.45796ZM65.7137 6.1377C66.0265 6.8548 66.1836 7.9061 66.1836 9.29397C66.1836 12.2301 65.4679 13.6981 64.0377 13.6981C62.6002 13.6981 61.8822 12.217 61.8822 9.25419C61.8822 7.89956 62.0386 6.86187 62.3511 6.1377C62.7107 5.30598 63.2592 4.88959 63.9977 4.88959C64.7826 4.88959 65.3548 5.30598 65.7137 6.1377ZM59.9305 9.31438C59.9305 7.87601 60.2663 6.68678 60.94 5.74487C61.6853 4.70221 62.734 4.18009 64.0871 4.18009C65.3153 4.18009 66.3209 4.6954 67.1056 5.72446C67.7921 6.62554 68.1353 7.81581 68.1353 9.29449C68.1353 10.7679 67.7924 11.9577 67.1056 12.8637C66.3278 13.8933 65.3044 14.4081 64.038 14.4081C62.7632 14.4081 61.738 13.8936 60.96 12.8637C60.2734 11.9577 59.9305 10.7737 59.9305 9.31438ZM75.9158 9.21572C75.9158 12.1288 75.2513 13.5855 73.923 13.5855C73.1569 13.5855 72.5905 13.1786 72.2242 12.3639C71.8902 11.6237 71.7232 10.5918 71.7232 9.2657C71.7232 7.92913 71.9186 6.89929 72.3124 6.17906C72.7248 5.41904 73.278 5.03825 73.9717 5.03825C75.2675 5.03877 75.9158 6.43187 75.9158 9.21572ZM81.9466 4.33005V11.7748C81.9466 12.5455 82.0277 13.0273 82.1902 13.2184C82.3328 13.389 82.5898 13.4746 82.9621 13.4746H83.2842V14.1092H78.9099V13.4746H79.2318C79.6036 13.4746 79.8654 13.3846 80.0185 13.2034C80.171 13.0231 80.2471 12.5458 80.2471 11.7737V6.79356C80.2471 6.02229 80.1644 5.54388 79.9984 5.35937C79.853 5.1958 79.5904 5.11388 79.2118 5.11388H78.9834V4.4719L81.9466 4.33005ZM81.7355 0.415339C81.5213 0.188695 81.2666 0.0748501 80.9729 0.0748501C80.6642 0.0748501 80.3996 0.18477 80.1809 0.405132C79.9602 0.625495 79.8502 0.894798 79.8502 1.2133C79.8502 1.525 79.9589 1.79274 80.1753 2.01624C80.391 2.24001 80.6508 2.35123 80.9521 2.35123C81.2613 2.35123 81.5213 2.24184 81.7355 2.02121C81.9486 1.80111 82.0556 1.53102 82.0556 1.2133C82.0556 0.908931 81.9486 0.642768 81.7355 0.415339ZM87.0392 0V11.7748C87.0392 12.5468 87.12 13.0273 87.2827 13.2184C87.4257 13.389 87.6824 13.4746 88.0542 13.4746H88.376V14.1092H84.0025V13.4746H84.3243C84.6959 13.4746 84.9577 13.3846 85.111 13.2034C85.2633 13.0231 85.3399 12.5458 85.3399 11.7753V2.45356C85.3399 1.69564 85.2572 1.22089 85.0915 1.02958C84.945 0.86601 84.6827 0.784094 84.3048 0.784094H84.0757V0.14211L87.0392 0ZM91.4614 6.71531C91.3288 7.21361 91.2599 7.81162 91.2531 8.50883H94.9274C94.9274 7.61743 94.8248 6.86396 94.619 6.24815C94.3131 5.34236 93.8151 4.88933 93.125 4.88933C92.3408 4.88933 91.7871 5.49808 91.4614 6.71531ZM96.1725 6.34708C95.4748 4.9032 94.4301 4.18009 93.0398 4.18009C92.1046 4.18009 91.3035 4.56585 90.638 5.3366C89.7943 6.31148 89.3733 7.61037 89.3733 9.23273C89.3733 10.999 89.7943 12.3487 90.638 13.2827C91.3174 14.032 92.1867 14.4084 93.2476 14.4084C94.6902 14.4084 95.8367 13.5259 96.687 11.7622L96.0828 11.4358C95.8253 11.9865 95.5678 12.418 95.3106 12.73C94.842 13.3019 94.2583 13.5863 93.5593 13.5863C92.6617 13.5863 92.0281 13.1294 91.6588 12.216C91.3942 11.5683 91.2599 10.5701 91.2526 9.21886H96.794C96.7557 8.08093 96.5484 7.12384 96.1725 6.34708ZM99.615 6.30782V9.21833H102.433V6.30782H99.615Z" fill="#989A9C"/>
</svg>
