<svg width="79" height="48" viewBox="0 0 79 48" fill="none" xmlns="http://www.w3.org/2000/svg">
<path fill-rule="evenodd" clip-rule="evenodd" d="M40.2016 7.50809C40.2016 4.60658 42.2382 2.18269 44.9415 1.58765C50.4631 3.8379 54.3431 9.15456 54.3431 15.3548C54.3431 23.593 47.492 30.2713 39.0428 30.2713C30.5922 30.2713 23.7407 23.5934 23.7407 15.3548C23.7407 7.11667 30.5922 0.43837 39.0428 0.43837C40.9521 0.435636 42.8458 0.783405 44.6297 1.46439C44.3994 1.4544 44.1749 1.44899 44.0325 1.4519C36.1579 1.64511 30.6318 7.73836 30.6318 14.2343C30.6318 19.5551 34.6197 23.1437 38.8883 23.1437C43.1577 23.1437 46.6492 19.6555 46.6492 15.3544C46.6492 11.5247 44.4935 8.62322 40.2187 7.70713C40.2176 7.67916 40.214 7.64886 40.2105 7.61831C40.2061 7.58063 40.2016 7.54258 40.2016 7.50809ZM46.0379 38.7147H47.415V40.7763H46.0379V47.647H43.7119V40.7763H42.683V38.7147H43.7119V37.7599C43.7119 35.6471 44.6426 34.9254 46.7562 34.8434C47.0132 34.833 47.3904 34.8434 47.3904 34.8434V36.9238C47.3904 36.9238 47.1676 36.8846 46.9357 36.8846C46.0329 36.8846 46.0329 37.6046 46.0329 38.1713C46.0329 38.4282 46.0379 38.7147 46.0379 38.7147ZM27.9185 35.0583V39.4493C27.9135 39.4468 27.9102 39.4434 27.9064 39.4405C27.1719 38.8979 26.2737 38.5598 25.3014 38.5598C22.8292 38.5598 20.825 40.6248 20.825 43.1728C20.825 45.7199 22.8288 47.7849 25.3014 47.7849C26.2791 47.7849 27.1831 47.4621 27.9185 46.9146V47.6612H30.2171V35.0583H27.9185ZM4.99374 44.8217L7.10075 38.7051H9.68996L6.38495 47.6491H3.46595L0.179688 38.7051H2.83843L4.99374 44.8217ZM24.6783 40.9549C23.775 41.329 23.1861 42.2104 23.1861 43.1882C23.1865 44.5228 24.2682 45.6047 25.6029 45.6054C26.5806 45.6056 27.4621 45.0167 27.8364 44.1135C28.2107 43.2102 28.004 42.1705 27.3127 41.4791C26.6214 40.7877 25.5817 40.5808 24.6783 40.9549ZM36.536 40.8158C35.2185 40.8158 34.1436 41.8709 34.1192 43.1882C34.1194 44.5226 35.2007 45.6045 36.5352 45.6054C37.8702 45.6054 38.9526 44.5232 38.9528 43.1882C38.9284 41.8709 37.8535 40.8158 36.536 40.8158ZM38.8508 38.7151V39.4493L38.8387 39.4405C38.1058 38.8979 37.2056 38.5598 36.2337 38.5598C33.7615 38.5598 31.7573 40.6248 31.7573 43.1728C31.7573 45.7199 33.7611 47.7849 36.2337 47.7849C37.2114 47.7849 38.1146 47.4621 38.8508 46.9146V47.6612H41.1502V38.7151H38.8508ZM61.3287 39.4942C61.9817 38.8996 62.9348 38.529 63.9579 38.529C66.0654 38.529 67.2721 39.8711 67.2779 41.6433L67.2788 42.6452V47.6495H64.9065V42.4291C64.9065 41.1149 63.9908 40.7147 63.2667 40.7147C62.5996 40.7147 61.3246 41.0824 61.3962 42.6868V47.6495H59.0198V38.7147H61.3287V39.4942ZM73.4923 45.824C72.3414 45.824 71.402 45.0049 71.2891 43.8819L78.0287 43.8786C78.0287 43.8786 78.084 43.6566 78.084 43.1628C78.084 40.7918 76.2085 38.544 73.5719 38.544C70.936 38.544 68.8386 40.6123 68.8386 43.1628C68.8386 45.7132 70.7953 47.7807 73.5719 47.7807C75.8792 47.7807 77.4449 46.2063 77.8425 44.8138H75.3587C75.0018 45.4655 74.4001 45.824 73.4923 45.824ZM75.5773 42.1534C75.3766 41.139 74.5259 40.5552 73.4919 40.5552C72.4251 40.5552 71.5906 41.1765 71.3504 42.1467L75.5773 42.1534ZM14.9866 40.6881C14.9888 39.7992 15.6083 39.0312 16.4765 38.8409C18.2117 39.5446 19.4313 41.2019 19.4313 43.1357C19.4313 45.7057 17.2785 47.7886 14.6223 47.7886C11.9664 47.7886 9.81363 45.7057 9.81363 43.1357C9.81363 40.5665 11.9664 38.4828 14.6223 38.4828C15.2223 38.4818 15.8174 38.5906 16.3783 38.8038C16.3062 38.8005 16.2354 38.7988 16.1913 38.7997C13.7158 38.8588 11.9789 40.7605 11.9789 42.7863C11.9789 44.4457 13.2323 45.5654 14.574 45.5654C15.9156 45.5654 17.0129 44.4773 17.0129 43.1353C17.0129 41.9419 16.3354 41.0362 14.992 40.7497C14.9918 40.7412 14.9907 40.7314 14.9894 40.7215C14.9881 40.7102 14.9866 40.6985 14.9866 40.6881ZM52.7416 38.5215C50.0854 38.5215 47.9317 40.6044 47.9317 43.1744C47.9317 45.1078 49.1518 46.7659 50.8882 47.468C51.7559 47.2777 52.3748 46.5099 52.3765 45.6216C52.3765 45.6021 52.3723 45.5792 52.3715 45.56C51.0277 45.2743 50.3502 44.3687 50.3502 43.1744C50.3502 41.8315 51.4475 40.7451 52.7891 40.7451C54.1308 40.7451 55.3841 41.8636 55.3841 43.5234C55.3841 45.55 53.6469 47.4501 51.1722 47.5109C51.1099 47.5109 51.0475 47.5093 50.9852 47.5059C51.5287 47.7124 52.1208 47.8269 52.7412 47.8269C55.3966 47.8269 57.5495 45.7432 57.5495 43.174C57.5499 40.6044 55.3971 38.5215 52.7416 38.5215Z" fill="#CC2131"/>
</svg>
