<svg width="40" height="58" viewBox="0 0 40 58" fill="none" xmlns="http://www.w3.org/2000/svg">
<path fill-rule="evenodd" clip-rule="evenodd" d="M38.838 7.05603C38.838 4.92949 36.6131 2.80328 34.6352 2.80328C33.2011 2.80328 30.9265 4.4845 30.9262 6.70949C30.9262 7.25359 31.1736 7.64936 31.767 7.89647C33.3164 8.28378 33.7512 9.08927 34.0936 9.72361C34.363 10.2228 34.5753 10.616 35.2285 10.616C37.1568 10.616 38.838 8.34147 38.838 7.05603ZM20.1689 14.5297C18.2405 14.5297 16.5098 16.7057 16.5098 18.5845C16.5098 20.3645 17.3505 21.6007 18.7351 21.6007C20.2676 21.6007 22.5425 17.8425 22.5425 17.645C22.5425 15.5188 21.2564 14.5297 20.1689 14.5297ZM27.1939 18.74L27.2438 18.5916C27.7377 16.8113 28.7764 15.8226 29.9138 15.8226C31.3971 15.8226 33.0291 17.7016 33.0291 20.0257C33.0291 21.8553 31.8917 23.1903 30.5071 23.1903C29.4685 23.1903 28.9746 22.5477 28.5292 21.3112C28.0344 19.9762 27.9851 19.8771 27.1939 18.74ZM22.4654 23.7629C21.7733 23.7629 21.3286 24.0596 21.3286 24.6529C21.3286 25.0487 21.6247 25.2462 22.5648 25.5924C23.1692 25.8227 23.3211 26.1703 23.4305 26.4206C23.5089 26.6001 23.5655 26.7295 23.7515 26.7295C23.9281 26.7295 24.0112 26.6282 24.1216 26.4936C24.2892 26.2893 24.5195 26.0084 25.2348 25.8891C26.3723 25.6912 26.5702 25.6417 26.5702 25.1471C26.5702 24.6033 25.8282 23.7629 22.4654 23.7629Z" fill="#181818"/>
<path fill-rule="evenodd" clip-rule="evenodd" d="M28.8732 26.121C34.1153 26.121 37.5267 22.8574 37.5267 15.7863C38.2686 17.2204 38.9608 20.1871 38.9604 23.0562C38.9604 26.567 37.5762 33.6876 35.5983 37.347C34.263 39.8191 31.7903 41.5003 29.071 41.5003C27.4889 41.5003 26.6977 40.8574 26.6977 39.7696C26.6977 39.4674 26.7807 38.8969 26.8871 38.166L26.8871 38.1659C27.0766 36.8634 27.3403 35.0516 27.3403 33.3414C27.3403 31.5614 26.8956 30.7702 25.9557 30.7702C24.6706 30.7702 24.1265 32.0061 24.1265 34.3302C24.1265 38.0572 24.9056 40.0439 25.3345 41.1377C25.4974 41.5532 25.6098 41.8398 25.6098 42.0441C25.6098 42.9833 24.4724 43.5274 22.6432 43.5274C18.3409 43.5274 16.363 41.9945 13.7918 37.0992L11.0723 31.8577C11.1067 34.0076 11.4941 35.3332 11.7308 36.1433L11.7308 36.1434C11.8371 36.507 11.913 36.7668 11.913 36.9506C11.913 37.7914 10.8747 38.2859 9.34182 38.2859C7.36395 38.2859 5.68274 37.4944 4.59485 36.1098C3.21031 34.3298 1.62788 30.5716 1.62788 28.5445C1.62788 27.8293 1.68655 27.2119 1.7301 26.7537C1.75579 26.4834 1.77621 26.2685 1.77621 26.1217C1.77621 25.7722 1.65273 25.2993 1.49303 24.6877C1.20073 23.5684 0.787109 21.9844 0.787109 19.8418C0.787109 13.4632 4.05075 8.41954 8.94605 6.39211L8.69894 6.59C5.18819 9.06242 3.16076 12.4744 3.16076 16.7268C3.16076 21.0288 5.28697 24.7374 9.14394 27.6053C8.70931 26.8585 8.4515 25.5776 8.4515 24.935C8.4515 24.2981 8.57283 23.7826 8.6953 23.2623C8.82008 22.732 8.94605 22.1968 8.94605 21.523C8.94605 21.0011 8.89403 20.6042 8.83773 20.1746C8.77131 19.6679 8.69894 19.1158 8.69894 18.2594C8.69894 13.5616 11.0723 9.70498 15.1271 7.23256C14.3851 6.44134 13.8414 5.50179 13.8414 4.56224C13.8414 2.68315 16.1159 0.754822 18.44 0.754822C20.2203 0.754822 21.9012 2.2877 21.9012 5.15557C21.9012 5.55815 21.9012 5.81171 21.7959 6.00904C21.6166 6.3448 21.1325 6.51779 19.8245 6.98512C18.9135 7.30665 18.4235 7.75887 18.0478 8.10571C17.7302 8.39889 17.4941 8.61678 17.1542 8.61678C16.8083 8.61678 16.4621 8.41922 15.8688 8.02345C13.9401 9.75421 12.7535 13.71 12.7535 16.7757C12.7535 19.8415 13.693 21.8686 15.8688 23.3522C16.3373 23.6503 16.439 23.6915 18.3246 24.4566L18.3246 24.4566L18.3283 24.4581L18.329 24.4584C18.6306 24.5808 18.9779 24.7217 19.3795 24.8851C19.622 24.9891 19.7249 25.3358 19.8456 25.7424C20.0694 26.4964 20.3543 27.4563 21.7036 27.4563C22.0383 27.4563 22.3595 27.3758 22.6675 27.2986C22.9508 27.2275 23.2229 27.1593 23.4836 27.1593C23.998 27.1593 24.3787 27.4003 24.7439 27.6315C25.0807 27.8447 25.4044 28.0497 25.8077 28.0497C26.8524 28.0497 27.1088 27.5616 27.3638 27.0765C27.6156 26.5973 27.8659 26.121 28.8732 26.121ZM21.327 27.934C21.5249 28.824 22.6616 29.566 23.8483 29.566C24.8374 29.566 25.4803 29.1702 25.8757 28.5274C24.3429 28.5274 23.0082 28.3298 21.327 27.934ZM38.3117 39.5383C37.5749 39.5383 36.977 40.1177 36.977 40.8257C36.977 41.5479 37.5749 42.127 38.3117 42.127C39.0456 42.127 39.6396 41.5482 39.6396 40.8257C39.6393 40.1177 39.0453 39.5383 38.3117 39.5383ZM37.23 40.8257C37.23 41.4158 37.7109 41.8737 38.3117 41.8737C38.9057 41.8737 39.3863 41.4158 39.3863 40.8257C39.3863 40.2534 38.9057 39.7916 38.3117 39.7916C37.7106 39.7916 37.23 40.2531 37.23 40.8257Z" fill="#181818"/>
<path fill-rule="evenodd" clip-rule="evenodd" d="M38.9933 40.4879C38.9933 40.3671 38.9382 40.2385 38.8281 40.1767C38.7148 40.1142 38.5904 40.1064 38.4657 40.1064H37.816V41.5551H38.0362V40.8876H38.297L38.7219 41.5551H38.9748L38.5237 40.8876C38.7883 40.8804 38.9933 40.7736 38.9933 40.4879ZM38.2785 40.7078H38.0362V40.2712H38.4213C38.6085 40.2712 38.7731 40.2971 38.7731 40.4843C38.7733 40.7164 38.5457 40.7123 38.3483 40.7087C38.3244 40.7082 38.301 40.7078 38.2785 40.7078ZM32.113 56.2397C32.113 56.981 31.8273 57.2284 30.8764 57.2284V57.5747H36.3158V57.2288C35.3274 57.2288 35.08 57.0309 35.08 56.1901V52.976H35.7225C36.6617 52.976 37.1071 53.6688 37.1071 54.8554H37.453V50.5039H37.1071C37.0578 51.6906 36.8104 52.3827 35.7225 52.3827H35.08V48.6251H36.4645C37.8983 48.6251 38.739 49.2178 38.739 50.6024H39.0849V47.9816H30.8269V48.3275C31.7169 48.3275 32.113 48.5254 32.113 49.2175V56.2397ZM8.14495 51.1964L5.81956 57.6738H5.02834L2.55592 50.3556C1.91607 48.3377 1.69842 48.3353 1.08108 48.3283L1.07227 48.3282V47.9823H5.72045V48.3282C4.93507 48.3408 4.92211 48.9335 5.0779 49.4656L6.56122 53.9651L7.84828 50.3556C7.20844 48.3377 6.99079 48.3353 6.37377 48.3283L6.36496 48.3282V47.9823H11.0131V48.3282C10.2278 48.3408 10.2148 48.9335 10.3703 49.4656L11.8536 53.9651L13.5348 49.3169C13.7103 48.6439 13.5348 48.3777 12.9907 48.3282V47.9823H15.3148V48.3282C14.7215 48.3282 14.3752 48.5756 14.0294 49.564L11.1119 57.6734H10.321L8.14495 51.1964ZM20.806 57.6738L23.1314 51.1964L25.3075 57.6734H26.0981L29.0155 49.564C29.3624 48.5756 29.7082 48.3282 30.3016 48.3282V47.9823H27.9775V48.3282C28.5216 48.3777 28.6968 48.6439 28.5216 49.3169L26.8404 53.9651L25.357 49.4656C25.2013 48.9335 25.2139 48.3408 25.9996 48.3282V47.9823H21.3514V48.3282L21.3602 48.3283C21.9772 48.3353 22.1952 48.3377 22.8347 50.3556L21.5474 53.9651L20.064 49.4656C19.9086 48.9335 19.9215 48.3408 20.7066 48.3282V47.9823H16.0587V48.3282L16.0675 48.3283C16.6849 48.3353 16.9025 48.3377 17.5424 50.3556L20.0148 57.6738H20.806Z" fill="#181818"/>
</svg>
